<svg width="238" height="238" viewBox="0 0 238 238" fill="none" xmlns="http://www.w3.org/2000/svg">
<circle opacity="0.2" cx="119.5" cy="118.5" r="81.5" fill="#00D09C" stroke="#00D09C" stroke-width="2"/>
<circle opacity="0.2" cx="119" cy="119" r="100" fill="#00D09C" stroke="#00D09C" stroke-width="2"/>
<circle opacity="0.2" cx="119" cy="119" r="118" fill="#00D09C" stroke="#00D09C" stroke-width="2"/>
<circle cx="119.5" cy="118.5" r="62.5" fill="white"/>
<g clip-path="url(#clip0_86_31697)">
<path fill-rule="evenodd" clip-rule="evenodd" d="M119.499 56C154.018 56 182 83.9813 182 118.498C182 153.017 154.018 180.998 119.499 180.998C84.9824 180.999 57 153.017 57 118.498C57 83.9813 84.9824 56 119.499 56ZM91.6941 124.845L91.6789 124.831C90.8803 124.1 90.4511 123.117 90.4012 122.116C90.3514 121.117 90.681 120.097 91.4022 119.291C91.4124 119.28 91.4215 119.27 91.4317 119.259C92.1611 118.462 93.1447 118.032 94.1457 117.982C95.1517 117.932 96.1781 118.267 96.9858 118.997L110.165 130.948L141.79 97.8271C142.543 97.0377 143.543 96.6267 144.556 96.6023C145.565 96.5769 146.585 96.937 147.375 97.6877C148.165 98.4394 148.575 99.4424 148.601 100.454C148.626 101.464 148.265 102.485 147.514 103.274L113.232 139.179C113.209 139.203 113.183 139.227 113.158 139.247C112.431 139.975 111.481 140.361 110.515 140.397C109.524 140.434 108.518 140.099 107.724 139.379L91.7063 124.855L91.6941 124.845Z" fill="#00D09C"/>
</g>
<defs>
<clipPath id="clip0_86_31697">
<rect width="125" height="124.999" fill="white" transform="translate(57 56)"/>
</clipPath>
</defs>
</svg>
