<svg width="214" height="230" viewBox="0 0 214 230" fill="none" xmlns="http://www.w3.org/2000/svg">
<path opacity="0.2" d="M48.5605 104.224C42.7987 102.772 38.0485 98.8578 33.5183 95.0313C24.5457 87.4662 15.5292 79.9011 6.55664 72.38C16.013 73.5235 25.6893 73.0837 35.0137 71.0165C38.1365 70.3127 41.3473 69.4331 43.8543 67.4099C46.7132 65.1228 48.4285 61.7361 49.88 58.3933C56.2575 44.0549 60.5239 26.6375 52.343 13.2667C58.0608 23.2068 64.7463 32.6193 72.2234 41.284C83.3951 26.0658 96.634 12.3431 111.412 0.599609C109.785 9.26428 111.544 18.5007 116.206 25.9778C118.098 28.9687 120.561 31.8275 123.859 33.059C128.346 34.7304 133.36 33.1911 137.846 31.4757C149.502 27.1214 160.849 21.8873 171.757 15.9056C161.773 24.1305 151.041 33.7188 149.81 46.6059C149.59 48.805 149.854 51.4001 151.613 52.7196C153.064 53.7752 155 53.6872 156.803 53.5552C170.877 52.4556 184.952 51.312 199.027 50.2124C191.989 55.0946 185.304 60.5485 179.146 66.4862C176.991 68.5974 174.836 72.2041 177.035 74.2713C178.311 75.4588 180.29 75.2828 182.005 75.0629C191.154 73.9633 200.522 74.7991 209.363 77.438C210.814 77.8779 212.397 78.4496 213.145 79.8131C214.553 82.2761 212.222 85.1351 210.066 86.9823C197.443 97.7142 183.545 106.951 168.722 114.428C159.222 119.222 149.282 123.356 140.925 129.954C136.219 133.692 131.82 138.267 125.971 139.63C118.713 141.301 111.324 137.431 105.387 132.945C99.4049 128.458 93.7751 123.092 86.6498 121.025C80.7561 119.31 74.2466 120.014 68.5728 117.683C59.8641 114.12 54.0144 103.828 44.602 103.608" fill="white"/>
<path d="M194.672 108.534C193.749 113.592 191.505 118.342 189.13 122.917C185.744 129.47 182.093 135.848 178.223 142.137C176.507 144.908 174.66 147.767 172.021 149.702C168.106 152.561 162.96 153.045 158.078 152.429C154.912 156.124 151.701 159.818 147.83 162.809C146.599 163.777 145.279 164.657 143.784 165.184C139.605 166.592 134.855 164.569 130.545 164.613C130.237 165.008 129.885 165.36 129.489 165.712C123.156 171.694 114.579 175.168 105.87 175.256C98.3932 175.344 90.9601 172.925 84.8904 168.527C83.5709 169.451 82.3834 170.594 81.4158 171.914C78.3369 176.004 80.4481 180.183 80.9759 186.208C80.668 186.252 80.4042 186.34 80.1403 186.384C82.5153 190.826 83.9668 195.753 84.3626 200.811C78.3809 200.635 72.3992 201.646 66.7694 203.802L66.9013 204.153C64.9221 201.118 63.3387 197.82 62.1512 194.345C62.0192 193.949 61.8873 193.509 61.8433 193.07C60.6117 193.729 59.4242 194.433 58.2367 195.137C50.7596 189.419 43.7662 182.822 39.28 174.553C34.8377 166.284 33.2103 156.124 36.685 147.371C39.8518 139.454 47.7687 133.297 56.1695 133.165C54.4541 128.854 53.6184 124.148 53.7944 119.53C54.1462 109.986 58.6325 100.969 64.7901 93.6239C65.142 93.1841 65.5379 92.7442 65.8897 92.3484C59.2043 84.3434 52.4749 76.3825 45.7894 68.3776C62.3271 54.4349 80.6241 42.5155 100.109 33.0591C102.088 32.0915 104.507 31.1679 106.31 32.3994C107.058 32.9272 107.586 33.7629 108.07 34.5546C116.118 48.0135 124.167 61.5162 132.216 74.975C140.353 78.5377 147.434 84.6954 151.701 92.5243C152.624 94.1957 153.416 95.955 154.032 97.7583C154.34 97.4944 154.648 97.2305 154.912 96.9666C160.189 92.3923 166.259 88.4339 173.12 87.2024C179.982 86.0148 187.767 88.082 191.857 93.7558C194.98 97.8902 195.596 103.476 194.672 108.534ZM108.07 175.213C103.187 175.213 99.2729 187.22 99.2729 202.042C99.2729 216.865 103.231 228.872 108.07 228.872C112.908 228.872 116.866 216.865 116.866 202.042C116.866 187.22 112.952 175.213 108.07 175.213ZM59.6001 198.304C56.3454 199.183 55.3338 205.957 57.357 213.39C59.3802 220.823 63.6466 226.189 66.9453 225.265C70.2001 224.386 71.2117 217.612 69.1885 210.179C67.1652 202.702 62.8549 197.38 59.6001 198.304ZM147.434 192.498C144.048 192.146 140.705 198.084 139.913 205.781C139.122 213.478 141.233 219.987 144.575 220.295C147.962 220.647 151.305 214.709 152.097 207.012C152.888 199.359 150.777 192.85 147.434 192.498Z" fill="white"/>
<path d="M179.63 169.275C178.882 168.835 179.586 167.692 180.29 168.131C185.216 171.078 190.142 174.069 195.068 177.016C195.816 177.456 195.112 178.599 194.408 178.16C189.482 175.213 184.556 172.222 179.63 169.275ZM172.593 176.664C175.408 179.479 178.223 182.294 181.038 185.109C181.653 185.725 182.577 184.757 181.961 184.185C179.146 181.37 176.331 178.555 173.516 175.74C172.901 175.125 171.977 176.048 172.593 176.664ZM23.5341 178.687C18.4321 180.93 13.33 183.218 8.22799 185.461C7.4363 185.813 8.14003 186.956 8.88774 186.604C13.9898 184.361 19.0918 182.074 24.1938 179.831C24.9416 179.479 24.2818 178.379 23.5341 178.687ZM26.349 120.19C18.0802 121.773 9.63544 122.301 1.23467 121.729C0.39899 121.685 0.39899 123.005 1.23467 123.049C9.76739 123.62 18.3441 123.049 26.7009 121.465C27.5366 121.333 27.1847 120.058 26.349 120.19ZM23.3142 128.679C19.6636 129.426 15.969 130.13 12.3184 130.878C11.4827 131.054 11.8346 132.329 12.6703 132.153C16.3209 131.405 20.0154 130.702 23.666 129.954C24.5017 129.778 24.1499 128.503 23.3142 128.679ZM126.455 35.5223C127.554 32.9713 128.654 30.3763 129.753 27.8253C129.885 27.5174 129.841 27.1215 129.533 26.9016C129.269 26.7257 128.786 26.8136 128.61 27.1215C127.51 29.6725 126.411 32.2675 125.311 34.8185C125.179 35.1264 125.223 35.5223 125.531 35.7422C125.795 35.9182 126.279 35.8742 126.455 35.5223ZM51.0235 28.8808C49.1762 26.6817 47.329 24.4825 45.5257 22.2834C45.3057 22.0195 44.8219 22.0635 44.602 22.2834C44.3381 22.5473 44.3821 22.9432 44.602 23.2071C46.4493 25.4062 48.2966 27.6054 50.0999 29.8045C50.3198 30.0684 50.8036 30.0244 51.0235 29.8045C51.2874 29.5406 51.2435 29.1447 51.0235 28.8808ZM37.4328 25.4942C40.6875 28.0892 43.8983 30.7282 47.153 33.3232C47.8128 33.851 48.7364 32.9273 48.0767 32.3995C44.8219 29.8045 41.6112 27.1656 38.3564 24.5706C37.6967 24.0428 36.773 24.9664 37.4328 25.4942Z" fill="#24668A"/>
<path d="M130.501 175.521C130.853 182.25 130.897 188.98 130.633 195.709C130.633 196.237 130.061 196.413 129.709 196.281H129.665C125.795 196.633 121.924 196.984 118.054 197.336C117.218 197.424 117.218 196.105 118.054 196.017C121.836 195.665 125.575 195.313 129.357 195.005C129.577 188.496 129.533 181.986 129.181 175.521C127.334 175.433 125.531 175.345 123.684 175.169C122.848 175.081 122.848 173.761 123.684 173.849C125.707 174.025 127.774 174.157 129.797 174.201V173.937C129.797 174.025 129.797 174.113 129.797 174.201C136.615 174.421 143.432 174.025 150.205 173.014C151.041 172.882 151.393 174.157 150.557 174.289C143.916 175.301 137.23 175.697 130.501 175.521ZM112.6 203.802C112.424 204.638 113.699 204.989 113.875 204.154C115.063 198.612 114.799 192.85 113.172 187.396C112.908 186.605 111.676 186.912 111.896 187.748C113.479 192.982 113.743 198.524 112.6 203.802ZM105.694 180.667C103.363 184.361 102.176 188.76 102.396 193.114C102.44 193.95 103.759 193.95 103.715 193.114C103.539 188.98 104.595 184.845 106.838 181.327C107.278 180.623 106.134 179.963 105.694 180.667ZM146.643 196.545C147.478 196.193 147.918 196.897 148.094 197.6C148.754 199.711 148.886 201.999 148.534 204.154C148.49 204.506 148.622 204.857 148.974 204.945C149.282 205.033 149.722 204.857 149.765 204.506C149.985 203.098 150.073 201.691 149.941 200.239C149.809 198.92 149.59 197.468 148.974 196.281C148.358 195.181 147.127 194.785 145.983 195.313C144.751 195.885 144.312 197.204 143.96 198.392C143.74 199.228 145.015 199.58 145.235 198.744C145.543 197.996 145.807 196.897 146.643 196.545ZM60.1279 214.138C59.8201 214.226 59.5562 214.622 59.6881 214.93C60.6997 217.657 62.1512 220.208 63.9545 222.495C64.3503 223.023 64.8341 223.462 65.4939 223.638C66.1096 223.77 66.7694 223.638 67.2972 223.286C68.4847 222.539 68.7926 221.131 68.9685 219.856C69.0125 219.504 68.8806 219.152 68.5287 219.064C68.2208 218.976 67.781 219.152 67.737 219.504C67.6051 220.472 67.4731 221.703 66.5495 222.231C65.5818 222.803 64.8781 221.571 64.3943 220.911C62.9869 218.976 61.8433 216.821 60.9636 214.578C60.8317 214.27 60.4798 214.05 60.1279 214.138ZM193.705 114.472C192.165 118.607 190.098 122.565 187.987 126.436C185.788 130.526 183.501 134.573 181.125 138.531C178.97 142.182 176.859 146.184 173.692 149.087C170.877 151.682 167.227 152.913 163.444 153.177C161.729 153.309 160.014 153.221 158.342 153.045C156.495 155.201 154.648 157.312 152.668 159.335C151.041 160.962 149.282 162.59 147.39 163.953C147.083 163.601 146.775 163.294 146.467 162.986C146.555 162.898 146.643 162.854 146.775 162.766C150.689 159.907 153.944 156.168 157.111 152.518C154.692 151.286 152.185 150.187 149.634 149.263C147.127 148.383 144.575 147.679 142.024 147.108C140.837 146.844 139.473 146.492 138.33 146.976C137.89 147.152 137.582 147.416 137.274 147.724C137.274 147.768 137.274 147.811 137.274 147.855C137.318 149.263 136.439 150.45 135.251 151.066C133.228 154.849 131.249 158.675 129.269 162.458C128.742 162.898 128.214 163.381 127.774 163.909C127.73 163.997 127.686 164.085 127.642 164.173L127.07 165.053C126.982 165.097 126.894 165.097 126.806 165.141C126.674 165.317 126.542 165.493 126.41 165.713C126.323 165.625 126.235 165.493 126.235 165.361C122.98 166.46 119.417 166.68 115.898 166.46C114.887 166.416 113.875 166.328 112.908 166.24C113.128 167.78 112.776 169.363 111.676 170.551C110.884 171.43 109.829 172.002 108.685 172.134C108.817 172.882 108.905 173.63 109.037 174.377C113.875 173.893 118.581 172.354 122.804 169.891C123.596 169.407 124.387 168.923 125.135 168.396C124.915 169.011 124.739 169.671 124.607 170.331C123.684 170.903 122.76 171.43 121.792 171.914C118.274 173.674 114.535 174.905 110.664 175.477C114.711 178.644 117.57 189.156 117.57 201.955C117.57 202.262 117.57 202.614 117.57 202.922C119.725 202.834 121.88 202.878 123.991 203.01C129.181 203.406 134.327 204.594 139.21 206.485C139.21 206.221 139.254 205.957 139.298 205.649C140.133 197.468 143.784 191.399 147.566 191.795C151.349 192.19 153.68 198.876 152.844 207.057C152.448 210.839 151.437 214.402 149.985 216.953C148.534 219.548 146.731 220.911 144.971 220.911C144.839 220.911 144.751 220.911 144.619 220.911C142.728 220.735 141.145 218.932 140.177 215.941C139.429 213.654 139.122 210.839 139.21 207.848C132.348 205.165 124.959 203.89 117.614 204.242C117.218 218.536 113.216 229.4 108.157 229.4C103.187 229.4 99.2289 218.844 98.7451 204.858C94.9625 205.121 91.18 205.649 87.4414 206.397C87.3535 206.441 87.3095 206.441 87.2215 206.441C87.1775 207.277 87.1335 208.112 87.1335 208.948C87.0896 209.784 85.7701 209.784 85.8141 208.948C85.902 206.265 86.034 203.538 86.1219 200.855C86.1219 200.371 86.5618 200.151 86.9576 200.239C87.0016 200.063 87.1336 199.887 87.3975 199.843C91.092 198.788 94.9625 198.216 98.7891 198.172C99.2729 187.528 101.78 178.995 105.167 175.785C103.803 175.785 102.396 175.653 101.032 175.477C95.3144 174.729 89.8165 172.53 85.0664 169.231C84.0548 169.979 83.1311 170.859 82.3394 171.87C80.844 173.761 80.4481 175.961 80.6681 178.336C80.756 179.127 80.844 179.919 80.9759 180.711C81.1958 181.59 81.4158 182.426 81.5917 183.306C81.6357 183.526 81.5917 183.702 81.5037 183.834C81.6357 184.581 81.7236 185.329 81.8116 186.077C81.8556 186.341 81.5917 186.648 81.3278 186.692H81.2838C81.9435 187.968 82.5153 189.332 82.9992 190.695C84.1867 193.906 84.8904 197.248 85.1543 200.679C85.1543 200.811 85.1103 200.943 85.0224 201.075C84.6265 200.591 84.1867 200.107 83.7029 199.712C83.2191 195.269 81.8996 190.959 79.8763 187C73.8946 188.32 68.0889 190.431 62.7229 193.29C62.8549 193.994 63.2068 194.741 63.4267 195.313C63.7785 196.281 64.1744 197.248 64.6142 198.172C64.7902 198.568 65.0101 199.008 65.186 199.404C65.0541 199.536 64.9221 199.668 64.8341 199.799C65.0541 200.019 65.23 200.283 65.4499 200.503C67.1652 202.658 68.6607 205.649 69.6283 208.992C74.8623 209.124 80.0963 209.3 85.3302 209.564C86.1659 209.608 86.1659 210.927 85.3302 210.883C80.2282 210.619 75.0822 210.443 69.9801 210.311C71.9594 218.052 70.7279 224.738 67.1212 225.705C66.8134 225.793 66.5495 225.837 66.2416 225.837C62.7669 225.837 58.7205 220.647 56.7412 213.346C54.5861 205.429 55.7736 198.436 59.4682 197.424C60.6557 197.117 61.9313 197.424 63.2068 198.348C62.547 196.897 61.9312 195.401 61.4914 193.862C60.5678 194.39 59.6001 194.917 58.7205 195.489C58.5445 195.621 58.2367 195.621 58.0607 195.489C52.7828 191.443 47.7247 187 43.5903 181.766C36.3771 172.618 31.9348 160.303 35.5854 148.735C38.3123 140.114 46.3172 132.901 55.4217 132.329C54.1462 128.811 53.3985 125.072 53.3106 121.29C53.0906 111.481 57.313 102.069 63.2947 94.46C63.9105 93.6683 64.5702 92.8765 65.23 92.1288C58.6765 84.2998 52.079 76.4709 45.5256 68.6419C45.3056 68.378 45.2177 67.9381 45.5256 67.7182C46.3172 67.0145 47.1529 66.3548 47.9886 65.6951C54.5421 60.3291 61.3155 55.2711 68.3528 50.5209C75.3901 45.7707 82.6473 41.4163 90.0804 37.3699C91.9277 36.3583 93.819 35.3907 95.7102 34.423C97.5575 33.4994 99.3609 32.4877 101.252 31.74C102.923 31.0363 104.903 30.5965 106.574 31.4762C107.41 31.916 107.982 32.6637 108.465 33.4114C109.081 34.335 109.609 35.3027 110.181 36.2703C114.975 44.3192 119.813 52.3682 124.607 60.4171C127.378 65.0353 130.105 69.6535 132.876 74.2277C137.054 76.075 140.925 78.582 144.312 81.6608C148.622 85.5753 152.404 90.7214 154.56 96.3512C159.662 91.909 165.511 87.9944 172.153 86.543C178.838 85.0916 186.623 86.499 191.417 91.689C197.003 97.9786 196.432 107.127 193.705 114.472ZM64.3503 201.515C62.9429 199.799 61.5354 198.832 60.3479 198.832C60.1719 198.832 59.996 198.876 59.7761 198.92C57.2251 199.624 55.9056 205.517 57.9728 213.214C60.04 220.911 64.1744 225.354 66.7254 224.65C69.2764 223.946 70.5959 218.096 68.5287 210.487C66.5495 210.443 64.5702 210.399 62.591 210.399C61.7553 210.399 61.7553 209.08 62.591 209.08C64.4383 209.124 66.2856 209.124 68.1329 209.168C67.2092 206.133 65.8897 203.45 64.3503 201.515ZM140.441 207.057C142.332 207.848 144.18 208.728 145.983 209.74C146.731 210.136 146.071 211.279 145.323 210.883C143.696 210.004 142.068 209.168 140.353 208.464C140.309 211.103 140.617 213.61 141.277 215.633C142.068 218.096 143.256 219.548 144.619 219.68C145.939 219.812 147.434 218.624 148.71 216.381C150.073 213.962 151.041 210.619 151.437 206.969C152.273 199.052 149.985 193.422 147.346 193.158C147.258 193.158 147.214 193.158 147.127 193.158C144.531 193.158 141.321 198.128 140.529 205.869C140.529 206.265 140.485 206.661 140.441 207.057ZM124.167 72.9962C123.376 76.4708 122.716 79.9896 122.232 83.5082C120.517 95.9554 120.737 108.666 122.892 121.026C122.936 121.202 122.892 121.334 122.804 121.466C123.684 121.729 124.519 121.993 125.399 122.257C124.871 119.002 124.431 115.748 124.123 112.449C123.024 99.7379 123.947 86.8508 126.806 74.4036C126.982 73.5679 128.258 73.9198 128.082 74.7555C127.29 78.2302 126.63 81.7489 126.147 85.2675C124.475 97.187 124.651 109.37 126.542 121.246C127.29 120.542 127.994 119.838 128.698 119.09C129.577 118.123 130.545 117.067 130.941 115.748C130.985 115.616 131.029 115.44 131.029 115.308C130.765 115.528 130.457 115.704 130.061 115.792C129.049 116.1 127.774 115.836 127.158 114.912C126.498 113.9 126.894 112.669 127.774 111.965C128.742 111.218 129.973 111.174 130.941 111.921C131.073 112.009 131.205 112.141 131.337 112.273C131.556 111.481 131.644 110.69 131.688 109.942C131.908 106.995 131.161 104.048 129.665 101.541C129.225 100.794 130.369 100.134 130.809 100.882C131.556 102.113 132.128 103.433 132.48 104.796C133.228 107.479 133.36 110.646 132.392 113.241C132.348 113.417 132.26 113.593 132.172 113.768C132.304 114.164 132.348 114.604 132.348 115.044C132.26 116.539 131.469 117.859 130.545 118.959C129.401 120.366 128.082 121.554 126.762 122.829C126.806 123.313 126.366 123.621 125.971 123.621C125.751 123.841 125.531 124.105 125.311 124.324C123.728 126.084 122.408 128.195 122.54 130.658C122.672 133.077 124.255 135.32 126.235 136.64C128.478 138.135 131.205 138.531 133.8 137.959C139.693 136.728 143.74 131.934 146.863 127.139C148.534 124.588 150.117 121.993 151.569 119.31C153.02 116.583 154.252 113.768 154.78 110.69C155.835 104.708 154.164 98.4624 151.349 93.1405C148.93 88.6102 145.543 84.6517 141.585 81.397C136.571 77.2626 130.545 74.3597 124.167 72.9962ZM129.885 112.801C129.137 112.493 127.686 113.373 128.346 114.252C129.005 115.132 130.325 114.428 130.765 113.768C130.765 113.725 130.809 113.725 130.809 113.681C130.633 113.285 130.325 112.977 129.885 112.801ZM65.9777 91.3371C70.8158 85.9712 76.5336 81.441 82.4274 77.2186C81.8556 75.8991 81.7236 74.4037 82.2075 73.0402C82.7353 71.5448 83.9668 70.4012 85.3742 69.7854C81.3718 66.3987 77.2374 57.9979 80.8 53.6436C85.4622 47.9258 91.312 50.4329 92.6754 42.5599C96.5899 44.6271 96.8538 50.169 95.4903 52.1482C95.0505 52.808 94.5227 53.3358 94.0389 53.7756C95.2704 53.8636 96.5019 54.1274 97.6895 54.5233C99.4928 55.183 101.208 56.1507 102.967 56.9864C104.771 57.866 106.53 58.7457 108.333 59.6254C111.676 61.2967 115.019 62.9681 118.406 64.5955C118.757 64.7714 118.845 65.3871 118.537 65.651C115.898 67.8942 113.26 70.1373 110.577 72.3364C110.752 72.8642 110.972 73.348 111.148 73.8758C113.435 79.8136 115.723 85.7513 117.966 91.689C118.098 92.0848 117.878 92.3487 117.57 92.4367C117.042 94.7678 115.898 96.8791 114.359 98.6824C111.236 102.377 106.486 104.488 101.692 104.224C96.8538 103.96 92.1476 101.541 89.3327 97.5828C89.2447 97.4508 89.2008 97.3189 89.2008 97.2309C89.1568 97.1429 89.1568 97.055 89.1568 96.923C89.2448 91.3372 89.1568 85.7953 88.9369 80.2095C88.4531 80.3414 87.9253 80.4294 87.3975 80.4294C86.5618 80.4294 85.6821 80.2534 84.9344 79.8576C84.2307 79.5057 83.6149 78.9779 83.1311 78.3182C81.2838 79.6377 79.4805 80.9571 77.6772 82.3646C77.7651 82.4086 77.8531 82.4525 77.9411 82.5405C80.4042 85.2235 82.6473 88.1264 84.6705 91.1612C88.2331 96.5272 91.092 102.377 93.2032 108.447C95.2265 114.34 96.458 120.498 96.9418 126.7C98.4372 126.128 99.8887 125.556 101.34 124.896C105.255 123.181 109.213 121.334 113.435 120.63C115.459 120.278 117.482 120.234 119.505 120.586C120.209 120.718 120.869 120.85 121.528 121.026C120.913 117.551 120.473 114.076 120.165 110.602C119.065 97.9346 119.989 85.0915 122.804 72.6443C119.637 72.0725 116.382 71.8966 113.128 72.1165C112.292 72.1605 112.292 70.841 113.128 70.797C114.359 70.7091 115.635 70.6651 116.866 70.7091C121.572 70.841 126.235 71.8087 130.633 73.48C127.686 68.5539 124.739 63.6278 121.792 58.7017C117.086 50.8287 112.38 42.9558 107.718 35.1268C107.234 34.3351 106.794 33.4114 106.002 32.8396C105.299 32.3558 104.375 32.2678 103.539 32.3998C101.604 32.7076 99.8447 33.7633 98.1293 34.6429C94.4347 36.4902 90.7842 38.4255 87.1775 40.4487C79.9643 44.4951 72.927 48.8935 66.1096 53.5997C59.4242 58.2179 52.9587 63.144 46.7571 68.378C48.6923 70.6651 50.5836 72.9522 52.5189 75.2394C57.0491 80.6493 61.5354 85.9712 65.9777 91.3371ZM91.3559 128.679C92.8074 128.239 94.2588 127.755 95.6663 127.271C95.4024 123.797 94.9186 120.322 94.1708 116.891C92.8074 110.69 90.6522 104.708 87.7493 99.0782C84.8464 93.4923 81.2838 88.2584 77.0174 83.5962C76.8855 83.4642 76.8415 83.2883 76.8415 83.1563C76.3137 83.5962 75.7419 84.036 75.2141 84.4758C77.2374 87.2907 79.2606 90.1057 81.1958 92.9646C88.1452 103.345 93.863 115.836 91.3559 128.679ZM89.1568 70.2693C89.0688 70.6211 88.717 70.841 88.3651 70.797C86.3859 70.4012 84.1427 71.6327 83.483 73.524C82.8232 75.4152 83.7469 77.8344 85.5502 78.758C87.3535 79.6817 89.8605 79.0659 91.0041 77.4385C91.224 77.1306 91.6198 77.0866 91.9277 77.2625C92.2356 77.4824 92.2796 77.8783 92.1037 78.1862C91.6198 78.8899 91.0041 79.4177 90.2564 79.8136C90.5203 85.5314 90.5642 91.2932 90.5203 97.011C91.9717 99.0782 93.9949 100.618 96.282 101.673C100.372 103.52 105.167 103.52 109.125 101.365C112.908 99.3421 115.723 95.6915 116.514 91.4252C116.074 90.2376 115.591 89.05 115.151 87.8625C113.172 82.6725 111.192 77.5264 109.169 72.3364C109.081 72.1165 109.169 71.8086 109.345 71.6767C111.852 69.5655 114.403 67.4544 116.91 65.3432C115.371 64.5955 113.875 63.8477 112.38 63.1C109.037 61.4286 105.738 59.7573 102.396 58.1299C101.648 57.778 100.9 57.3822 100.109 56.9864C100.241 57.1183 100.372 57.2502 100.504 57.3822C100.724 57.6901 100.768 58.042 100.504 58.3059C100.285 58.5698 99.8007 58.5698 99.5808 58.3059C99.4488 58.1299 99.3169 57.998 99.141 57.866C99.097 57.8221 99.097 57.8221 99.053 57.7781C98.965 57.7341 98.877 57.6461 98.7891 57.6021C98.7451 57.6021 98.7011 57.5582 98.6571 57.5582H98.6131C98.5252 57.5142 98.4372 57.5141 98.3492 57.4701C98.3053 57.4701 98.3053 57.4701 98.2613 57.4701C98.2173 57.4701 98.2173 57.4701 98.2173 57.4701C98.1733 57.4701 98.1293 57.4701 98.0853 57.4701C98.0853 57.4701 98.0854 57.4701 98.0414 57.4701C97.9974 57.4701 97.9974 57.4701 98.0414 57.4701C97.9534 57.4701 97.8214 57.5142 97.7775 57.5142C97.7335 57.5142 97.6895 57.5582 97.6895 57.5582C97.6455 57.5582 97.6015 57.6021 97.6015 57.6461L97.5575 57.69L97.5136 57.7341C97.5136 57.7341 97.5136 57.7341 97.5136 57.7781C97.5136 57.8221 97.4696 57.866 97.4696 57.866C97.4696 57.91 97.4256 57.954 97.4256 57.998C97.4256 58.042 97.4256 58.1299 97.4256 58.0419C97.4256 57.954 97.4256 58.0859 97.4256 58.1739C97.4256 58.2179 97.4256 58.2179 97.4256 58.2618C97.4256 58.3058 97.5136 58.4378 97.4256 58.2618C97.5575 58.6137 97.5136 58.9656 97.2057 59.1855C96.9418 59.3615 96.458 59.2735 96.282 58.9656C96.0182 58.3938 96.0181 57.778 96.326 57.2502C96.5899 56.7224 97.1177 56.3706 97.6455 56.2387C97.9094 56.1947 98.1733 56.1507 98.3932 56.1947C96.458 55.359 94.3908 54.8312 92.2356 55.183C92.1476 55.183 92.1036 55.183 92.0157 55.183C90.1684 56.1946 88.673 57.0743 89.0248 60.593C89.2887 63.188 91.18 65.9149 89.0688 69.2576L88.629 69.4775C88.673 69.4775 88.7609 69.4776 88.8049 69.5216C88.9809 69.5655 89.2008 69.8734 89.1568 70.2693ZM58.9844 137.299C60.1279 139.279 61.4914 141.126 63.0308 142.841C64.5702 144.513 66.3296 146.184 68.5727 146.756C71.0358 147.416 73.6307 146.624 75.9179 145.656C77.1054 145.172 78.249 144.601 79.3925 144.029C80.4481 143.501 81.5037 142.929 82.3834 142.138C83.6589 141.038 84.7145 139.587 84.3626 137.827C84.0547 136.376 83.2191 135.056 82.6913 133.693C82.0755 132.021 81.9435 130.306 82.6033 128.591C83.0431 127.491 83.6589 126.48 83.8788 125.336C84.0547 124.149 83.7908 122.961 83.395 121.817C82.5593 119.53 81.0639 117.595 80.2722 115.308C79.5685 113.241 79.3485 110.91 80.6241 109.018C81.1079 108.315 82.2514 108.974 81.7676 109.678C81.1519 110.602 80.9319 111.657 81.0199 112.757C81.4158 117.595 86.6937 121.466 84.9344 126.612C84.5385 127.711 83.9228 128.723 83.6149 129.866C83.5709 130.086 83.527 130.306 83.527 130.526C85.2423 130.218 86.9576 129.866 88.673 129.427C89.2008 129.295 89.7286 129.163 90.2564 129.031C90.1244 128.899 90.0804 128.679 90.1244 128.459C90.8281 125.028 90.8721 121.51 90.4323 118.079C88.8929 105.676 81.4598 95.1637 74.2905 85.3115C69.8922 89.05 65.8457 93.1844 62.503 97.9346C57.1371 105.632 53.7504 114.912 54.762 124.368C55.2018 128.855 56.6972 133.341 58.9844 137.299ZM87.1775 147.416C87.2655 147.548 87.2215 147.284 87.0896 147.46L87.0456 147.504C86.9576 147.68 87.0456 147.899 87.1775 148.075C88.541 148.119 89.9045 148.163 91.268 148.207C91.092 148.075 90.9601 147.855 90.9161 147.635C90.5642 144.557 87.9253 141.83 84.8904 141.39C83.5709 143.369 81.4158 144.557 79.3046 145.568C76.9735 146.712 74.5544 147.899 71.9594 148.251C71.1237 148.383 70.288 148.383 69.4524 148.251C70.9918 150.011 72.7511 151.594 74.7303 152.87C75.698 153.485 76.7535 154.233 77.8971 154.453C78.4249 154.585 78.9087 154.541 79.2606 154.145C79.6125 153.793 79.8763 153.353 80.3162 153.089C81.4597 152.43 82.5593 153.309 83.527 153.881C84.4066 154.409 85.5062 154.585 86.5178 154.233C87.4414 153.925 88.1012 153.089 88.1892 152.122C88.2331 151.638 88.1892 151.11 87.9253 150.67C87.6614 150.187 87.1775 149.879 86.7817 149.571C85.99 148.911 85.2423 147.635 86.034 146.668C86.6058 145.964 87.8373 145.92 88.3211 146.756C88.7609 147.46 87.6174 148.119 87.1775 147.416ZM95.4464 164.085C98.0414 163.777 100.636 163.821 103.231 163.997C103.627 163.162 104.243 162.458 104.991 162.018C104.155 162.018 104.199 160.743 105.035 160.699C105.694 160.655 106.398 160.698 107.058 160.83C107.014 159.687 106.926 158.499 106.882 157.356C105.431 157.532 103.935 157.224 102.748 156.388C100.68 154.981 99.6247 152.298 100.109 149.879C96.282 149.747 92.4555 149.615 88.629 149.527C88.7169 149.615 88.7609 149.659 88.8489 149.747C89.5086 150.626 89.6846 151.77 89.4207 152.825C88.8929 154.981 86.7377 156.08 84.6265 155.772C84.0548 155.684 83.5269 155.508 83.0431 155.245C82.5593 154.981 82.1195 154.541 81.5917 154.365C81.0199 154.145 80.756 154.541 80.4041 154.937C80.0523 155.333 79.6564 155.64 79.1286 155.816C78.0731 156.124 76.9295 155.684 75.9619 155.201C74.8623 154.629 73.8507 153.969 72.839 153.265C70.8598 151.814 69.1005 150.099 67.5611 148.163C67.4731 148.075 67.4291 147.987 67.4291 147.899C66.5495 147.592 65.7578 147.152 64.9661 146.58C63.0308 145.172 61.4474 143.325 60.04 141.434C58.6325 139.543 57.401 137.475 56.3894 135.32C56.1695 134.88 55.9935 134.397 55.7736 133.913C51.3313 134.133 47.021 135.98 43.6343 138.927C39.6758 142.314 37.0808 146.932 36.0252 152.034C34.8817 157.576 35.5854 163.381 37.4327 168.703C41.1272 179.391 49.528 187.66 58.3246 194.434C65.054 190.299 72.5312 187.396 80.2722 185.813C80.0963 184.273 79.7884 182.734 79.5245 181.195C79.3925 180.755 79.3046 180.359 79.1726 179.919L72.971 165.669C71.8714 163.645 70.7279 161.622 69.6283 159.599C69.2324 158.851 70.332 158.191 70.7719 158.939C71.7395 160.699 72.7511 162.458 73.6747 164.217C75.7419 168.044 77.6772 171.914 79.2166 176.005C79.4805 174.069 80.2722 172.31 81.6357 170.727C85.1543 166.636 90.3443 164.657 95.4464 164.085ZM107.674 174.509C107.542 173.717 107.41 172.926 107.322 172.134C106.706 172.046 106.09 171.782 105.519 171.386C103.583 170.023 102.572 167.56 102.88 165.229C100.812 165.097 98.7891 165.053 96.7219 165.229C93.0713 165.537 89.2887 166.504 86.1659 168.527C91.268 172.002 97.2936 174.113 103.407 174.509C104.815 174.597 106.266 174.597 107.674 174.509ZM98.6131 203.626C98.6131 203.098 98.6131 202.57 98.6131 202.043C98.6131 201.207 98.6131 200.415 98.6571 199.624C94.9625 199.668 91.268 200.239 87.6614 201.251C87.5734 201.295 87.4414 201.295 87.3535 201.251C87.3095 202.57 87.2655 203.89 87.1775 205.209C90.9601 204.374 94.7866 203.89 98.6131 203.626ZM109.257 176.181C109.345 176.752 109.433 177.368 109.521 177.94C109.565 178.292 109.433 178.644 109.081 178.732C108.773 178.82 108.333 178.644 108.289 178.292C108.157 177.5 108.026 176.664 107.894 175.873C104.331 176.137 100.592 184.933 100.021 198.26C102.704 198.304 105.431 198.612 108.07 199.14C108.905 199.316 108.553 200.591 107.718 200.415C105.167 199.887 102.572 199.624 99.9766 199.58C99.9326 200.371 99.9326 201.207 99.9326 201.999C99.9326 202.526 99.9326 203.01 99.9326 203.494C101.516 203.406 103.099 203.362 104.683 203.362C105.518 203.362 105.518 204.682 104.683 204.682C103.099 204.682 101.516 204.726 99.9326 204.813C100.416 218.888 104.331 228.125 108.026 228.125C111.984 228.125 116.162 217.613 116.162 201.955C116.206 187.968 112.82 178.028 109.257 176.181ZM110.313 163.865C109.785 163.294 109.125 162.854 108.421 162.546C108.421 162.59 108.377 162.678 108.333 162.722C108.201 162.898 108.026 162.986 107.762 162.942C107.674 162.942 107.542 162.898 107.454 162.854C106.574 162.634 105.65 162.942 104.991 163.557C104.243 164.305 104.023 165.449 104.111 166.504C104.243 168.22 105.343 170.111 107.014 170.727C107.19 170.771 107.366 170.815 107.542 170.859C107.586 170.815 107.63 170.815 107.674 170.771C107.85 170.727 108.069 170.771 108.245 170.859C109.521 170.771 110.708 169.891 111.28 168.703C112.072 167.164 111.5 165.097 110.313 163.865ZM132.48 153.485C131.952 153.705 131.381 153.881 130.809 153.881C129.225 153.925 127.774 153.089 126.674 151.99C125.971 153.221 124.519 154.057 123.068 153.837C122.1 153.705 121.22 153.089 120.649 152.298C119.989 153.089 118.977 153.617 117.922 153.617C116.118 153.573 114.667 152.166 114.007 150.538C113.875 150.187 113.787 149.879 113.699 149.527C112.732 149.659 111.72 149.791 110.752 150.011C110.796 150.978 110.796 151.902 110.84 152.87C110.84 153.397 110.884 153.925 110.884 154.453C110.884 154.981 110.884 155.289 110.489 155.684C109.829 156.3 108.993 156.74 108.113 157.048C108.201 158.411 108.245 159.775 108.333 161.138C109.873 161.666 111.236 162.634 112.072 164.085C112.248 164.349 112.38 164.613 112.468 164.921C113.216 165.009 113.963 165.053 114.711 165.141C118.933 165.449 123.288 165.273 127.158 163.645C128.698 160.699 130.237 157.752 131.82 154.761C132.04 154.365 132.26 153.925 132.48 153.485ZM135.823 147.372C135.559 146.492 134.723 145.788 133.8 145.744C133.272 145.7 132.832 144.997 133.316 144.601C134.987 143.281 136.834 141.874 137.626 139.85C137.846 139.191 137.978 138.575 137.978 137.915C137.274 138.267 136.571 138.575 135.823 138.795C133.316 139.631 130.457 139.807 127.95 138.883C125.663 138.047 123.64 136.42 122.452 134.309C121.22 132.154 121.001 129.602 121.924 127.315C122.496 125.82 123.464 124.544 124.519 123.357C122.32 122.741 120.165 121.905 117.922 121.773C113.655 121.51 109.477 122.961 105.606 124.588C101.648 126.216 97.7775 128.019 93.731 129.339C90.4323 130.394 87.0456 131.23 83.6149 131.846C83.6589 132.022 83.6589 132.154 83.7029 132.329C84.0987 133.869 84.9784 135.232 85.5062 136.772C85.902 137.915 85.946 139.103 85.5941 140.202C89.1568 140.994 91.9277 144.029 92.3675 147.635C92.4115 147.899 92.1916 148.119 91.9717 148.207C95.0065 148.295 98.0414 148.383 101.032 148.515C101.428 148.515 101.824 148.911 101.648 149.351C100.9 151.462 101.648 154.057 103.583 155.289C104.551 155.904 105.738 156.124 106.882 155.992C106.838 155.245 107.806 155.157 108.113 155.684C108.685 155.464 109.213 155.157 109.697 154.717C109.653 152.957 109.609 151.198 109.521 149.439C109.521 149.175 109.741 148.867 110.005 148.823C111.236 148.603 112.468 148.383 113.699 148.251C113.699 146.844 114.051 145.392 114.491 144.073C115.767 139.982 117.922 136.2 120.693 132.901C121.22 132.241 122.188 133.209 121.616 133.825C120.341 135.364 119.197 136.992 118.23 138.751C117.394 140.29 116.646 141.874 116.074 143.501C115.459 145.216 114.843 147.108 115.063 148.955C115.239 150.362 116.118 151.902 117.57 152.254C118.581 152.518 119.857 151.814 120.077 150.758C120.033 150.494 120.033 150.231 120.033 149.923C120.121 149.219 121.176 148.955 121.308 149.747C121.352 150.055 121.396 150.318 121.352 150.626C121.528 151.55 122.232 152.43 123.244 152.562C124.475 152.738 125.619 151.77 125.839 150.582C125.927 150.143 126.63 149.923 126.938 150.274C127.818 151.374 129.049 152.474 130.545 152.562C131.776 152.65 133.096 151.902 133.36 150.626C133.404 150.318 133.712 150.187 133.976 150.143C134.064 150.143 134.195 150.099 134.283 150.055C134.723 149.175 135.207 148.207 135.823 147.372ZM194.232 107.127C194.716 103.213 194.276 99.0782 192.341 95.5595C190.626 92.4367 187.811 90.1496 184.556 88.8741C177.431 86.0592 169.734 87.9064 163.312 91.689C160.365 93.4483 157.55 95.5156 154.912 97.8027C156.407 102.201 156.935 106.819 156.055 111.437C155.483 114.384 154.296 117.155 152.888 119.794C151.481 122.477 149.853 125.072 148.182 127.623C145.807 131.318 142.948 134.924 139.21 137.211C139.385 138.399 139.166 139.631 138.638 140.774C137.89 142.402 136.571 143.677 135.163 144.777C135.867 145.128 136.439 145.656 136.79 146.316C137.362 145.876 138.066 145.568 138.814 145.48C140.133 145.304 141.453 145.656 142.728 145.92C148.226 147.152 153.504 149.087 158.474 151.726C158.518 151.726 158.518 151.77 158.562 151.77C161.861 152.166 165.16 152.034 168.37 150.846C172.241 149.395 174.792 146.272 176.947 142.885C179.366 139.103 181.609 135.232 183.808 131.318C186.008 127.403 188.163 123.489 190.098 119.442C192.033 115.616 193.705 111.481 194.232 107.127ZM85.1543 73.3481C84.8464 73.524 84.7585 73.9639 84.9344 74.2718C85.1103 74.5796 85.5062 74.6676 85.8581 74.4917C87.1775 73.8319 88.8489 73.8319 90.1684 74.4476C90.4763 74.5796 90.8721 74.5356 91.092 74.2277C91.268 73.9199 91.18 73.48 90.8721 73.304C89.0248 72.4684 86.9576 72.4684 85.1543 73.3481ZM91.5319 64.1996C94.8306 62.9241 98.0414 61.5167 101.252 59.9773C102 59.6254 102.704 60.7689 101.912 61.1208C101.472 61.3407 101.076 61.5166 100.636 61.6926C100.68 61.7365 100.768 61.7805 100.812 61.8245C100.944 61.9565 100.988 62.0884 101.076 62.2203C101.164 62.4402 101.164 62.6602 101.12 62.8801C101.076 63.1 100.944 63.3199 100.768 63.4519C100.592 63.6278 100.372 63.7598 100.153 63.8038C99.9326 63.8477 99.6687 63.8917 99.4488 63.8038C99.1849 63.7158 98.965 63.5399 98.7891 63.276C98.6571 63.0561 98.6131 62.7921 98.6571 62.5282C97.4696 63.056 96.326 63.5838 95.1385 64.0676C95.1825 64.1116 95.2264 64.1996 95.2704 64.2436C95.3144 64.3316 95.3584 64.4635 95.4024 64.5515C95.4464 64.6394 95.4464 64.7714 95.4464 64.9033C95.4464 65.1233 95.4024 65.3432 95.2704 65.5631C95.2264 65.6071 95.2265 65.6511 95.1825 65.6951C95.1385 65.739 95.1385 65.7829 95.0945 65.8269C95.0065 65.9149 94.9186 65.9589 94.8306 66.0029C94.7426 66.0469 94.6986 66.0909 94.6107 66.0909C94.5227 66.0909 94.4347 66.1349 94.3468 66.1349C94.3028 66.1349 94.2148 66.1349 94.1708 66.1349C94.0389 66.1349 93.9509 66.0908 93.819 66.0468C93.731 66.0029 93.5991 65.959 93.5111 65.915C93.4671 65.871 93.3792 65.827 93.3352 65.783C93.2912 65.739 93.2472 65.651 93.2032 65.607C93.1153 65.519 93.1152 65.3871 93.0713 65.2991V65.2552C93.0713 65.2552 93.0713 65.2552 93.0713 65.2112C93.0713 65.1232 93.0273 65.0352 93.0273 64.9473C92.6754 65.0792 92.2796 65.2551 91.9277 65.3871C91.092 65.7829 90.7402 64.5074 91.5319 64.1996ZM94.3028 64.9473C94.3028 64.9473 94.3028 64.9913 94.3468 64.9913C94.3028 64.9473 94.3028 64.9473 94.3028 64.9473ZM90.8721 62.4843C91.8837 62.0884 92.8953 61.7365 93.907 61.3407C94.2148 61.2087 94.4787 60.9008 94.3468 60.5489C94.2588 60.2411 93.863 59.9772 93.5551 60.1091C92.5435 60.505 91.5319 60.8569 90.5203 61.2527C90.2124 61.3847 89.9485 61.6926 90.0804 62.0444C90.1244 62.3523 90.5202 62.6162 90.8721 62.4843ZM97.9094 57.5142C97.9094 57.4702 97.9094 57.4702 97.9094 57.5142V57.5142ZM99.8447 80.4294C99.7127 80.4294 99.5808 80.4294 99.4488 80.4294C99.4488 80.4294 99.3608 80.4294 99.3169 80.4294C99.2729 80.4294 99.2289 80.4293 99.1849 80.3854C98.921 80.3414 98.6571 80.2534 98.4372 80.1655C98.0853 80.0335 97.5136 79.7256 97.2497 79.5057C97.0297 79.3298 96.8538 79.1539 96.6779 78.9779C96.5899 78.89 96.502 78.802 96.414 78.6701C96.326 78.5821 96.414 78.67 96.37 78.582C96.326 78.538 96.282 78.4501 96.238 78.4061C95.9302 77.9223 95.7543 77.5704 95.6223 77.0426C95.5343 76.6907 95.1385 76.4708 94.8306 76.6028C94.4787 76.6907 94.3028 77.0866 94.3908 77.3945C95.0065 79.8575 97.3816 81.7049 99.8886 81.7049C100.68 81.7488 100.68 80.4294 99.8447 80.4294Z" fill="#24668A"/>
<path d="M124.387 174.333C123.815 169.538 126.147 164.48 130.149 161.797C134.151 159.114 139.737 158.85 143.96 161.182C148.182 163.513 150.953 168.351 150.821 173.189" fill="#50CD89"/>
<path d="M62.4151 210.267C60.9197 206.088 62.8989 200.986 66.1977 198.611C69.4524 196.236 73.6308 196.06 77.4134 196.94C80.2723 197.556 83.1312 198.831 85.0664 201.338C87.0017 203.889 87.6614 207.936 85.9901 210.707L85.7702 210.443C78.293 209.651 70.7719 209.343 63.2948 209.563" fill="#50CD89"/>
</svg>
