<svg width="240" height="240" viewBox="0 0 240 240" fill="none" xmlns="http://www.w3.org/2000/svg">
<path d="M51.9677 129.519C43.4548 125.702 37.9673 116.723 36.7302 107.471C35.493 98.2193 38.0245 88.7999 42.1197 80.4176C48.1012 68.1687 59.0966 56.81 72.7418 56.4343C78.5518 56.2751 84.2925 58.1369 90.1025 57.8593C99.3708 57.4142 107.431 51.6777 114.89 46.1657C122.35 40.6537 130.405 34.9131 139.678 34.468C148.95 34.023 159.153 41.5315 157.802 50.71C157.357 53.7396 155.74 56.7528 156.532 59.717C157.977 65.1065 165.723 65.4617 170.778 63.0977C175.832 60.7337 180.695 56.7569 186.236 57.4306C191.478 58.0716 195.398 62.9425 196.627 68.0748C197.856 73.2071 196.974 78.5884 196.088 83.7901L190.906 114.11C189.682 121.243 188.22 128.874 183.063 133.957C177.486 139.453 169.038 140.555 161.228 141.127C127 143.634 92.5905 141.567 58.9088 134.982" fill="#F4F6F9"/>
<path d="M211.089 135.456C211.269 136.017 211.353 136.605 211.338 137.195C211.302 138.161 210.947 139.089 210.329 139.832C210.342 140.537 210.121 141.227 209.701 141.792C209.424 142.128 209.069 142.391 208.666 142.557C208.264 142.723 207.827 142.787 207.394 142.744C207.757 144.009 207.635 145.463 206.789 146.467C205.944 147.472 203.956 147.529 202.927 146.631L204.707 143.164C203.739 142.292 202.912 141.274 202.257 140.147C201.968 139.754 201.846 139.262 201.918 138.779C202.102 138.138 202.915 137.856 203.552 138.028C203.625 138.048 203.697 138.073 203.768 138.101C203.527 137.893 203.278 137.693 203.029 137.501C202.253 136.897 201.461 136.219 201.155 135.284C200.849 134.349 201.269 133.108 202.229 132.896C202.78 132.829 203.337 132.944 203.817 133.222C204.176 133.39 204.527 133.565 204.879 133.749C204.425 132.757 203.976 131.769 203.523 130.781C203.408 130.601 203.334 130.398 203.304 130.187C203.275 129.975 203.291 129.76 203.352 129.556C203.459 129.374 203.62 129.231 203.812 129.145C204.005 129.059 204.219 129.036 204.425 129.078C204.835 129.173 205.221 129.354 205.556 129.609C206.953 130.523 208.361 131.45 209.48 132.687C209.892 133.139 210.251 133.636 210.55 134.169C210.608 132.943 210.291 131.728 209.639 130.687C208.869 129.505 207.987 128.401 207.006 127.388C206.414 126.718 205.83 125.697 206.406 125.011C206.863 124.46 207.737 124.583 208.398 124.86C209.378 125.267 210.249 125.897 210.943 126.7C211.637 127.503 212.135 128.456 212.396 129.484C212.657 130.513 212.675 131.588 212.448 132.624C212.221 133.661 211.756 134.63 211.089 135.456ZM94.8798 184.835C94.4603 184.611 94.0602 184.353 93.6835 184.063C93.8668 184.667 93.9455 185.298 93.9162 185.929C93.8185 187.144 93.5618 188.341 93.1527 189.489C92.7614 190.939 92.2138 192.343 91.5195 193.674C90.8159 195.015 89.6932 196.089 88.3226 196.732C87.163 197.222 85.8728 197.271 84.6193 197.28C81.1013 197.307 77.5859 197.077 74.1016 196.59L75.0203 195.001C72.9502 197.896 70.1861 200.309 67.0749 201.514C61.1791 203.767 56.8675 200.178 52.1762 196.447C48.7873 193.748 45.5169 190.731 41.487 189.146C35.9301 186.954 29.0177 187.407 24.951 183.051C20.1617 177.922 22.4523 169.663 25.2573 163.232C33.4779 144.4 43.7866 126.551 55.9897 110.019L49.8897 83.7C45.1412 83.2101 35.4973 82.1322 35.4973 82.1322C39.9232 74.6481 44.684 66.0453 49.657 57.561C53.4051 51.163 61.571 46.4268 68.6672 50.6199C69.1957 50.932 69.6958 51.29 70.1616 51.6897C72.5624 53.7557 74.0077 56.7444 74.8243 59.8025C75.6082 62.7218 75.8777 65.7432 76.2656 68.7401C77.522 68.2756 78.8909 68.2086 80.1867 68.5482C81.4824 68.8877 82.6425 69.6174 83.5097 70.6383C84.3769 71.6593 84.9093 72.9221 85.0348 74.2558C85.1602 75.5894 84.8726 76.9294 84.211 78.0941C83.3866 79.5247 82.0569 80.5951 80.4833 81.0951C83.8966 86.5867 87.1181 91.4331 90.5845 96.4593L90.7152 96.2061C102.797 98.1414 114.78 102.269 125.134 108.79C132.239 138.526 120.79 163.518 94.8798 184.835Z" fill="white"/>
<path d="M211.939 111.133L150.608 78.9198C146.424 76.7221 141.25 78.3325 139.052 82.5168L91.3966 173.249C89.1989 177.433 90.8093 182.607 94.9937 184.805L156.324 217.018C160.508 219.215 165.682 217.605 167.88 213.421L215.536 122.688C217.733 118.504 216.123 113.33 211.939 111.133Z" fill="white"/>
<path d="M129.43 124.991C140.028 124.991 148.619 116.399 148.619 105.801C148.619 95.2029 140.028 86.6113 129.43 86.6113C118.831 86.6113 110.24 95.2029 110.24 105.801C110.24 116.399 118.831 124.991 129.43 124.991Z" fill="#FEAABC"/>
<path d="M167.487 166.429L174.901 154.486C175.685 153.225 176.49 151.914 176.718 150.444C176.947 148.974 176.457 147.284 175.167 146.541C173.803 145.757 172.043 146.259 170.716 147.109C169.389 147.958 168.267 149.126 166.85 149.803C165.433 150.481 163.498 150.522 162.501 149.301C161.42 147.978 161.685 145.541 160.052 144.969C159.145 144.651 158.186 145.177 157.255 145.418C156.324 145.659 155.005 145.316 155.001 144.353C151.796 147.986 150.012 152.367 147.382 156.43" fill="#9ED5F0"/>
<path d="M127.176 106.156C127.519 100.04 127.863 93.9249 128.209 87.8113C128.254 87.0274 129.478 87.0233 129.434 87.8113C129.101 93.6908 128.769 99.5716 128.437 105.454H128.462L128.503 105.482C134.837 104.374 141.227 103.606 147.644 103.18C148.432 103.131 148.427 104.355 147.644 104.404C141.691 104.8 135.762 105.495 129.879 106.487L143.626 116.506C144.259 116.968 143.646 118.029 143.009 117.564L128.054 106.662C127.965 106.715 127.864 106.744 127.76 106.745C127.657 106.746 127.555 106.719 127.466 106.667C127.376 106.616 127.302 106.541 127.251 106.451C127.2 106.361 127.174 106.259 127.176 106.156ZM203.854 142.302L166.817 212.848C165.91 214.567 164.358 215.857 162.501 216.435C160.645 217.013 158.635 216.831 156.912 215.93L95.7819 183.826C95.1286 183.908 94.4631 183.953 93.7935 183.977C93.7958 183.995 93.7958 184.013 93.7935 184.03C94.1794 184.323 94.5891 184.582 95.0183 184.806L156.348 217.012C157.343 217.536 158.431 217.858 159.551 217.961C160.67 218.063 161.798 217.944 162.872 217.61C163.945 217.276 164.942 216.733 165.805 216.013C166.668 215.294 167.381 214.411 167.903 213.415L204.368 143.985L204.707 143.168C204.408 142.9 204.123 142.616 203.854 142.319V142.302ZM211.95 111.109L150.62 78.9146C149.625 78.3911 148.537 78.0688 147.418 77.9663C146.299 77.8638 145.17 77.983 144.097 78.3171C143.023 78.6512 142.027 79.1936 141.163 79.9134C140.3 80.6331 139.587 81.5161 139.065 82.5117L136.252 87.8644C136.636 88.0114 137.016 88.1706 137.387 88.3421L140.147 83.0833C140.77 81.8988 141.705 80.9069 142.851 80.2147C143.996 79.5225 145.309 79.1562 146.647 79.1555C147.834 79.1542 149.004 79.4444 150.052 80.0006L211.382 112.207C213.102 113.114 214.392 114.666 214.97 116.523C215.548 118.379 215.366 120.389 214.465 122.112L211.578 127.608C211.85 128.041 212.07 128.504 212.236 128.988L215.551 122.68C216.602 120.669 216.812 118.324 216.137 116.159C215.462 113.993 213.957 112.183 211.95 111.125V111.109ZM103.948 163.166C111.297 167.704 118.754 172.049 126.318 176.203C128.455 177.376 130.6 178.533 132.753 179.674C133.451 180.041 134.072 178.984 133.374 178.616C125.752 174.574 118.233 170.339 110.815 165.91C108.719 164.655 106.636 163.388 104.564 162.109C103.895 161.684 103.299 162.754 103.948 163.166ZM107.214 158.597L116.274 163.522C116.964 163.897 117.585 162.84 116.891 162.464L107.831 157.54C107.124 157.16 106.508 158.218 107.202 158.597H107.214ZM112.003 152.955C117.428 155.865 122.972 158.54 128.633 160.982C129.352 161.288 129.977 160.235 129.254 159.92C123.587 157.487 118.038 154.808 112.608 151.885C111.914 151.522 111.293 152.579 111.991 152.955H112.003ZM115.139 148.362L118.789 150.607C118.93 150.688 119.097 150.711 119.254 150.671C119.411 150.63 119.546 150.53 119.63 150.391C119.708 150.249 119.728 150.083 119.687 149.926C119.646 149.77 119.547 149.635 119.41 149.55L115.76 147.304C115.619 147.223 115.451 147.201 115.294 147.242C115.137 147.284 115.002 147.385 114.919 147.525C114.841 147.666 114.821 147.831 114.862 147.987C114.903 148.143 115.002 148.277 115.139 148.362ZM144.536 153.555C143.846 153.175 143.226 154.233 143.92 154.613L147.272 156.446C146.145 158.387 145.032 160.334 143.932 162.288C143.548 162.978 144.606 163.599 144.99 162.909C146.092 160.941 147.211 158.983 148.346 157.034L167.989 167.809L173.705 170.932L168.805 171.251C168.022 171.3 168.017 172.524 168.805 172.475L177.812 171.892C178.286 171.859 178.694 171.206 178.245 170.846C176.461 169.408 174.993 167.616 173.934 165.583C173.566 164.885 172.509 165.506 172.876 166.204C173.764 167.894 174.921 169.427 176.302 170.744L175.665 170.785C175.644 170.711 175.609 170.642 175.56 170.582C175.512 170.522 175.451 170.473 175.383 170.438L151.294 157.262L148.946 155.968C152.033 150.698 155.232 145.497 158.545 140.363C159.906 138.273 161.277 136.196 162.657 134.132C162.704 134.065 162.735 133.989 162.749 133.908C162.762 133.827 162.757 133.744 162.734 133.666C162.71 133.587 162.67 133.515 162.615 133.454C162.56 133.394 162.492 133.346 162.416 133.316L163.641 132.115C162.903 134.859 162.161 137.604 161.415 140.351C161.377 140.505 161.401 140.669 161.482 140.806C161.562 140.944 161.693 141.044 161.847 141.087C162 141.129 162.164 141.11 162.304 141.034C162.444 140.957 162.548 140.83 162.595 140.677C163.534 137.21 164.472 133.743 165.408 130.278C165.441 130.148 165.431 130.011 165.379 129.888C165.327 129.764 165.237 129.661 165.121 129.594C165.005 129.526 164.87 129.498 164.737 129.514C164.604 129.53 164.48 129.589 164.384 129.682L156.581 137.293C156.014 137.844 156.879 138.709 157.447 138.158L160.501 135.186C156.099 141.795 151.888 148.529 147.868 155.388L144.536 153.555ZM209.57 115.175L181.806 101.506L154.14 87.8807C151.914 86.7865 149.411 85.2922 146.831 85.8393C144.81 86.2476 143.001 88.24 143.544 90.3754C143.736 91.1389 144.92 90.8164 144.724 90.0529C144.238 88.138 146.48 86.9049 148.089 86.9621C149.193 87.0527 150.268 87.3563 151.257 87.8562C152.327 88.3421 153.376 88.8851 154.433 89.4037L167.674 95.9364L194.063 108.932L208.949 116.261C209.631 116.584 210.272 115.547 209.545 115.179L209.57 115.175ZM190.878 121.671C190.517 121.252 190.059 120.926 189.544 120.724C189.029 120.521 188.472 120.447 187.922 120.508C187.404 120.59 186.923 120.826 186.542 121.185C186.199 121.488 185.823 122.002 185.346 121.643C184.529 121.018 184.627 119.756 184.492 118.854C184.345 117.882 183.961 116.862 182.986 116.474C182.01 116.086 181.014 116.576 180.128 116.984C179.773 117.196 179.369 117.311 178.956 117.315C178.515 117.245 178.356 116.837 178.298 116.445C178.147 115.433 178.36 114.363 177.784 113.448C177.444 112.964 176.983 112.577 176.447 112.326C175.912 112.074 175.32 111.967 174.73 112.015C173.223 112.101 171.953 112.999 170.79 113.877C170.165 114.342 170.79 115.408 171.406 114.934C172.345 114.228 173.391 113.395 174.595 113.248C175.469 113.146 176.567 113.485 176.882 114.387C177.196 115.29 176.91 116.286 177.22 117.192C177.366 117.634 177.665 118.01 178.063 118.251C178.462 118.492 178.933 118.583 179.393 118.507C180.311 118.376 181.054 117.739 181.953 117.576C182.949 117.392 183.214 118.393 183.324 119.181C183.463 120.169 183.463 121.124 184.047 121.986C184.631 122.847 185.546 123.288 186.497 122.802C187.052 122.521 187.387 121.879 188.004 121.728C188.265 121.681 188.534 121.687 188.794 121.746C189.053 121.805 189.298 121.916 189.514 122.071C190.649 122.814 190.939 124.362 191.209 125.591C191.38 126.363 192.56 126.036 192.389 125.264C192.086 124.015 191.76 122.692 190.878 121.671ZM181.079 127.93C181.171 128.224 181.356 128.48 181.605 128.66C181.854 128.84 182.155 128.935 182.463 128.931C183.214 128.931 183.774 128.371 184.439 128.114C185.578 127.681 186.836 128.204 187.885 128.649C189.277 129.241 190.657 129.919 192.197 129.943C192.359 129.943 192.515 129.879 192.63 129.764C192.745 129.649 192.809 129.493 192.809 129.331C192.809 129.168 192.745 129.013 192.63 128.898C192.515 128.783 192.359 128.718 192.197 128.718C189.473 128.678 187.101 126.073 184.3 126.873C183.979 126.973 183.671 127.11 183.382 127.281C183.177 127.396 182.614 127.837 182.353 127.69C181.993 127.494 182.508 126.44 182.594 126.175C183.03 124.831 182.692 123.317 181.336 122.627C180.983 122.466 180.599 122.382 180.211 122.381C179.823 122.38 179.439 122.463 179.086 122.622C178.732 122.782 178.416 123.015 178.16 123.307C177.904 123.599 177.713 123.942 177.6 124.313C177.367 125.064 178.547 125.387 178.784 124.635C178.867 124.354 179.034 124.104 179.264 123.92C179.493 123.737 179.774 123.629 180.067 123.611C180.36 123.592 180.652 123.665 180.902 123.818C181.153 123.972 181.35 124.199 181.467 124.468C181.969 125.624 180.736 126.759 181.079 127.947V127.93ZM118.536 121.598L95.9493 164.648C96.4188 164.62 96.8883 164.604 97.3579 164.595L119.585 122.267C119.222 122.055 118.875 121.83 118.536 121.598Z" fill="#3F4254"/>
<path d="M211.399 126.33C210.399 125.146 208.541 123.73 206.908 124.064C206.5 124.138 206.135 124.365 205.888 124.698C205.641 125.031 205.53 125.445 205.577 125.857C205.671 126.812 206.336 127.555 206.945 128.241C207.896 129.303 208.986 130.524 209.558 131.891C208.366 130.739 207.036 129.739 205.597 128.915C204.87 128.474 203.939 128.229 203.209 128.797C202.359 129.45 202.706 130.458 203.074 131.271C203.258 131.679 203.445 132.087 203.629 132.496C203.297 132.336 202.933 132.256 202.564 132.264C202.196 132.272 201.835 132.367 201.51 132.541C201.159 132.783 200.877 133.112 200.689 133.495C200.502 133.878 200.416 134.303 200.44 134.729C200.485 136.04 201.302 136.848 202.216 137.587C202.011 137.682 201.828 137.817 201.677 137.984C201.526 138.152 201.411 138.349 201.339 138.563C201.028 139.535 201.718 140.515 202.249 141.274C202.838 142.123 203.523 142.901 204.291 143.593C204.87 144.12 205.74 143.258 205.156 142.728C204.156 141.852 203.319 140.807 202.682 139.641C202.445 139.192 202.404 138.714 202.992 138.604C203.159 138.575 203.331 138.591 203.49 138.649C203.845 138.795 204.163 139.018 204.421 139.302C204.683 139.563 204.96 139.865 205.238 140.188C205.566 140.573 205.865 140.983 206.132 141.413C206.503 141.986 206.778 142.614 206.949 143.275C207.07 143.728 207.089 144.202 207.004 144.663C206.92 145.124 206.733 145.561 206.459 145.941C205.858 146.757 204.47 147.207 203.601 146.5C202.996 146.002 202.127 146.864 202.735 147.366C203.322 147.82 204.046 148.062 204.788 148.05C205.53 148.038 206.246 147.774 206.818 147.301C207.998 146.366 208.357 144.769 208.157 143.324C208.916 143.217 209.611 142.842 210.117 142.266C210.629 141.638 210.916 140.856 210.934 140.045C211.414 139.425 211.738 138.698 211.877 137.926C212.008 137.14 211.968 136.335 211.758 135.566C212.734 134.206 213.229 132.559 213.164 130.887C213.099 129.214 212.478 127.611 211.399 126.33ZM208.231 142.087C208.109 142.122 207.985 142.145 207.859 142.156C207.267 140.731 206.371 139.452 205.234 138.408C204.882 138.053 204.466 137.768 204.009 137.567C203.338 137.077 202.72 136.517 202.167 135.897C201.947 135.662 201.793 135.372 201.721 135.058C201.649 134.744 201.662 134.416 201.759 134.108C202.074 133.292 202.841 133.476 203.498 133.774C203.797 133.904 204.095 134.047 204.397 134.182C205.012 134.484 205.612 134.816 206.193 135.178C206.835 135.578 207.441 136.031 208.006 136.534C208.88 137.322 209.639 138.408 209.721 139.596C209.743 139.916 209.714 140.237 209.635 140.547C209.559 140.854 209.42 141.142 209.227 141.392C208.979 141.726 208.629 141.969 208.231 142.087ZM209.864 136.779C208.729 135.276 207.006 134.194 205.336 133.325C205.254 133.153 205.177 132.982 205.099 132.806C204.727 131.989 204.282 131.173 203.984 130.356C203.65 129.45 204.568 129.756 205.046 130.054C206.749 131.12 208.798 132.483 209.917 134.296C210.12 134.626 210.289 134.975 210.423 135.337L210.403 135.362H210.435C210.572 135.74 210.662 136.134 210.705 136.534C210.726 136.709 210.737 136.884 210.738 137.06C210.737 137.408 210.689 137.755 210.595 138.089C210.415 137.608 210.169 137.155 209.864 136.742V136.779ZM211.146 134.051C211.157 132.592 210.713 131.165 209.876 129.968C209.36 129.22 208.792 128.508 208.178 127.837C207.696 127.29 206.953 126.657 206.81 125.898C206.663 125.081 207.72 125.297 208.178 125.489C208.867 125.777 209.496 126.193 210.031 126.714C211.123 127.737 211.81 129.118 211.967 130.605C212.076 131.855 211.815 133.109 211.215 134.211C211.183 134.1 211.158 134.06 211.134 134.015L211.146 134.051ZM78.6949 115.486C78.6015 116.141 78.7131 116.808 79.0143 117.397C79.3156 117.985 79.7916 118.466 80.3771 118.773C80.9173 119.082 81.5442 119.205 82.1612 119.122C82.7781 119.04 83.3507 118.756 83.7904 118.316C84.187 117.904 84.4731 117.399 84.6223 116.847C84.7715 116.295 84.7789 115.715 84.6438 115.16C84.4808 114.606 84.1542 114.115 83.7067 113.75C83.2592 113.386 82.7119 113.165 82.1368 113.118C81.5126 113.038 80.8786 113.145 80.3152 113.425C79.7518 113.706 79.2845 114.147 78.9725 114.694C78.8981 114.842 78.8806 115.012 78.9235 115.172C78.8113 115.231 78.7253 115.33 78.6826 115.449L78.6949 115.486ZM80.03 115.298C80.079 115.209 80.1321 115.123 80.1852 115.037V115.017C80.2178 114.98 80.2505 114.939 80.2872 114.902C80.3464 114.84 80.4105 114.783 80.4791 114.731L80.5445 114.686L80.7119 114.58L80.8466 114.51L80.9242 114.482C81.0057 114.45 81.0889 114.423 81.1732 114.4C81.259 114.376 81.3447 114.359 81.4305 114.343H81.508C81.576 114.339 81.6442 114.339 81.7122 114.343H82.0143H82.0674L82.2144 114.372C82.2962 114.387 82.3768 114.409 82.4553 114.437L82.5492 114.469L82.6758 114.531C82.7628 114.578 82.8473 114.63 82.9289 114.686H82.9493C82.982 114.723 83.0228 114.755 83.0596 114.792L83.1616 114.902V114.923C83.2256 115.022 83.2843 115.124 83.3372 115.229V115.253C83.3546 115.3 83.3696 115.348 83.3821 115.396C83.4055 115.48 83.4246 115.564 83.4393 115.649C83.4407 115.675 83.4407 115.701 83.4393 115.727C83.4393 115.776 83.4393 115.829 83.4393 115.878C83.4386 115.983 83.4318 116.088 83.4189 116.193C83.4189 116.217 83.3944 116.348 83.3862 116.372C83.3657 116.472 83.3371 116.571 83.3005 116.666C83.2921 116.698 83.2811 116.73 83.2678 116.76L83.227 116.85C83.1735 116.957 83.1135 117.061 83.0473 117.16L82.9861 117.246L82.9289 117.319C82.8623 117.394 82.7914 117.465 82.7166 117.532L82.639 117.593L82.5615 117.646L82.4308 117.724L82.3083 117.781C82.2232 117.814 82.1359 117.841 82.047 117.862L81.9368 117.883H81.8061C81.7218 117.889 81.6372 117.889 81.553 117.883H81.4509C81.3749 117.867 81.2999 117.846 81.2263 117.822L81.0875 117.777C81.0398 117.75 80.9907 117.725 80.9405 117.703C80.8256 117.643 80.7151 117.575 80.6098 117.499L80.5281 117.434C80.471 117.381 80.4097 117.328 80.3567 117.27C80.3036 117.213 80.275 117.185 80.2383 117.14L80.1852 117.079C80.176 117.061 80.1651 117.045 80.1525 117.03C80.0749 116.915 80.0096 116.797 79.9443 116.678C79.9361 116.667 79.9292 116.655 79.9239 116.642C79.9239 116.642 79.9239 116.642 79.9239 116.609C79.9239 116.576 79.8749 116.462 79.8545 116.388C79.834 116.315 79.8259 116.274 79.8136 116.221V116.184C79.8114 116.154 79.8114 116.124 79.8136 116.095C79.8136 116.037 79.8136 115.976 79.8136 115.919C79.8136 115.862 79.8422 115.666 79.8136 115.788C79.8282 115.68 79.8199 115.57 79.7891 115.466C79.8879 115.425 79.971 115.353 80.0259 115.262L80.03 115.298ZM108.198 118.405C107.851 120.231 106.047 121.308 104.303 121.239C104.44 121.662 104.491 122.107 104.454 122.55C104.291 124.652 102.376 126.526 100.216 125.555C99.3653 125.153 98.7046 124.435 98.3747 123.554C98.135 123.745 97.8732 123.907 97.5949 124.036C95.1859 125.134 92.4953 123.248 92.3973 120.663C92.3034 118.169 95.0512 116.339 97.3499 117.103C98.0971 117.348 97.7582 118.532 97.0233 118.283C96.5307 118.128 96.0038 118.118 95.506 118.256C95.0083 118.394 94.561 118.672 94.2183 119.059C93.88 119.441 93.6758 119.922 93.6367 120.431C93.5977 120.94 93.7259 121.447 94.0019 121.876C94.2595 122.349 94.6676 122.723 95.1616 122.938C95.6556 123.154 96.2073 123.198 96.7293 123.064C97.285 122.894 97.7725 122.553 98.1216 122.088C98.1377 121.398 98.3883 120.735 98.832 120.206C98.9184 120.122 99.0273 120.066 99.1454 120.043C99.2635 120.021 99.3856 120.033 99.4967 120.079C99.6077 120.125 99.7029 120.203 99.7706 120.302C99.8382 120.402 99.8753 120.519 99.8773 120.639C99.8551 121.28 99.6696 121.906 99.3383 122.456C99.4894 123.681 100.592 124.906 101.813 124.538C103.344 124.105 103.801 121.533 102.445 120.651C101.796 120.214 102.401 119.165 103.062 119.594C103.508 119.884 104.03 120.035 104.562 120.028C105.094 120.022 105.612 119.858 106.051 119.557C106.472 119.26 106.785 118.833 106.942 118.341C107.098 117.849 107.089 117.32 106.916 116.834C106.78 116.329 106.483 115.884 106.071 115.564C105.658 115.244 105.152 115.068 104.63 115.062C104.084 115.07 103.554 115.243 103.11 115.56C102.666 115.876 102.329 116.321 102.143 116.834C101.902 117.581 100.739 117.266 100.963 116.507C101.179 115.772 101.194 114.992 101.008 114.25C100.821 113.507 100.439 112.827 99.9017 112.281C98.1134 113.592 98.1706 116.834 100.188 117.932C100.882 118.307 100.261 119.365 99.5669 118.989C96.6436 117.393 96.6844 112.506 99.6649 110.987C99.7832 110.923 99.9183 110.898 100.052 110.915C100.185 110.932 100.309 110.99 100.408 111.081C101.482 111.979 102.17 113.255 102.331 114.645C102.812 114.279 103.371 114.031 103.964 113.918C106.565 113.428 108.696 115.85 108.198 118.405ZM101.943 176.383C102.113 176.269 102.265 176.132 102.396 175.975C102.67 175.684 102.844 175.315 102.896 174.919C102.947 174.523 102.872 174.121 102.682 173.77C102.274 173.052 101.4 172.672 100.706 172.296C99.2374 171.445 97.6608 170.796 96.0189 170.365C94.9228 170.115 93.7978 170.016 92.6749 170.071C93.3976 169.181 94.9001 168.936 95.9821 168.944C97.6725 168.965 100.094 169.5 101.412 168.091C102.731 166.682 101.478 164.722 99.9181 164.22C98.9375 163.978 97.9234 163.899 96.9171 163.988C95.7953 164.023 94.6762 164.12 93.565 164.277C91.7154 164.543 89.8291 165.021 88.4042 166.319C87.1384 167.458 86.4403 169.099 86.085 170.737C85.3174 174.268 86.2443 178.376 84.2355 181.573C83.2721 183.026 81.8117 184.079 80.128 184.533C79.9769 184.578 79.8259 184.611 79.6707 184.643C79.7973 183.236 79.7767 181.82 79.6095 180.417C79.2067 177.096 78.0716 173.905 76.2859 171.076C75.7065 170.17 75.061 169.309 74.3547 168.499C75.7388 166.592 76.584 164.175 77.3271 162.077C78.7644 158.017 79.7756 153.819 80.3444 149.55C80.6273 147.455 80.8045 145.347 80.8752 143.234C80.9038 142.446 79.6789 142.446 79.6503 143.234C79.472 148.519 78.6172 153.759 77.1066 158.827C76.4265 161.273 75.5344 163.656 74.4405 165.947C74.1592 166.513 73.84 167.058 73.485 167.581C73.3748 167.47 73.2727 167.356 73.1625 167.246C71.9376 166.074 70.5535 164.89 68.9734 164.261C67.4994 163.677 65.707 163.743 64.6577 165.057C64.2856 165.558 64.0293 166.136 63.9071 166.748C63.785 167.36 63.8001 167.992 63.9514 168.597C64.6863 171.884 68.5365 172.439 71.1986 171.223C72.0964 170.801 72.9024 170.208 73.5708 169.475C74.7876 170.914 75.8053 172.509 76.5963 174.219C78.3734 178.003 78.9504 182.241 78.2499 186.362C77.4382 190.564 75.361 194.418 72.2969 197.406C69.1775 200.469 64.87 202.563 60.5053 201.044C58.4108 200.314 56.553 198.978 54.8096 197.639C52.8947 196.165 51.0533 194.606 49.1588 193.111C47.3238 191.586 45.3276 190.267 43.2059 189.175C41.2912 188.295 39.2794 187.644 37.2121 187.236C33.3415 186.383 28.891 185.872 25.8982 182.998C22.7911 180.013 22.5298 175.55 23.3056 171.565C24.1834 167.025 26.2045 162.803 28.1234 158.631C32.4334 149.264 37.267 140.147 42.6016 131.324C45.2691 126.912 48.0591 122.578 50.9716 118.324C52.4252 116.195 53.91 114.088 55.4261 112.003C55.6752 111.665 56.1366 111.187 56.4346 110.721C61.7522 111.665 67.2043 111.538 72.4725 110.35C74.2756 109.909 76.0409 109.326 77.7517 108.606C77.7004 108.694 77.6749 108.795 77.6782 108.896C77.7455 110.623 77.4041 112.34 76.6818 113.91C75.9595 115.479 74.8768 116.856 73.5218 117.928C72.1628 118.966 70.5697 119.654 68.8825 119.932C67.1953 120.211 65.4656 120.071 63.8452 119.524C61.983 118.933 60.3201 117.84 59.0396 116.364C58.521 115.768 57.6595 116.638 58.1699 117.23C59.4275 118.647 60.9994 119.75 62.7599 120.45C64.5204 121.151 66.4204 121.429 68.3079 121.264C70.2062 121.073 72.0289 120.42 73.6162 119.361C75.2036 118.303 76.5072 116.871 77.4128 115.192C78.3086 113.576 78.8186 111.775 78.9031 109.929C81.3664 111.102 84.1483 111.428 86.8159 110.856C89.0084 110.35 91.0175 109.245 92.6199 107.665C94.2222 106.085 95.355 104.091 95.8923 101.906C96.076 101.139 94.896 100.812 94.7123 101.58C94.1019 104.045 92.6652 106.227 90.6416 107.761C88.9161 109.04 86.8516 109.781 84.7068 109.891C82.562 110.002 80.4323 109.477 78.5847 108.382C78.5377 108.354 78.4868 108.333 78.4336 108.321C81.3096 107.065 84.0051 105.431 86.4484 103.462C88.7272 101.601 90.7751 99.4731 92.5483 97.1251C98.7047 98.2152 104.742 99.8928 110.579 102.135C110.655 101.729 110.745 101.329 110.848 100.935C107.031 99.462 103.124 98.2346 99.1505 97.2599C96.4557 96.5984 93.7338 96.054 90.9846 95.6267C90.9411 95.6226 90.8974 95.6226 90.8539 95.6267C90.0047 94.4018 89.1677 93.1769 88.3307 91.9153C91.1773 90.521 93.6981 88.5422 95.7284 86.108C97.7588 83.6738 99.2532 80.8389 100.114 77.7883C100.228 77.38 100.306 76.841 99.9793 76.5634C99.4812 76.1102 98.734 76.6777 98.2645 77.1636C96.5727 78.9236 94.2747 79.9739 91.8367 80.1013C89.3988 80.2287 87.0038 79.4236 85.1378 77.8495C85.5938 76.7539 85.7834 75.5657 85.6912 74.3825C85.5989 73.1994 85.2274 72.0549 84.607 71.0432C85.1923 69.1023 85.6022 67.1127 85.8319 65.0985C86.4239 59.4517 84.0395 52.1882 78.3438 47.6806C73.8933 44.1611 64.674 43.1893 60.5503 47.0845C54.4585 44.7531 48.3667 53.1191 48.9138 57.7859C47.5787 59.9009 46.4151 62.1506 45.182 64.3186C41.834 70.1572 38.535 76.0244 35.1135 81.8222C35.0622 81.9157 35.036 82.0209 35.0372 82.1275C35.0384 82.2341 35.067 82.3386 35.1204 82.4309C35.1737 82.5232 35.2499 82.6002 35.3417 82.6545C35.4334 82.7088 35.5377 82.7386 35.6442 82.7409C40.2743 83.2594 44.9003 83.7739 49.5263 84.2557L51.4983 92.7564C52.5871 97.4817 53.6759 102.206 54.7647 106.928C54.9934 107.912 55.2179 108.892 55.4466 109.876C45.336 123.606 36.5238 138.247 29.1238 153.609C27.3314 157.328 25.5308 161.072 24.0201 164.914C22.7584 168.128 21.75 171.553 21.701 175.032C21.652 178.298 22.6319 181.54 25.0286 183.843C27.4253 186.146 30.7447 187.077 33.9335 187.771C37.4326 188.53 40.899 189.163 44.0388 190.984C47.5216 193.025 50.5062 195.81 53.6705 198.272C56.3897 200.391 59.3866 202.522 62.9388 202.763C66.4909 203.004 69.9125 201.179 72.5011 198.864C73.0965 198.325 73.6635 197.755 74.1996 197.157C76.3799 197.455 78.5724 197.668 80.769 197.774C82.8963 197.876 85.1378 198.035 87.2446 197.672C91.5439 196.929 93.022 192.527 94.0999 188.873C94.5771 187.485 94.7348 186.007 94.5612 184.549C95.8412 184.499 97.1086 184.278 98.3298 183.892C99.2526 183.578 101.351 182.765 100.592 181.385C100.186 180.791 99.5853 180.357 98.8933 180.16C99.816 180.291 100.808 180.532 101.706 180.266C102.118 180.172 102.49 179.953 102.771 179.638C103.053 179.324 103.23 178.93 103.278 178.511C103.331 177.608 102.694 176.857 101.943 176.383ZM69.6879 170.463C67.8342 170.945 65.6049 170.332 65.1395 168.266C64.7312 166.405 65.9561 164.727 67.9608 165.204C69.7736 165.637 71.4313 167.14 72.7379 168.532C71.9322 169.462 70.8674 170.13 69.6797 170.451L69.6879 170.463ZM53.842 97.4191C52.8267 93.0476 51.8114 88.6734 50.7961 84.2965C50.7389 84.0434 50.6777 83.7861 50.6205 83.5289C50.5829 83.4005 50.5051 83.2876 50.3985 83.2067C50.292 83.1259 50.1622 83.0814 50.0285 83.0798C45.5658 82.6184 41.1032 82.1244 36.6405 81.6262C39.3475 77.0207 41.981 72.3784 44.6267 67.7442C46.0966 65.1719 47.5719 62.6065 49.0527 60.0478C50.2775 57.9329 51.4738 55.8751 53.2295 54.1398C54.1955 53.185 55.2698 52.3463 56.4306 51.641C56.1819 53.38 56.1326 55.1416 56.2836 56.8917C56.5163 58.9536 57.2798 61.0196 58.7823 62.4486C60.5707 64.1512 63.1388 64.731 65.5968 64.9596C67.7281 65.1597 69.9574 65.1311 71.9049 64.2369L72.4521 65.025C72.9355 66.4671 73.4971 67.8819 74.1342 69.2631C73.8798 69.455 73.6397 69.6652 73.4156 69.8918C73.3523 69.9475 73.3011 70.0157 73.2653 70.0921C73.2295 70.1685 73.2099 70.2514 73.2077 70.3358C73.2054 70.4201 73.2207 70.504 73.2524 70.5822C73.2841 70.6603 73.3316 70.7311 73.392 70.7901C73.4523 70.849 73.5242 70.8948 73.6031 70.9247C73.682 70.9546 73.7662 70.9678 73.8505 70.9636C73.9347 70.9594 74.0172 70.9378 74.0927 70.9002C74.1683 70.8626 74.2352 70.8098 74.2894 70.7452C75.0435 69.9692 75.9938 69.4121 77.0392 69.1333C78.0847 68.8544 79.1862 68.8641 80.2266 69.1614C81.267 69.4587 82.2073 70.0325 82.9476 70.8216C83.6878 71.6108 84.2003 72.5858 84.4305 73.6431C84.6608 74.7003 84.6001 75.8002 84.255 76.8257C83.9099 77.8512 83.2932 78.764 82.4707 79.467C81.6481 80.1699 80.6504 80.6368 79.5836 80.8178C78.5169 80.9989 77.421 80.8874 76.4125 80.4953C76.2609 80.4362 76.0921 80.4399 75.9432 80.5053C75.7942 80.5708 75.6774 80.6928 75.6184 80.8444C75.5594 80.996 75.563 81.1648 75.6285 81.3137C75.6939 81.4626 75.8159 81.5795 75.9675 81.6385C76.7558 81.9407 77.5934 82.0944 78.4377 82.0917C79.0912 82.0896 79.7416 82.0032 80.373 81.8345C83.5278 86.8892 86.7996 91.8663 90.1884 96.7658C90.2392 96.845 90.307 96.9119 90.3868 96.9616C90.4667 97.0112 90.5566 97.0425 90.6501 97.0531C90.7436 97.0636 90.8382 97.0532 90.9271 97.0226C91.0161 96.992 91.0971 96.9419 91.1642 96.8761H91.2132C88.1989 100.734 84.4014 103.91 80.0709 106.193C75.5904 108.497 70.6661 109.807 65.6335 110.035C62.6487 110.176 59.6575 109.993 56.7123 109.488H56.6347C55.6983 105.465 54.7647 101.438 53.8338 97.4069L53.842 97.4191ZM99.5424 182.018V182.038V182.018ZM100.661 179.192C99.7507 179.156 98.8361 178.96 97.9256 178.874C97.0151 178.788 96.1373 178.735 95.2431 178.707C93.9502 178.668 92.6586 178.692 91.3684 178.776C90.6849 178.71 89.9952 178.757 89.3269 178.915C89.2816 178.926 89.2378 178.943 89.1963 178.964C89.1582 178.962 89.12 178.962 89.0819 178.964C88.3062 179.054 88.298 180.283 89.0819 180.189C89.7025 180.111 90.3068 180.058 90.9438 180.013C91.4296 180.013 91.9155 180.054 92.3973 180.099C93.7288 180.225 95.0506 180.439 96.3537 180.74C97.3867 180.977 98.5135 181.218 99.3587 181.822C99.3179 181.793 99.3995 181.859 99.473 181.924L99.5098 181.953C99.4634 181.992 99.4197 182.034 99.3791 182.079C99.0452 182.304 98.6845 182.487 98.3053 182.622C95.8555 183.561 93.12 183.382 90.5477 183.386C90.3853 183.386 90.2295 183.45 90.1146 183.565C89.9998 183.68 89.9353 183.836 89.9353 183.998C89.9353 184.161 89.9998 184.316 90.1146 184.431C90.2295 184.546 90.3853 184.611 90.5477 184.611C91.4664 184.611 92.4054 184.611 93.3445 184.611C93.3851 184.8 93.4137 184.993 93.4303 185.186C93.5895 187.138 92.7852 189.179 92.1564 191C91.5684 192.695 90.7396 194.438 89.2616 195.545C87.7019 196.708 85.7176 196.651 83.8639 196.643C81.7734 196.643 79.6857 196.542 77.6007 196.341C76.7841 196.265 75.9675 196.172 75.1509 196.063C77.4634 193.111 78.9764 189.612 79.5442 185.905H79.6585C81.2721 185.596 82.7678 184.844 83.9782 183.733C86.7056 181.246 86.7465 177.49 86.9098 174.068C86.9264 172.444 87.222 170.835 87.7835 169.312C88.0841 168.562 88.5417 167.885 89.1255 167.326C89.7093 166.768 90.4058 166.341 91.1683 166.074C92.9811 165.429 94.9981 165.257 96.9089 165.212C97.8276 165.188 98.8688 165.106 99.7425 165.457C100.339 165.698 101.061 166.474 100.604 167.144C100.196 167.744 99.224 167.789 98.583 167.805C97.55 167.83 96.5211 167.691 95.4922 167.728C94.0019 167.777 92.385 168.283 91.5194 169.581C91.3929 169.772 91.2914 169.977 91.2173 170.194C90.8988 170.234 90.5844 170.279 90.266 170.337C89.4902 170.471 89.8209 171.655 90.5926 171.516C92.0356 171.228 93.5175 171.189 94.9736 171.402C96.3076 171.652 97.5988 172.092 98.8075 172.709C99.5098 173.048 100.2 173.419 100.873 173.807C101.437 174.13 102.033 174.624 101.429 175.236C101.198 175.457 100.904 175.6 100.588 175.644C99.1561 174.977 97.6476 174.489 96.0964 174.191C93.8306 173.745 91.5052 173.69 89.2207 174.028C88.445 174.142 88.7757 175.322 89.5474 175.212C92.0624 174.849 94.6251 175.007 97.0763 175.677H96.5129L90.2333 175.567C90.0709 175.567 89.9151 175.631 89.8003 175.746C89.6854 175.861 89.6209 176.017 89.6209 176.179C89.6209 176.342 89.6854 176.497 89.8003 176.612C89.9151 176.727 90.0709 176.792 90.2333 176.792L96.8395 176.865C97.8848 176.865 98.9382 176.926 99.9834 176.89L100.392 176.865C101.004 177.135 101.694 177.478 101.976 178.021C102.401 178.911 101.302 179.209 100.653 179.18L100.661 179.192ZM73.926 75.6896C74.5776 74.6094 75.4644 73.69 76.5206 73.0001C77.5767 72.3101 78.7749 71.8673 80.0259 71.7047C80.3526 71.6598 80.6384 72.0231 80.6384 72.3171C80.6342 72.4782 80.5684 72.6316 80.4544 72.7456C80.3405 72.8596 80.1871 72.9254 80.0259 72.9296C78.9874 73.0842 77.9963 73.4677 77.1242 74.0524C76.2521 74.637 75.5209 75.4083 74.9835 76.3102C74.9012 76.4505 74.7666 76.5523 74.6092 76.5932C74.4519 76.6342 74.2847 76.611 74.1444 76.5287C74.0042 76.4464 73.9024 76.3117 73.8615 76.1544C73.8205 75.997 73.8437 75.8299 73.926 75.6896ZM59.9705 91.8663C61.1836 91.6052 62.3389 91.1251 63.3797 90.4495C64.3841 91.3151 65.6989 92.1603 67.0299 91.6458C68.3609 91.1314 68.9489 89.5676 68.7529 88.1875C68.5786 87.3014 68.2716 86.4466 67.8424 85.652C67.7891 85.5516 67.7045 85.4714 67.6015 85.4234C68.0751 84.3162 68.3515 83.1348 68.4181 81.9325C68.4589 81.1445 67.234 81.1445 67.1932 81.9325C67.1356 82.9998 66.8867 84.0481 66.4583 85.0273C66.1916 84.7346 65.8552 84.5141 65.4805 84.3864C65.1057 84.2586 64.7047 84.2277 64.3147 84.2965C63.7558 84.3939 63.2557 84.7026 62.9182 85.1587C62.5807 85.6148 62.4316 86.1832 62.5019 86.7463C62.2033 86.8307 61.9273 86.9809 61.6942 87.1858C61.4611 87.3906 61.2767 87.645 61.1545 87.9303C61.0113 88.2523 60.9761 88.612 61.0541 88.9556C61.1321 89.2993 61.3191 89.6085 61.5873 89.8371C61.6425 89.8825 61.7012 89.9234 61.7629 89.9595C61.0913 90.2907 60.3807 90.5363 59.6479 90.6904C58.8722 90.8455 59.2029 92.0255 59.9705 91.8663ZM66.593 87.2811C66.695 87.2777 66.7947 87.2508 66.8846 87.2027C66.9745 87.1546 67.0522 87.0864 67.1116 87.0035C67.3251 87.4592 67.4722 87.9432 67.5484 88.4407C67.5894 88.7502 67.5714 89.0647 67.4954 89.3675C67.4304 89.6216 67.3182 89.8612 67.1646 90.0739C66.9915 90.297 66.7503 90.4575 66.4777 90.5312C66.2051 90.6049 65.9159 90.5877 65.6539 90.4822C65.184 90.3105 64.7514 90.0499 64.3801 89.7146C65.2353 89.0187 65.9812 88.1984 66.593 87.2811ZM63.6941 86.289C63.7094 86.2253 63.7285 86.1626 63.7513 86.1012C63.7309 86.1542 63.8942 85.8848 63.8615 85.9215C63.9064 85.8725 63.9514 85.8235 64.0003 85.7786L64.0861 85.7092C64.1394 85.67 64.1953 85.6345 64.2535 85.603L64.3719 85.55L64.5475 85.4969H64.5924H64.6455C64.8598 85.4691 65.0773 85.5152 65.262 85.6275C65.5101 85.7707 65.7136 85.9798 65.8499 86.2318C65.6066 86.6366 65.3337 87.0228 65.0333 87.3873C64.6604 87.0822 64.2279 86.8583 63.7635 86.7299C63.7635 86.6891 63.7635 86.7054 63.7635 86.7299C63.7429 86.6727 63.7265 86.614 63.7145 86.5544C63.7145 86.5544 63.7145 86.4319 63.7145 86.4278C63.7179 86.4103 63.7179 86.3923 63.7145 86.3747C63.7127 86.3452 63.7058 86.3162 63.6941 86.289ZM62.2447 88.5142C62.2554 88.4413 62.2819 88.3716 62.3223 88.31C62.3999 88.1778 62.5101 88.0675 62.6422 87.9896C62.7744 87.9117 62.9242 87.8688 63.0776 87.865C63.3355 88.1314 63.6596 88.3245 64.0167 88.4244C63.8289 88.5958 63.6329 88.7592 63.4287 88.9143C63.3426 88.868 63.2455 88.8458 63.1477 88.8501C63.05 88.8544 62.9552 88.8851 62.8735 88.9388C62.8389 88.9652 62.802 88.9884 62.7632 89.0082H62.6734C62.6734 89.0082 62.5713 88.9715 62.5468 88.9674C62.5083 88.9392 62.4673 88.9146 62.4243 88.8939C62.3937 88.8674 62.3651 88.8387 62.3386 88.8082C62.3276 88.787 62.3153 88.7666 62.3018 88.7469C62.3018 88.7265 62.3018 88.7061 62.3018 88.6897C62.3018 88.6734 62.3018 88.6081 62.3018 88.5918C62.3018 88.5754 62.3018 88.5632 62.3018 88.5632C62.2826 88.5437 62.2606 88.5272 62.2365 88.5142H62.2447ZM55.5691 64.8331L54.2339 67.7769C54.1507 67.9155 54.0163 68.0159 53.8597 68.0564C53.7031 68.0968 53.5369 68.0742 53.3969 67.9933C53.2592 67.9092 53.1593 67.7752 53.1182 67.6191C53.0771 67.4631 53.098 67.2972 53.1764 67.1563L54.5034 64.192C54.5871 64.0596 54.7175 63.9634 54.8687 63.9226C55.02 63.8817 55.181 63.8992 55.32 63.9716C55.4607 64.0538 55.5643 64.1871 55.6092 64.3438C55.6541 64.5005 55.6368 64.6684 55.5609 64.8126L55.5691 64.8331ZM52.8008 63.8899L51.2493 67.1154C51.2104 67.188 51.1574 67.2519 51.0932 67.3035C51.0291 67.3551 50.9553 67.3932 50.8761 67.4156C50.7969 67.438 50.714 67.4443 50.6324 67.4339C50.5507 67.4236 50.472 67.3969 50.4009 67.3554C50.3298 67.314 50.2678 67.2586 50.2186 67.1927C50.1694 67.1267 50.1339 67.0515 50.1144 66.9716C50.0949 66.8916 50.0917 66.8086 50.105 66.7274C50.1183 66.6461 50.1478 66.5684 50.1918 66.4989L51.7433 63.2693C51.8256 63.1291 51.9603 63.0273 52.1176 62.9863C52.275 62.9453 52.4421 62.9686 52.5824 63.0509C52.7226 63.1332 52.8244 63.2678 52.8654 63.4251C52.9063 63.5825 52.8831 63.7497 52.8008 63.8899ZM50.8165 59.5334C50.7961 59.453 50.7961 59.3688 50.8165 59.2884C50.8203 59.2083 50.8457 59.1307 50.89 59.0639C50.9725 58.9269 51.1038 58.8262 51.2575 58.7821L52.074 58.5576C52.234 58.5179 52.4031 58.5397 52.5477 58.6188C52.6835 58.7025 52.7838 58.8333 52.8294 58.9863C52.8519 59.0664 52.8519 59.1511 52.8294 59.2313C52.8249 59.3125 52.7996 59.3913 52.7559 59.4599C52.6738 59.5955 52.5443 59.6959 52.3925 59.7416L51.5759 59.9621C51.4161 60.0039 51.2463 59.9819 51.1023 59.9009C51.0292 59.8599 50.9654 59.8043 50.9148 59.7376C50.8643 59.6708 50.828 59.5944 50.8083 59.513L50.8165 59.5334ZM57.0512 63.0039C56.8893 63.0012 56.7346 62.9369 56.6184 62.8242L55.5119 61.6402C55.3999 61.5235 55.3358 61.3691 55.3322 61.2074C55.3314 61.1269 55.3469 61.047 55.3778 60.9726C55.4086 60.8982 55.4543 60.8309 55.5119 60.7746C55.6266 60.6597 55.7823 60.5951 55.9447 60.595C56.1069 60.596 56.2622 60.6605 56.3775 60.7746L57.484 61.9587C57.5967 62.0749 57.6609 62.2296 57.6636 62.3915C57.6642 62.472 57.6486 62.5518 57.6178 62.6261C57.5869 62.7005 57.5414 62.7678 57.484 62.8242C57.4245 62.8784 57.355 62.9204 57.2793 62.9477C57.2037 62.9751 57.1234 62.9872 57.043 62.9835L57.0512 63.0039Z" fill="#3F4254"/>
</svg>
