<svg width="200" height="156" viewBox="0 0 200 156" fill="none" xmlns="http://www.w3.org/2000/svg">
<path d="M39.4511 72.8156C28.8839 67.6777 20.1386 58.5317 16.4218 47.4179C12.7051 36.3041 14.3448 23.2955 21.4868 13.9672C28.6287 4.63893 41.3095 -0.316723 52.7147 2.48905C65.4683 5.65921 75.1244 17.4289 88.1695 19.0686C97.024 20.1618 105.624 16.3722 114.369 14.5138C123.078 12.6554 133.827 13.6393 138.528 21.1821C142.864 28.1783 140.022 37.2151 137.07 44.9036C132.843 55.9445 128.434 67.2405 120.673 76.1315C114.187 83.565 105.624 88.9943 99.0647 96.3549C94.9472 100.983 91.5948 106.376 86.4934 109.874C78.4769 115.339 67.9825 114.829 58.2898 114.137C51.2936 113.627 44.2245 113.117 37.5562 110.894C30.888 108.671 24.6206 104.554 21.2318 98.3955C15.2559 87.5004 19.8471 74.0545 24.4748 62.5399" fill="#F4F6F9"/>
<path d="M186.408 50.7337C185.68 47.6729 184.769 44.6121 183.056 41.952C179.85 36.9964 174.529 36.3041 169.246 34.8101C166.659 34.0813 164.946 34.0084 162.541 35.3202C158.642 37.4336 154.78 39.6199 151.209 42.2435C148.111 44.5392 145.233 47.2356 142.974 50.4058C142.791 50.26 142.573 50.1143 142.391 49.9321L142.172 50.0414C139.986 50.6609 137.726 51.3168 136.014 53.0658C134.301 54.8149 133.354 58.0215 134.52 60.3171C130.184 59.807 126.03 62.7585 123.042 66.5481C120.017 70.3377 117.831 74.9654 115.171 79.1194C113.713 81.4151 111.709 83.7836 109.304 83.6014C107.847 83.4921 106.571 82.4353 105.15 81.9252C103.875 81.4879 102.235 81.7794 101.616 83.0548C101.543 83.1641 101.47 83.237 101.397 83.3463C100.851 79.9211 97.9354 77.6619 95.1296 76.9696C92.2509 76.2772 89.2266 76.7145 86.3115 76.3865C78.9874 75.4756 72.7927 69.6818 67.0354 64.0703L66.4525 64.6533C66.0881 59.5519 65.6143 47.017 65.6143 47.017C69.5132 46.0332 77.3841 43.9562 77.3841 43.9562C72.7928 38.2717 67.8007 31.7128 62.6264 25.2631C60.9138 23.1133 58.6181 21.2185 55.9945 20.4897C55.9945 20.4897 52.3872 15.1332 46.9214 24.9717C45.2452 27.9961 44.0792 31.0569 43.2775 33.8262C41.3827 33.2796 39.1599 33.7534 37.7388 35.1745C35.844 37.0328 35.6254 40.3488 37.2287 42.4622C38.2489 43.774 39.8886 44.5392 41.5283 44.612C41.5283 44.6849 41.5283 44.7578 41.5283 44.7578C38.7226 51.3896 36.1719 56.8918 33.3297 62.6492L33.9492 61.3738C15.8027 78.4271 1.37312 102.659 0.498594 127.874C0.243523 134.98 1.91963 142.596 6.62021 147.223C10.7742 151.341 16.6044 152.507 22.1431 152.252C27.6818 151.997 33.111 150.466 38.6133 149.883C43.1316 149.41 47.6865 149.519 52.1685 150.248C55.3751 150.794 58.5817 151.632 61.8247 151.487C64.9584 151.377 68.238 150.175 70.2786 147.478C71.4081 147.114 72.5378 146.64 73.558 146.021C74.3232 145.583 75.052 145 75.7443 144.345C75.38 145.146 75.0155 145.948 74.6147 146.713C75.9994 146.75 77.384 146.859 78.8052 147.005C78.7687 147.66 78.6959 148.316 78.6594 148.972C84.3439 150.138 90.1376 150.976 95.9313 151.487C98.3727 152.507 100.705 153.709 102.964 155.058C103.401 154.037 103.802 153.017 104.239 151.997C106.17 152.142 108.102 152.47 109.669 153.564C110.361 150.94 111.053 148.316 111.636 145.656C112.766 140.227 113.349 134.761 113.604 129.223C114.624 126.781 115.608 124.34 116.628 121.898C120.163 120.587 123.625 118.91 126.358 116.761C132.552 111.878 137.362 105.537 141.771 99.0514C144.832 94.5694 147.966 89.8688 148.767 84.5123C149.132 82.1074 149.059 79.5931 150.043 77.3704C150.771 75.7671 152.01 74.4188 152.776 72.8155C154.743 68.6251 153.104 63.1593 155.909 59.5154L155.836 59.224C156.966 59.2968 158.059 59.3332 159.189 59.3332C163.197 59.2968 167.132 58.5316 171.104 58.1308C171.213 58.1308 171.323 58.0943 171.432 58.0943C172.015 58.0215 172.635 57.985 173.218 57.9486C173.363 58.2037 173.509 58.4952 173.655 58.7502C173.801 59.0053 174.019 59.2604 174.274 59.2604C174.639 59.2239 174.821 58.7138 174.857 58.2765C174.857 58.1672 174.894 58.0215 174.894 57.9121C175.185 57.9121 175.477 57.9121 175.732 57.8757C175.951 58.4223 176.278 58.9689 176.789 58.896C177.262 58.8231 177.481 58.313 177.59 57.7299C177.918 57.6935 178.246 57.6571 178.574 57.5842C179.011 58.2401 179.631 58.7138 180.287 58.4223C180.87 58.1308 181.088 57.3656 181.161 56.6368C181.598 56.3453 181.926 55.9809 182.145 55.5072C182.51 54.5962 182.072 53.5395 181.343 52.8472C181.343 52.3735 181.38 51.8634 181.38 51.3897C181.416 50.588 181.416 49.8228 181.416 49.0211C182.145 49.9685 182.91 50.8795 183.712 51.7905C184.331 52.5192 185.388 53.248 186.117 52.665C186.663 52.2642 186.591 51.4261 186.408 50.7337ZM168.481 46.6891C168.517 46.2518 168.626 45.7781 168.772 45.3408C169.173 46.9077 170.193 48.2923 171.578 48.8025C171.505 49.677 171.469 50.5516 171.505 51.4261C170.886 51.3896 170.266 51.3168 169.72 51.0617C168.153 50.3694 168.335 48.1466 168.481 46.6891Z" fill="white"/>
<path d="M158.606 118.874H136.888C136.597 118.874 136.342 118.619 136.342 118.328C136.342 118.036 136.597 117.781 136.888 117.781H158.059V100.473C158.059 100.181 158.314 99.9263 158.606 99.9263H173.801V85.1686C173.801 84.8771 174.056 84.6221 174.347 84.6221H199.454C199.745 84.6221 200 84.8771 200 85.1686C200 85.4602 199.745 85.7152 199.454 85.7152H174.894V100.473C174.894 100.764 174.639 101.019 174.347 101.019H159.152V118.328C159.152 118.619 158.897 118.874 158.606 118.874Z" fill="#3F4254"/>
<path d="M94.5467 2.19771C93.9272 1.68757 93.3078 1.21387 92.5426 0.922363C91.6681 0.594415 90.6113 0.59438 89.8097 1.06808C89.6639 0.922327 89.4454 0.885898 89.2268 1.03165C87.2591 2.12481 86.0929 4.42045 86.1658 6.64321C86.2387 9.01172 87.7328 10.9794 89.9191 11.8539C92.069 12.7285 94.6926 12.3641 96.3323 10.6515C97.2069 9.74049 97.7899 8.538 97.7534 7.26265C97.717 5.95086 97.061 4.78482 96.1864 3.80098C95.7127 3.18152 95.1297 2.67142 94.5467 2.19771ZM95.7128 9.66763C93.1257 12.5827 87.8056 10.9429 87.2955 7.08045C87.0768 5.40428 87.7328 3.61879 89.0081 2.4892C89.2268 2.78071 89.7005 2.89002 89.9191 2.4892C90.3928 1.57823 91.5952 1.6147 92.4333 2.01552C93.4172 2.48922 94.3281 3.32729 95.1298 4.12894C95.8585 4.89415 96.5509 5.80511 96.6603 6.86183C96.806 7.88211 96.3687 8.93886 95.7128 9.66763ZM94.2188 5.1128C93.7815 6.20596 93.3442 7.29912 92.907 8.39228C92.8341 8.57447 92.7248 8.72023 92.5426 8.75667C92.3604 8.79311 92.1418 8.75666 91.996 8.6109C91.2672 7.73638 90.5022 6.86183 89.7734 5.95087C89.5912 5.73223 89.5548 5.4043 89.7734 5.18566C89.992 4.96703 90.3198 5.00347 90.5385 5.18566C90.7207 5.33142 90.8665 5.44073 91.0487 5.58648C91.1581 5.6958 91.2309 5.84154 91.1945 5.9873C91.5224 6.38812 91.8503 6.78896 92.2147 7.18979C92.5426 6.38814 92.8706 5.5865 93.1621 4.78485C93.2714 4.49334 93.5264 4.34758 93.8179 4.42046C94.073 4.49334 94.2917 4.85773 94.2188 5.1128ZM124.062 1.03165C121.293 -0.535209 118.123 0.52152 115.353 1.5418C114.697 1.79687 114.989 2.8536 115.645 2.59853C115.681 2.59853 115.754 2.5621 115.791 2.5621C114.406 4.01965 114.078 6.27882 114.88 8.10075C115.827 10.2142 118.268 11.4896 120.528 11.3074C122.896 11.0887 125.046 9.449 125.993 7.29912C126.503 6.09665 126.722 4.71198 126.248 3.47307C125.811 2.41635 125.009 1.57823 124.062 1.03165ZM125.301 5.91444C124.827 7.88212 123.224 9.55831 121.293 10.0684C119.471 10.5422 117.357 9.88624 116.264 8.31938C115.062 6.6432 115.39 4.2018 116.993 2.89001C117.321 2.63494 117.175 2.27057 116.92 2.08838C118.706 1.46892 120.6 0.958793 122.459 1.50537C124.426 2.12483 125.775 3.801 125.301 5.91444ZM123.916 4.12894C122.641 5.25853 121.694 6.71607 121.22 8.35581C121.111 8.68375 120.71 8.86596 120.418 8.68376C119.179 7.88211 118.195 6.78897 117.54 5.51362C117.212 4.89416 118.159 4.34758 118.487 4.96704C118.961 5.87801 119.616 6.7161 120.418 7.33555C121.001 5.80513 121.912 4.42045 123.151 3.36373C123.661 2.89003 124.426 3.65523 123.916 4.12894ZM112.73 7.04402C108.284 7.04402 103.875 7.08045 99.4296 7.08045C98.7373 7.08045 98.7373 5.9873 99.4296 5.9873C103.875 5.9873 108.284 5.95087 112.73 5.95087C113.422 5.95087 113.422 7.04402 112.73 7.04402ZM144.322 6.75254C139.585 7.18981 134.812 7.26267 130.038 6.97117C129.346 6.93473 129.346 5.84157 130.038 5.87801C134.812 6.16952 139.585 6.09665 144.322 5.65938C145.014 5.58651 145.014 6.67967 144.322 6.75254ZM158.97 7.80923C157.95 9.88623 155.253 10.36 153.213 10.032C150.917 9.66763 148.767 8.10075 148.403 5.73224C148.039 3.54593 149.569 1.32316 151.828 1.21385C152.521 1.17741 152.521 2.27057 151.828 2.307C150.917 2.37988 150.116 2.99933 149.715 3.80098C149.278 4.67551 149.387 5.76868 149.824 6.64321C150.735 8.39226 152.739 9.08459 154.598 9.04815C156.201 9.01171 158.096 8.21005 158.242 6.35168C158.351 4.56619 157.075 2.92648 155.618 2.05195C154.124 1.14099 152.338 0.849486 150.662 1.28675C149.97 1.46894 149.678 0.412213 150.371 0.23002C152.776 -0.389436 155.363 0.26645 157.221 1.90619C158.861 3.29086 159.991 5.73223 158.97 7.80923Z" fill="#3F4254"/>
<path d="M102.199 118.072C102.454 119.384 103.51 120.404 104.749 120.805C103.948 121.279 103.292 122.117 102.782 122.846C102.162 123.757 101.725 124.777 101.47 125.834C101.033 126.089 100.887 126.635 101.178 127.109C101.579 127.765 102.563 127.692 103.219 127.728C104.895 127.838 106.571 127.983 108.247 128.093C108.539 128.129 108.794 127.838 108.794 127.546C108.83 126.38 108.721 125.178 108.503 124.012C108.32 123.064 108.102 122.044 107.482 121.242C107.336 121.024 107.118 120.878 106.936 120.769C107.956 120.404 108.831 119.566 109.231 118.509C109.778 117.015 109.158 115.266 107.92 114.355C106.498 113.299 104.312 113.59 103.146 114.902C103.037 115.011 103 115.121 103 115.23C102.308 115.995 102.016 117.125 102.199 118.072ZM107.336 123.72C107.592 124.777 107.701 125.87 107.701 127C106.717 126.927 105.733 126.854 104.749 126.781C104.203 126.744 103.62 126.708 103.073 126.672C102.855 126.672 102.599 126.635 102.381 126.635C102.417 126.599 102.454 126.526 102.454 126.453C102.709 125.36 103.146 124.303 103.802 123.392C104.094 122.955 104.458 122.554 104.822 122.19C105.15 121.898 105.587 121.57 106.061 121.679C106.899 121.789 107.191 123.028 107.336 123.72ZM104.421 115.704C104.749 115.631 104.859 115.339 104.786 115.084C105.405 114.793 106.17 114.756 106.826 115.048C107.847 115.485 108.466 116.687 108.284 117.744C108.138 118.837 107.118 119.748 106.061 119.858C104.968 120.003 103.838 119.275 103.401 118.291C103 117.38 103.328 115.959 104.421 115.704ZM109.778 134.834C109.814 135.636 109.013 136.146 108.284 136.109C107.847 136.109 107.409 135.891 106.972 135.854C106.535 135.818 106.061 136.073 105.624 136.109C104.64 136.219 103.802 135.745 102.891 135.49C102.308 135.308 101.543 135.198 101.105 135.745C100.668 136.291 99.9031 135.526 100.34 134.98C101.361 133.704 103.073 134.433 104.312 134.834C104.749 134.98 105.187 135.089 105.624 135.016C106.061 134.943 106.462 134.761 106.899 134.761C107.154 134.761 108.685 135.271 108.685 134.834C108.648 134.142 109.742 134.142 109.778 134.834ZM95.9313 126.927C96.2592 122.299 96.6235 117.635 96.9515 113.007C96.9515 112.752 97.0972 112.606 97.2794 112.533C97.2794 112.242 97.5345 111.987 97.826 111.987C99.2835 111.914 100.741 111.841 102.162 111.768C102.454 111.768 102.709 112.023 102.709 112.315C102.709 112.606 102.454 112.861 102.162 112.861C100.778 112.934 99.3928 113.007 98.0082 113.044C97.6802 117.671 97.3159 122.299 96.988 126.927C96.988 127.619 95.8948 127.619 95.9313 126.927ZM100.122 130.716C99.5023 130.461 98.8099 130.643 98.409 131.117C97.9353 131.664 97.1701 130.862 97.6438 130.352C98.1539 129.769 98.9556 129.441 99.7208 129.514C100.595 129.587 101.142 130.097 101.761 130.68C102.527 131.409 103.693 131.081 104.64 131.008C105.733 130.935 106.863 130.826 107.956 130.753C108.648 130.716 108.648 131.809 107.956 131.846C106.899 131.919 105.879 131.992 104.822 132.101C103.948 132.174 102.927 132.392 102.053 132.137C101.652 132.028 101.324 131.773 100.996 131.481C100.741 131.19 100.486 130.898 100.122 130.716ZM54.3183 27.0848C54.3183 27.3764 54.0632 27.6314 53.7717 27.6314C53.6988 27.6314 53.6259 27.6314 53.5895 27.6314C53.5531 27.6314 53.5167 27.6314 53.4803 27.6314H53.4438C53.4074 27.6314 53.4073 27.6314 53.3708 27.6314C53.298 27.6314 53.2615 27.6679 53.1887 27.6679C53.0793 27.7043 52.9701 27.7407 52.8607 27.7772C52.8243 27.7772 52.8244 27.7772 52.788 27.8136C52.7515 27.8501 52.6785 27.8501 52.6421 27.8865C52.5328 27.9594 52.4235 27.9958 52.3142 28.0687C52.2777 28.0687 52.2778 28.1051 52.2414 28.1051L52.2049 28.1416C52.1685 28.178 52.1684 28.178 52.132 28.2144C52.0591 28.2873 51.9499 28.3602 51.877 28.4695C51.8406 28.506 51.804 28.5424 51.7676 28.5788C51.7676 28.6153 51.7311 28.6153 51.7311 28.6517C51.5489 28.9068 51.2575 28.9797 50.966 28.8339C50.711 28.6882 50.6017 28.3238 50.7838 28.0687C51.4762 27.0849 52.6057 26.4654 53.8082 26.4654C54.0997 26.5383 54.3183 26.7933 54.3183 27.0848ZM58.5087 80.3946C58.5452 80.2852 58.5452 80.3581 58.5087 80.3946V80.3946ZM58.1079 80.9047C58.035 80.9776 58.0714 80.9412 58.1079 80.9047V80.9047ZM58.4723 79.3743C58.5087 79.4107 58.5087 79.4471 58.4723 79.3743V79.3743ZM57.6707 81.1233C57.5978 81.1233 57.6343 81.1233 57.6707 81.1233V81.1233ZM56.614 80.0666C56.614 80.0302 56.614 80.0302 56.614 79.9938C56.614 79.9938 56.614 80.0302 56.614 80.0666ZM57.4156 81.1233C57.4156 81.1233 57.4521 81.1233 57.4885 81.1233C57.4521 81.1233 57.4521 81.1233 57.525 81.1233H57.4885C57.525 81.1233 57.5248 81.1233 57.5613 81.1233C57.5613 81.1233 57.5614 81.1233 57.525 81.1233C57.5979 81.1233 57.6706 81.1233 57.7435 81.1233H57.7072H57.7435C57.7799 81.1233 57.78 81.1233 57.8164 81.0869C57.8529 81.0869 57.8894 81.0504 57.8894 81.0504C57.9623 81.014 57.9987 80.9776 58.0716 80.9411C58.108 80.9047 58.1444 80.9047 58.1808 80.8682C58.1808 80.8682 58.1808 80.8682 58.1443 80.8682C58.1808 80.8318 58.2172 80.7954 58.2901 80.7225C58.3265 80.6861 58.3266 80.6496 58.363 80.6496C58.4359 80.5403 58.5088 80.431 58.5452 80.3217C58.5452 80.3217 58.5452 80.3217 58.5452 80.3581C58.5452 80.3217 58.5817 80.2852 58.5817 80.2852C58.6181 80.2124 58.6181 80.1759 58.6181 80.103C58.6181 80.0302 58.6544 79.9937 58.6544 79.9208C58.618 80.103 58.6544 79.9209 58.6544 79.848C58.6544 79.8115 58.6544 79.7751 58.6544 79.7387C58.6544 79.7387 58.6544 79.7022 58.6544 79.6658C58.6544 79.6658 58.6544 79.6658 58.6544 79.6294C58.6544 79.6294 58.6544 79.6294 58.6544 79.6658C58.6544 79.6294 58.6544 79.6293 58.6544 79.5929C58.6544 79.5564 58.6546 79.5565 58.6181 79.52V79.4836C58.5817 79.4472 58.5817 79.4107 58.5817 79.4472C58.5817 79.4107 58.5452 79.3743 58.5452 79.3378C58.5452 79.3014 58.5087 79.3014 58.5087 79.265V79.3014C58.4723 79.265 58.4359 79.2285 58.3995 79.1921C58.363 79.1921 58.363 79.1556 58.3265 79.1556C58.2901 79.1556 58.2902 79.1192 58.2538 79.1192C58.2173 79.1192 58.1807 79.0828 58.1079 79.0828C58.035 79.0828 57.8894 79.0828 58.0716 79.0828C57.9623 79.0828 57.8528 79.0828 57.7435 79.0828C57.707 79.0828 57.6707 79.0828 57.6707 79.0828C57.5978 79.0828 57.5614 79.1192 57.4885 79.1192C57.4521 79.1192 57.4155 79.1556 57.3791 79.1556C57.3427 79.1921 57.3063 79.1921 57.2698 79.2285C57.2334 79.2649 57.1606 79.3014 57.1241 79.3378C57.0877 79.3378 57.0876 79.3743 57.0512 79.3743C56.9783 79.4471 56.9054 79.52 56.8325 79.5929C56.8325 79.6293 56.7962 79.6294 56.7962 79.6658C56.7598 79.7022 56.7597 79.7751 56.7233 79.8116V79.848C56.7233 79.8844 56.7233 79.8844 56.7233 79.9208C56.7233 79.9208 56.7233 79.9573 56.7233 79.9938V80.0302C56.7233 80.0302 56.7233 80.0302 56.7233 79.9938C56.7233 80.0302 56.7233 80.0666 56.7233 80.0666C56.7233 80.1031 56.7233 80.1395 56.7233 80.1395C56.7233 80.1759 56.7233 80.1759 56.7233 80.1759C56.7597 80.4675 56.6139 80.7225 56.3224 80.7954C56.0673 80.8683 55.703 80.6861 55.6666 80.431C55.5937 79.9937 55.6301 79.5929 55.8488 79.1921C56.031 78.8641 56.2861 78.5726 56.614 78.354C57.1606 77.9896 57.8528 77.8074 58.5087 77.9896C59.2739 78.1718 59.7477 78.8277 59.857 79.5929C60.0028 80.9776 58.6545 82.4351 57.2334 82.0707C56.9419 81.9979 56.7961 81.6699 56.869 81.4148C56.7961 81.1962 57.1241 81.0505 57.4156 81.1233ZM58.6181 79.7387C58.6181 79.7751 58.6181 79.7751 58.6181 79.8116C58.6181 79.8116 58.6181 79.8115 58.6181 79.7387ZM56.3224 32.4049C56.4317 32.6964 56.3953 32.9879 56.1402 33.1701C55.9216 33.3159 55.5207 33.243 55.375 32.9879C55.0106 32.1498 54.6099 31.3117 54.2455 30.4737C54.1362 30.1821 54.1726 29.8906 54.4277 29.7085C54.6463 29.5627 55.047 29.6356 55.1928 29.8906C55.5572 30.6923 55.958 31.5668 56.3224 32.4049ZM58.0351 32.66C57.9622 32.1134 57.8164 31.6032 57.6342 31.0931C57.5978 30.9838 57.525 30.838 57.4885 30.7287C57.4885 30.6923 57.452 30.6558 57.452 30.6558C57.4156 30.583 57.3792 30.5101 57.3428 30.4372C57.2335 30.1822 57.0877 29.9271 56.9419 29.7085C56.7962 29.4534 56.9055 29.1254 57.1241 28.9432C57.3792 28.7974 57.7436 28.9068 57.8894 29.1254C58.4724 30.1092 58.8731 31.2388 59.0553 32.3684C59.0917 32.66 58.9824 32.9515 58.6909 33.0244C58.4358 33.1337 58.0715 32.9515 58.0351 32.66ZM56.9784 26.1374C56.7233 26.3196 56.3954 26.1739 56.2132 25.9553C56.031 25.7002 56.1767 25.3722 56.3954 25.1901C57.4156 24.5342 58.8002 24.352 59.9298 24.7892C60.2213 24.8986 60.3671 25.1536 60.2942 25.4451C60.2213 25.7002 59.8934 25.9188 59.6384 25.8095C59.529 25.7731 59.3833 25.7366 59.274 25.7002C59.2011 25.7002 59.1282 25.6637 59.0918 25.6637C59.0553 25.6637 59.0188 25.6637 59.0188 25.6637C58.7638 25.6273 58.5088 25.6273 58.2538 25.6637H58.2173C58.1809 25.6637 58.1808 25.6637 58.1443 25.6637C58.0715 25.6637 57.9986 25.7002 57.9621 25.7002C57.8528 25.7366 57.7436 25.7731 57.6342 25.8095C57.5978 25.8095 57.525 25.846 57.4885 25.8824C57.4885 25.8824 57.3792 25.9188 57.3428 25.9553C57.197 25.9917 57.0877 26.0646 56.9784 26.1374ZM45.573 39.1825C45.7552 39.4011 45.7916 39.7291 45.573 39.9477C45.3908 40.1299 44.99 40.1663 44.8078 39.9477C43.6782 38.5266 41.9292 37.6885 40.1072 37.7249C39.4149 37.7249 39.4149 36.6318 40.1072 36.6318C42.1842 36.5954 44.2248 37.5428 45.573 39.1825ZM186.882 50.2963C186.7 49.6039 186.554 48.9116 186.336 48.2557C185.971 47.0168 185.57 45.7779 185.06 44.5754C184.076 42.3162 182.764 40.2028 180.797 38.6723C179.084 37.3241 177.08 36.486 175.003 35.8301C173.983 35.5022 172.963 35.2471 171.906 34.9556C170.776 34.6641 169.61 34.3361 168.481 34.0446C167.351 33.7895 166.185 33.6438 165.055 33.826C163.78 34.0082 162.65 34.6276 161.521 35.2471C159.079 36.5953 156.638 37.9436 154.306 39.4375C150.006 42.2069 145.961 45.4864 142.901 49.6039C142.864 49.5675 142.828 49.5675 142.791 49.531C142.609 49.3853 142.354 49.3124 142.135 49.4582C141.662 49.7497 140.969 49.8226 140.423 50.0047C139.731 50.2234 139.075 50.4784 138.419 50.7699C137.18 51.353 136.014 52.1546 135.176 53.2478C133.791 55.0333 133.099 57.5475 133.754 59.7338C131.094 59.6974 128.58 60.827 126.467 62.3939C123.88 64.3616 121.912 66.9123 120.199 69.6452C118.377 72.4874 116.847 75.4389 115.062 78.3175C113.677 80.5403 111.49 83.9655 108.43 82.8724C106.936 82.3258 105.624 81.1962 103.984 81.2326C103.11 81.2691 102.308 81.5606 101.725 82.1436C101.106 80.2852 99.7937 78.7184 98.0811 77.6617C95.6397 76.1312 92.7974 76.0584 89.9917 76.0584C88.4612 76.0584 86.9308 76.0219 85.4368 75.7668C84.1615 75.5118 82.8862 75.1474 81.6837 74.6372C79.133 73.5805 76.8009 72.0137 74.6874 70.301C72.1367 68.2969 69.8047 66.0378 67.4727 63.7786C67.3269 63.6328 67.1448 63.5964 66.9626 63.6328C66.6346 58.6771 66.4525 53.685 66.2703 48.7294C66.2703 48.3286 66.2338 47.9277 66.2338 47.5269C69.659 46.6524 73.1206 45.7414 76.5458 44.8669C76.8738 44.794 77.2383 44.6847 77.5662 44.6118C78.0035 44.5025 78.0398 43.9924 77.8212 43.7008C75.1247 40.3485 72.5012 36.9962 69.8412 33.6074C68.4201 31.8219 67.0354 30.0364 65.6143 28.2509C64.3025 26.6112 63.0637 24.8257 61.5332 23.3681C60.5494 22.4207 59.4925 21.6191 58.2901 20.9632C59.0917 20.781 59.9662 20.4895 60.8408 19.9793C63.1728 18.5946 65.5779 12.8373 62.6264 8.8291C57.4157 16.1533 52.715 10.7968 45.2086 14.3678C39.4149 17.1007 39.6336 27.8865 42.1478 33.1701C40.3988 33.0608 38.6132 33.6438 37.3743 34.8827C35.2973 36.9597 35.0423 40.5307 36.8277 42.8628C37.7752 44.1381 39.2691 44.9033 40.836 45.1584C38.7226 50.2234 36.4998 55.2519 34.0949 60.1711C34.022 60.3169 34.0219 60.4262 34.0584 60.5355C13.5434 79.8844 0.826389 105.064 0.0247388 127.911C-0.26677 136.255 2.02897 143.433 6.32873 147.697C10.592 151.924 16.3128 152.907 20.8312 152.907C21.3414 152.907 21.815 152.907 22.2523 152.871C25.4953 152.725 28.7383 152.142 31.8721 151.559C34.1313 151.158 36.4633 150.721 38.7954 150.466C43.2774 149.992 47.7594 150.102 52.2049 150.83C52.9701 150.976 53.7717 151.122 54.537 151.268C56.9419 151.741 59.4561 152.215 61.9704 152.106C65.6507 151.96 68.7844 150.466 70.7157 148.025C72.0275 147.587 73.2664 147.041 74.396 146.276C74.3596 146.348 74.3232 146.458 74.2868 146.531C74.1046 146.895 74.3231 147.332 74.7604 147.369C75.9629 147.405 77.1653 147.515 78.3313 147.624C78.2949 148.098 78.2585 148.608 78.2221 149.081C78.2221 149.3 78.4043 149.555 78.6229 149.592C82.8134 150.43 87.0037 151.122 91.267 151.632C92.7974 151.814 94.3279 151.96 95.8583 152.069C96.2591 152.252 96.6601 152.397 97.0609 152.579C99.0286 153.49 100.923 154.474 102.782 155.604C103.11 155.786 103.438 155.604 103.583 155.276C103.948 154.401 104.312 153.527 104.677 152.652C106.353 152.798 108.029 153.162 109.486 154.11C109.778 154.292 110.215 154.11 110.288 153.782C111.017 150.976 111.782 148.207 112.365 145.365C112.948 142.559 113.349 139.717 113.677 136.874C113.932 134.397 114.114 131.882 114.26 129.405C115.207 127.109 116.118 124.85 117.066 122.554C118.341 119.457 119.616 116.396 120.892 113.299C121.001 113.044 120.782 112.679 120.527 112.643C118.487 112.351 116.41 112.023 114.369 111.659C114.369 111.076 114.333 110.529 114.333 109.946C114.333 109.618 114.078 109.436 113.786 109.4C108.138 108.926 102.49 108.562 96.8422 108.452C95.5304 108.197 94.2185 107.979 92.9068 107.76C90.3196 107.323 87.6961 106.885 85.1089 106.521C84.8174 106.302 84.2344 106.412 84.198 106.922C84.1615 107.505 84.1616 108.051 84.1252 108.634C83.9066 108.634 83.6513 108.634 83.4327 108.671C82.9954 108.707 82.8133 109.145 82.9591 109.473C82.9226 109.545 82.8861 109.618 82.8861 109.691C82.6675 110.967 82.4854 112.242 82.2668 113.517C80.6635 113.408 79.0601 113.444 77.6025 114.137C76.0721 114.829 74.6875 115.849 73.485 117.052C72.2461 118.291 71.2258 119.748 70.3878 121.279C69.7683 122.481 69.1124 123.647 68.3836 124.777C68.2743 124.959 68.165 125.105 68.0557 125.287C67.0719 120.623 63.8288 118.4 61.2781 117.926C59.6748 117.635 58.0715 117.781 56.5411 117.926C55.1928 118.036 53.8811 118.145 52.6058 117.999C50.966 117.817 49.4355 117.198 47.7593 116.542C46.6297 116.104 45.4274 115.631 44.2249 115.303C42.6216 114.902 40.6174 114.72 38.6862 115.485C38.6497 115.376 38.6496 115.303 38.6132 115.193C38.2488 114.027 37.7022 113.116 37.1557 112.242C36.9735 111.95 36.8277 111.695 36.6456 111.404C35.8439 109.983 35.443 108.671 35.5159 107.359C35.6252 105.319 36.682 103.861 37.7387 102.404L37.9209 102.185C38.6497 101.165 40.3259 98.5046 39.7793 95.8446L38.7226 96.0632C39.1963 98.3224 37.7023 100.654 37.0464 101.565L36.8642 101.784C35.7711 103.278 34.5686 104.954 34.4592 107.323C34.3864 108.853 34.7872 110.384 35.7346 111.987C35.9168 112.278 36.0989 112.57 36.2447 112.861C36.7548 113.699 37.265 114.501 37.593 115.558C37.6294 115.704 37.6658 115.849 37.7022 115.995C36.8642 116.469 36.0262 117.161 35.2974 118.145L35.2245 118.254L35.188 118.4C35.0058 119.675 35.6618 120.659 36.3906 120.951C37.0465 121.206 37.7388 120.987 38.176 120.368C38.8319 119.42 39.0141 117.963 38.8683 116.615C40.3259 115.995 42.0385 115.922 43.9333 116.396C45.0629 116.687 46.229 117.161 47.3222 117.598C48.9619 118.254 50.6745 118.91 52.4236 119.129C53.8083 119.311 55.2293 119.165 56.5776 119.056C58.108 118.91 59.5654 118.801 61.023 119.056C63.355 119.493 66.3066 121.607 67.0353 126.161C66.343 127.583 61.9705 137.494 69.8776 147.296C68.165 149.592 65.2499 150.94 61.8612 151.085C59.4562 151.195 57.0147 150.721 54.6827 150.284C53.9175 150.138 53.1158 149.992 52.3142 149.847C47.7958 149.081 43.168 148.972 38.6132 149.446C36.2811 149.701 33.9127 150.138 31.6171 150.539C28.5198 151.085 25.3132 151.669 22.1431 151.814C17.6975 152.033 11.4665 151.341 7.02103 146.931C2.9399 142.923 0.790057 136 1.04513 127.983C1.81034 105.355 14.4545 80.3946 34.8601 61.2279C37.3379 65.1268 41.1276 68.1512 45.4638 69.7909C50.055 71.5036 55.2293 71.4671 59.857 69.7909C62.517 68.8435 64.9583 67.386 67.0353 65.4547C67.1446 65.3454 67.2175 65.2361 67.2175 65.1268C71.0071 68.8071 74.9426 72.5603 79.6796 74.9652C82.0845 76.2041 84.6717 77.0058 87.3682 77.1515C90.2833 77.3337 93.4169 76.8965 96.2227 78.0261C98.5548 78.9735 100.34 80.9047 100.887 83.3461C99.976 84.7308 99.4657 86.3705 99.5022 88.0831C99.5386 88.7754 100.632 88.7754 100.595 88.0831C100.559 86.6984 100.923 85.3502 101.616 84.1842C101.798 84.1478 101.944 84.002 102.016 83.8198C102.308 82.6902 103.438 82.2529 104.494 82.4351C105.915 82.6538 107.045 83.7105 108.43 84.1113C111.381 84.9858 113.677 82.4351 115.207 80.2488C118.815 75.0016 121.147 68.7342 125.957 64.3616C128.325 62.2481 131.313 60.6084 134.556 60.9728C134.993 61.0092 135.176 60.4991 135.03 60.1347C134.046 58.0577 134.775 55.3612 136.269 53.7215C137.107 52.7741 138.2 52.1182 139.366 51.6445C139.949 51.3894 140.532 51.2072 141.115 51.025C141.516 50.9157 141.953 50.8064 142.354 50.6607C146.399 53.9401 150.771 56.8552 155.363 59.333C155.363 59.4059 155.399 59.4788 155.399 59.5152C153.14 62.6854 153.796 66.8394 153.067 70.4832C152.885 71.4306 152.557 72.378 152.083 73.2161C151.537 74.2 150.844 75.0745 150.261 76.0584C149.022 78.0625 148.767 80.2488 148.549 82.5445C148.33 84.7672 147.893 86.9171 147.091 89.0305C146.253 91.1439 145.123 93.1481 143.921 95.0429C141.589 98.7596 139.075 102.403 136.415 105.938C133.463 109.873 130.147 113.59 126.139 116.432C125.556 116.833 126.102 117.781 126.685 117.38C131.24 114.137 134.848 109.91 138.127 105.428C139.767 103.169 141.37 100.837 142.937 98.541C144.54 96.1725 146.107 93.7675 147.31 91.1804C148.549 88.5932 149.277 85.8968 149.569 83.0546C149.715 81.597 149.824 80.1395 150.225 78.7184C150.626 77.3337 151.464 76.1677 152.265 75.0016C152.994 73.9085 153.577 72.7789 153.905 71.54C154.233 70.3375 154.379 69.0986 154.452 67.8597C154.634 65.4912 154.634 62.904 155.836 60.7906C155.982 60.4991 156.237 60.244 156.346 59.9525C159.006 60.0983 161.63 59.9889 164.254 59.6974C166.877 59.4059 169.464 58.9686 172.088 58.75C172.38 58.7136 172.635 58.7136 172.926 58.7136C173.035 58.9322 173.181 59.1508 173.327 59.3695C173.618 59.7703 174.056 60.0983 174.566 59.9525C175.039 59.8068 175.295 59.2966 175.404 58.8229C175.404 58.75 175.44 58.7136 175.44 58.6407H175.477C175.55 58.7864 175.659 58.9322 175.768 59.078C176.315 59.7703 177.299 59.8067 177.845 59.078C177.991 58.8958 178.064 58.6771 178.137 58.4585C178.647 58.3856 179.157 58.2763 179.667 58.1306C180.687 57.8391 181.781 57.3653 182.4 56.4544C183.02 55.5798 182.983 54.4867 182.473 53.5757C182.327 53.2842 182.145 53.0656 181.926 52.847C181.963 52.1546 181.999 51.4623 181.999 50.7699C182.036 50.8064 182.072 50.8793 182.109 50.9157C182.874 51.8267 183.675 53.0292 184.842 53.4664C185.935 53.8672 186.955 53.1749 187.064 52.0089C187.137 51.353 186.991 50.8064 186.882 50.2963ZM119.507 113.59C117.758 117.817 116.045 122.044 114.296 126.271C114.369 124.084 114.369 121.862 114.369 119.675C114.369 117.38 114.333 115.084 114.296 112.789C116.009 113.08 117.758 113.335 119.507 113.59ZM37.1921 119.675C36.9735 120.003 36.7549 119.894 36.682 119.894C36.3541 119.748 36.0626 119.311 36.1355 118.655C36.6092 118.036 37.1557 117.562 37.7387 117.161C37.7752 118.109 37.6294 119.056 37.1921 119.675ZM78.3678 146.494C77.4204 146.421 76.473 146.312 75.5256 146.276C75.7807 145.765 75.9993 145.255 76.2179 144.745C77.2747 143.761 78.1856 142.595 78.7686 141.283C78.6229 143.033 78.4771 144.745 78.3678 146.494ZM102.745 154.329C101.506 153.6 100.195 152.907 98.8828 152.252C100.413 152.361 101.944 152.434 103.474 152.543C103.219 153.126 103 153.746 102.745 154.329ZM85.1454 107.651C86.858 107.906 88.5706 108.161 90.2468 108.452C90.2104 108.452 90.1375 108.452 90.1011 108.452C88.4249 108.489 86.7487 108.525 85.1089 108.598C85.1089 108.27 85.1454 107.942 85.1454 107.651ZM83.7971 109.983C83.7971 109.91 83.7971 109.837 83.7971 109.764C91.4856 109.4 99.2106 109.509 106.936 110.019C109.013 110.165 111.09 110.311 113.167 110.493C113.385 121.68 113.568 133.012 111.454 144.053C110.908 147.004 110.142 149.919 109.377 152.798C107.992 152.033 106.426 151.741 104.895 151.559C102.928 151.377 100.923 151.341 98.9556 151.195C94.6558 150.903 90.3562 150.43 86.0928 149.774C83.8336 149.409 81.5744 149.008 79.3517 148.571C79.5703 145.401 79.8617 142.194 80.1532 139.024C81.7201 139.352 83.2871 139.534 84.854 139.425C85.9471 139.352 88.5706 139.061 87.9875 137.312C87.8053 136.729 87.3316 136.291 86.8944 135.891C86.2749 135.344 85.6191 134.907 84.9267 134.469C84.7081 134.324 84.4896 134.214 84.3074 134.105C84.9997 134.36 85.6555 134.615 86.3478 134.907C87.5138 135.38 88.7163 136.146 90.0281 136.182C91.1213 136.219 92.2146 135.599 92.5061 134.506C92.7976 133.34 92.1052 132.32 91.34 131.518C91.8501 131.409 92.3238 131.226 92.761 130.826C94.838 128.931 91.9229 126.635 90.5382 125.433C88.7527 123.975 86.7852 122.736 84.6718 121.789C83.7972 121.388 82.8862 121.06 82.0116 120.769C82.704 120.003 83.7608 119.675 84.854 119.675C86.7852 119.675 88.5706 120.659 90.429 121.133C91.923 121.534 94.0001 121.68 94.8746 120.149C95.7856 118.582 94.6558 116.724 93.2711 115.922C92.4331 115.449 91.4856 115.157 90.5382 114.902C89.5544 114.61 88.5342 114.392 87.5139 114.21C86.1292 113.955 84.7446 113.736 83.3235 113.59C83.4328 112.388 83.6149 111.185 83.7971 109.983ZM86.8944 137.822C86.8944 137.858 86.8944 137.858 86.8944 137.822V137.822ZM86.9309 137.749C86.9309 137.713 86.9309 137.713 86.9309 137.749V137.749ZM67.2175 128.494C67.3997 128.238 67.5821 127.947 67.7278 127.692C68.5295 126.453 69.3311 125.178 70.0963 123.902C70.7887 122.7 71.3715 121.424 72.1367 120.258C73.0477 118.874 74.1774 117.598 75.5256 116.578C76.6917 115.704 78.0399 114.829 79.4974 114.647C81.1007 114.428 82.7404 114.647 84.3437 114.865C86.202 115.121 88.024 115.412 89.8095 115.922C91.3399 116.323 93.6721 116.833 93.9636 118.692C94.2551 120.659 91.7772 120.441 90.5747 120.113C88.7528 119.639 87.0037 118.728 85.1089 118.619C83.6514 118.546 82.0482 118.91 81.0279 120.04C80.9186 120.186 80.8091 120.331 80.6998 120.477C79.4609 120.149 78.1855 119.894 76.8738 119.785C76.1814 119.712 76.1814 120.805 76.8738 120.878C81.0278 121.315 85.0361 122.882 88.4249 125.323C89.263 125.943 90.0646 126.599 90.7934 127.291C91.3764 127.838 92.6517 128.858 92.0687 129.769C91.6315 130.461 90.8298 130.534 90.0646 130.425C88.4977 129.04 86.7123 127.838 84.854 126.89C82.3397 125.615 79.6431 124.777 76.8738 124.376C76.5822 124.34 76.2908 124.449 76.2179 124.74C76.1451 124.995 76.2908 125.36 76.5823 125.396C81.1007 126.016 85.4369 127.874 88.935 130.826C89.7002 131.482 90.757 132.247 91.1942 133.231C91.4129 133.704 91.4129 134.324 91.012 134.688C90.6477 135.016 90.101 135.052 89.6273 134.98C89.0443 134.907 88.4977 134.615 87.9875 134.397C87.4774 134.142 86.9309 133.923 86.3843 133.704C85.2182 133.231 84.0523 132.793 82.8498 132.392C80.955 131.773 79.0601 131.263 77.0924 130.826C77.056 130.826 77.0196 130.789 76.9832 130.789C76.3637 130.607 75.7442 130.388 75.0883 130.388C75.0519 130.388 74.979 130.388 74.9426 130.388C74.8697 130.388 74.7968 130.352 74.6874 130.352C73.9951 130.243 73.7037 131.299 74.396 131.409C75.1612 131.554 75.9628 131.7 76.728 131.846C77.3111 132.028 77.8941 132.247 78.4407 132.465C80.0805 133.121 81.6838 133.85 83.2142 134.725C84.4167 135.38 85.7284 136.109 86.6029 137.166C86.6394 137.239 86.5666 137.13 86.6759 137.239C86.7123 137.275 86.7487 137.312 86.7487 137.348C86.7851 137.385 86.7852 137.421 86.8216 137.457C86.8216 137.457 86.8216 137.457 86.8581 137.53C86.8581 137.567 86.8579 137.603 86.8944 137.64V137.676C86.8579 137.713 86.858 137.749 86.8216 137.749C86.8216 137.749 86.8216 137.749 86.7851 137.749C86.7123 137.785 86.6758 137.822 86.6029 137.858C86.6029 137.858 86.4571 137.931 86.3478 137.931C86.0927 138.004 85.8013 138.077 85.5098 138.113C81.9388 138.66 78.2949 137.312 74.9426 136.328C74.2502 136.146 73.9588 137.202 74.6511 137.385C75.8536 137.713 77.0561 138.113 78.295 138.441C78.295 138.66 78.2585 138.879 78.2221 139.097C77.9305 140.664 77.056 142.049 76.0357 143.178C74.5782 144.745 72.7926 145.802 70.8614 146.531C64.7397 139.279 66.0515 131.955 67.2175 128.494ZM34.6414 60.9363C34.6779 60.9363 34.6779 60.9363 34.7144 60.9363C34.7508 61.0092 34.8237 61.0821 34.8601 61.155L34.6414 60.9363ZM53.4438 69.9002C48.889 70.0824 44.3706 68.6249 40.7268 65.892C38.6862 64.3616 36.9371 62.4667 35.6253 60.2804C35.5525 60.1347 35.4067 60.0618 35.261 60.0254C37.6295 55.1426 39.8157 50.1869 41.9292 45.1584C42.8766 45.122 43.7875 44.9033 44.6256 44.4296C44.8806 44.2839 44.99 43.9559 44.8442 43.7008C44.6985 43.4458 44.3705 43.3365 44.1155 43.4822C42.0385 44.6483 39.1235 44.0288 37.6659 42.1704C36.2448 40.2756 36.4269 37.2877 38.1031 35.6115C39.7793 33.9353 42.7672 33.7531 44.6621 35.1742C44.9171 35.3564 45.2451 35.32 45.4273 35.0649C45.6095 34.8098 45.5731 34.4819 45.3181 34.2997C45.1723 34.1904 45.0265 34.1175 44.9172 34.0082L45.8282 34.0446C49.6178 31.7125 48.9983 27.9958 49.9821 25.2265C51.4032 21.2547 53.5167 21.3276 56.0674 21.1454C59.8571 22.3114 62.2255 25.6638 64.5576 28.6153C67.2905 32.0405 69.9504 35.5022 72.6833 38.9638C73.9222 40.5307 75.1612 42.0976 76.4001 43.6644C73.7765 44.3568 71.1165 45.0491 68.4929 45.7414C67.4726 45.9965 66.4523 46.2516 65.4321 46.5066C65.2134 46.5795 65.0312 46.7982 65.0312 47.0168C65.2134 51.4623 65.3956 55.9078 65.6143 60.3533C65.6871 61.7744 65.7601 63.1955 65.8694 64.6531C65.8694 64.7259 65.9059 64.7988 65.9059 64.8352C62.4806 67.8961 58.0351 69.6816 53.4438 69.9002ZM174.274 58.6407C174.274 58.6407 174.274 58.6771 174.274 58.6407C174.238 58.6042 174.201 58.5678 174.201 58.5314C174.238 58.5314 174.274 58.5314 174.311 58.5314C174.311 58.5678 174.311 58.6042 174.274 58.6407ZM185.825 52.2275C185.133 52.9563 183.785 51.0615 183.42 50.6607C181.708 48.6565 180.068 46.5431 178.574 44.3568C178.392 44.0653 178.173 43.7737 177.991 43.5187C177.809 43.2271 177.663 43.1543 177.335 43.045C176.716 42.7899 176.096 42.5713 175.477 42.3891C174.311 42.0611 173.108 41.8789 171.942 42.0611C169.61 42.4619 168.226 44.3203 167.934 46.5795C167.752 48.1464 167.606 50.2962 169.063 51.353C170.011 52.0453 171.286 52.0089 172.379 52.0453C173.764 52.1182 175.149 52.191 176.497 52.2639C176.861 52.3004 177.262 52.3004 177.663 52.3004C178.21 52.3368 178.793 52.4461 179.339 52.5555C180.396 52.8105 181.635 53.7215 181.453 54.9604C181.307 56.1264 179.849 56.6366 178.866 56.8552C177.663 57.1103 176.424 57.2196 175.185 57.2925C173.801 57.4018 172.38 57.4382 170.995 57.6569C170.958 57.6569 170.958 57.6568 170.922 57.6933C169.829 57.8026 168.699 57.9119 167.606 58.0941C164.946 58.4585 162.286 58.8229 159.589 58.8593C158.496 58.8958 157.403 58.8229 156.31 58.7864C156.237 58.6043 156.128 58.4585 155.873 58.3492C154.561 57.6569 153.249 56.8917 151.974 56.1265C149.423 54.5596 146.909 52.847 144.54 51.025C144.249 50.8064 143.994 50.5878 143.739 50.3691C146.216 47.0532 149.35 44.2474 152.739 41.8789C154.889 40.3849 157.112 39.0367 159.407 37.7249C160.537 37.0691 161.703 36.4496 162.833 35.8301C163.816 35.32 164.873 34.9192 166.003 34.8827C167.132 34.8463 168.189 35.1014 169.282 35.3929C170.302 35.6844 171.286 35.9394 172.307 36.1945C174.274 36.7046 176.278 37.2512 178.1 38.1986C179.922 39.146 181.489 40.4942 182.619 42.2433C184.003 44.3567 184.841 46.7253 185.461 49.1302C185.607 49.7132 185.752 50.2963 185.898 50.8793C185.971 51.2801 186.153 51.936 185.825 52.2275ZM176.533 46.1058C175.987 45.4499 175.112 45.0491 174.311 44.7211C173.108 44.211 171.869 43.8466 170.557 43.7008C172.379 42.3891 175.076 43.3365 177.044 44.1017C178.246 45.8872 179.521 47.5998 180.87 49.276C180.87 50.1505 180.87 51.025 180.833 51.8995C180.214 51.608 179.521 51.4258 178.829 51.3165C178.283 51.2436 177.772 51.1708 177.226 51.1343C177.153 50.2598 177.153 49.4217 177.153 48.5472C177.226 47.6727 177.153 46.7982 176.533 46.1058ZM174.711 48.1464C173.473 47.6362 172.744 46.4702 172.489 45.1949C173.108 45.3771 173.728 45.5957 174.311 45.8872C175.076 46.2515 175.914 46.6524 176.06 47.5634C176.206 48.4743 176.023 49.4946 176.096 50.4056C176.096 50.6242 176.133 50.8793 176.133 51.0979C176.06 51.0979 175.95 51.0979 175.878 51.0979C175.805 51.0979 175.768 51.0979 175.695 51.1343C175.477 51.1343 175.258 51.0979 175.003 51.0979C174.967 50.2963 174.93 49.4582 174.967 48.6565C175.003 48.4379 174.894 48.2193 174.711 48.1464ZM171.724 48.2921C170.485 47.8184 169.683 46.6524 169.355 45.4135C169.428 45.1949 169.537 44.9398 169.683 44.7576C170.266 44.794 170.813 44.8669 171.396 44.9762C171.541 46.6159 172.452 48.2557 173.91 49.0209C173.91 49.7133 173.91 50.4056 173.946 51.0979C173.436 51.0615 172.926 51.0615 172.416 51.025C172.307 51.025 172.197 51.025 172.052 51.025C172.015 50.3327 172.052 49.6039 172.124 48.9116C172.124 48.5472 171.906 48.365 171.724 48.2921ZM170.958 50.8793C170.339 50.8064 169.756 50.6242 169.392 50.1505C168.845 49.4217 168.881 48.3286 168.954 47.454C168.954 47.3812 168.954 47.3447 168.954 47.2719C169.428 48.0735 170.12 48.7294 170.995 49.1666C170.958 49.7132 170.958 50.2963 170.958 50.8793ZM63.1365 101.82C64.5212 99.9256 65.0313 97.5207 64.6305 95.2251C64.4483 94.2412 64.1203 93.2938 63.6101 92.4193C63.1 91.5083 62.3713 90.816 61.679 90.0144C61.0231 89.2492 60.4035 88.4111 60.2942 87.3543C60.1484 86.2247 60.6951 85.2773 61.3146 84.4028C61.8976 83.6376 62.4441 82.9088 62.6992 81.9614C62.9178 81.1598 62.9178 80.2853 62.7356 79.4472C62.3713 77.771 61.2781 76.1677 59.6384 75.5118C58.9825 75.2567 59.2739 74.2 59.9298 74.4551C61.9704 75.2567 63.3915 77.1515 63.7923 79.265C63.9745 80.1759 63.9745 81.1233 63.7559 82.0343C63.5372 83.0546 62.9907 83.8927 62.3713 84.7308C61.7518 85.5689 61.0594 86.4798 61.3873 87.573C61.6789 88.6297 62.6264 89.4313 63.3187 90.233C66.2338 93.5489 66.6346 98.7232 64.011 102.331C63.6466 102.914 62.6992 102.367 63.1365 101.82ZM62.5899 53.2478C62.7357 53.5029 62.6628 53.8672 62.4077 54.013C60.8409 54.8511 58.6546 54.1952 57.8894 52.5919C57.7801 52.3368 57.8165 52.0089 58.0716 51.8267C58.3266 51.6809 58.6909 51.7538 58.8366 52.0089C58.8731 52.0817 58.9097 52.191 58.9825 52.2639C59.019 52.3004 59.0189 52.3368 59.0553 52.3733C59.0553 52.3733 59.0553 52.4097 59.0918 52.4097C59.2011 52.5554 59.3104 52.6648 59.4562 52.7741C59.4926 52.8105 59.529 52.8105 59.5654 52.847C59.6383 52.8834 59.7112 52.9563 59.7841 52.9927C59.857 53.0291 59.9299 53.0656 60.0027 53.102H60.0392C60.0757 53.102 60.112 53.1385 60.1485 53.1385C60.2213 53.1749 60.3307 53.1749 60.4036 53.2114C60.44 53.2114 60.4764 53.2114 60.5129 53.2478H60.5858C60.7316 53.2478 60.8772 53.2842 61.0594 53.2478C61.0959 53.2478 61.1324 53.2478 61.1689 53.2478C61.1689 53.2478 61.1687 53.2478 61.2052 53.2478C61.2052 53.2478 61.2052 53.2478 61.2416 53.2478C61.3145 53.2478 61.3874 53.2114 61.4603 53.2114C61.5332 53.1749 61.6426 53.1749 61.7154 53.1385C61.7519 53.102 61.7883 53.102 61.8612 53.0656C62.1162 52.9198 62.4442 52.9927 62.5899 53.2478ZM57.4885 97.7393C57.6707 98.7232 58.4358 99.5248 59.4197 99.5613C60.5493 99.6341 61.5696 98.6868 61.8612 97.6665C62.1527 96.6098 61.6424 95.4801 60.6586 95.0064C59.6383 94.5327 58.2902 94.6056 57.4885 95.4802C57.3063 95.6988 57.2699 96.0632 57.4885 96.2454C57.525 96.2818 57.5613 96.3182 57.5978 96.3182C57.4156 96.7919 57.3792 97.2656 57.4885 97.7393ZM58.9825 98.2859C58.9097 98.2495 58.9825 98.2859 58.9825 98.2859V98.2859ZM58.5087 97.1199C58.5087 97.1199 58.5087 97.0834 58.5087 97.047C58.5087 97.0106 58.5087 96.9742 58.5087 96.9377C58.5087 96.9013 58.5452 96.8648 58.5452 96.7919C58.5452 96.7555 58.5817 96.7191 58.5817 96.6826V96.6462C58.6181 96.6097 58.618 96.5733 58.6544 96.5368L58.6909 96.5004C58.6909 96.464 58.7274 96.464 58.7274 96.464C58.7638 96.4276 58.8002 96.3911 58.8366 96.3547L58.8731 96.3182C58.9096 96.2818 58.9824 96.2818 59.0188 96.2454C59.1646 96.1725 59.274 95.9903 59.274 95.8081C59.3104 95.8081 59.3468 95.8081 59.3832 95.8081C59.4197 95.8081 59.4562 95.8081 59.4926 95.8081H59.5291C59.6384 95.8445 59.7112 95.8445 59.8206 95.881C59.857 95.881 59.8934 95.9174 59.9298 95.9174H59.9663C60.0392 95.9538 60.1121 95.9903 60.2214 96.0267C60.2579 96.0632 60.2942 96.0632 60.3307 96.0996C60.4035 96.1725 60.4764 96.2089 60.5129 96.2818C60.5129 96.2818 60.5129 96.2818 60.5493 96.3182C60.5858 96.3547 60.5858 96.3911 60.6223 96.4276C60.6587 96.464 60.6586 96.5004 60.695 96.5368C60.695 96.5368 60.6951 96.5733 60.7315 96.5733C60.7315 96.6098 60.768 96.6826 60.768 96.719C60.768 96.719 60.768 96.7919 60.8045 96.8284C60.8045 96.8648 60.8045 96.9012 60.8045 96.9012C60.8045 96.9741 60.8045 97.0106 60.8045 97.0834C60.8045 97.0834 60.8045 97.0835 60.8045 97.1199C60.8045 97.1199 60.8045 97.1199 60.8045 97.1563C60.8045 97.1928 60.8044 97.2292 60.768 97.2656C60.768 97.3021 60.7315 97.3749 60.7315 97.4114C60.7315 97.4478 60.7315 97.4479 60.695 97.4843C60.6586 97.5572 60.6222 97.6665 60.5493 97.7393C60.5129 97.7758 60.4764 97.8122 60.4764 97.8487C60.4764 97.8851 60.44 97.8851 60.4036 97.9215C60.3307 97.9944 60.2578 98.0673 60.1849 98.1402L60.1485 98.1766C60.112 98.213 60.0392 98.2495 60.0027 98.2859C59.9663 98.3224 59.9299 98.3223 59.8935 98.3588C59.8571 98.3588 59.8206 98.3953 59.8206 98.3953C59.7477 98.4317 59.6383 98.4317 59.5654 98.4681C59.5654 98.4681 59.5656 98.4681 59.5291 98.4681C59.4927 98.4681 59.4197 98.4681 59.3832 98.4681C59.3468 98.4681 59.3469 98.4681 59.3104 98.4681C59.274 98.4681 59.2376 98.4681 59.1647 98.4317C59.1283 98.4317 59.0917 98.3953 59.0553 98.3953H59.0188C58.9824 98.3588 58.946 98.3588 58.9096 98.3223C58.9096 98.3223 58.9096 98.3223 58.8731 98.3223C58.8367 98.2859 58.7274 98.1766 58.7274 98.1766C58.691 98.1402 58.6544 98.1037 58.6544 98.0673C58.618 97.9944 58.5816 97.9216 58.5452 97.8487C58.5452 97.8122 58.5087 97.7758 58.5087 97.7029C58.5087 97.6665 58.4724 97.4478 58.436 97.4114V97.375C58.436 97.3385 58.436 97.3021 58.436 97.2656C58.5088 97.2292 58.5087 97.1563 58.5087 97.1199Z" fill="#3F4254"/>
<path d="M182.618 48.5479L182.363 48.6936C181.853 49.7868 181.379 50.9164 180.869 52.0095C181.926 52.6654 182.691 53.8679 182.545 55.1432C182.327 56.6008 180.942 57.4389 179.63 57.8033C179.12 57.949 178.61 58.0583 178.1 58.1312C176.934 60.6819 175.804 63.2326 174.638 65.7833C174.31 66.5485 173.946 67.3502 174.092 68.1518C174.237 69.1721 175.075 69.9009 175.804 70.5932C179.047 73.7269 181.598 77.553 183.201 81.7799C188.011 74.7836 192.785 67.8239 197.595 60.8277C193.659 55.289 188.849 51.3901 182.618 48.5479Z" fill="#9ED5F0"/>
<path d="M180.796 59.8439C181.197 62.9047 180.833 66.002 179.74 68.9171C179.558 69.4273 180.286 69.8281 180.651 69.4637C183.857 66.0749 188.376 64.0343 193.04 63.8157C193.732 63.7793 193.732 62.6861 193.04 62.7225C188.084 62.9412 183.311 65.0911 179.885 68.6985C180.177 68.8807 180.505 69.0629 180.796 69.2451C181.926 66.2571 182.29 63.014 181.89 59.8803C181.78 59.1515 180.687 59.1516 180.796 59.8439Z" fill="#3F4254"/>
</svg>
