<svg width="223" height="224" viewBox="0 0 223 224" fill="none" xmlns="http://www.w3.org/2000/svg">
<path d="M203.548 82.785L137.153 82.1918C129.52 82.1236 123.263 88.2698 123.179 95.9197L122.666 142.328C122.581 149.978 128.7 156.234 136.333 156.303L202.728 156.896C210.362 156.964 216.618 150.818 216.703 143.168L217.216 96.7599C217.301 89.11 211.181 82.8532 203.548 82.785Z" fill="#4BD657"/>
<path d="M202.724 157.299L136.332 156.706C132.558 156.673 128.955 155.139 126.315 152.442C123.675 149.745 122.214 146.106 122.252 142.324L122.765 95.9161C122.807 92.1318 124.347 88.5159 127.047 85.8639C129.746 83.2118 133.384 81.7409 137.16 81.7747L203.552 82.3678C207.328 82.4016 210.933 83.9372 213.574 86.6369C216.214 89.3367 217.674 92.9794 217.632 96.7636L217.119 143.172C217.073 146.954 215.532 150.566 212.833 153.215C210.133 155.864 206.497 157.333 202.724 157.299ZM137.151 82.5958C133.589 82.564 130.157 83.9516 127.61 86.4535C125.063 88.9554 123.61 92.3667 123.571 95.9367L123.058 142.345C123.022 145.912 124.4 149.346 126.891 151.89C129.382 154.434 132.78 155.88 136.34 155.912L202.732 156.505C206.292 156.537 209.722 155.151 212.269 152.652C214.815 150.153 216.27 146.746 216.313 143.178L216.826 96.7564C216.866 93.1864 215.488 89.7499 212.997 87.2029C210.506 84.656 207.106 83.2073 203.543 83.1755L137.151 82.5958Z" fill="black"/>
<path d="M189.899 100.418C189.899 100.418 184.822 103.758 182.29 108.636C178.997 114.974 183.712 122.511 190.837 122.244L197.106 122.3C202.889 122.352 207.153 116.792 205.51 111.236C204.591 108.133 202.087 105.118 198.032 101.015C198.032 101.015 201.481 97.9244 201.656 94.0345C201.656 94.0345 198.33 91.9836 195.902 93.4744C193.474 94.9652 187.129 90.8501 186.25 92.126C186.237 92.1286 191.766 97.0167 189.899 100.418Z" fill="white"/>
<path d="M186.906 91.8788C188.466 91.8928 192.048 93.7844 194.454 93.8059C194.955 93.8324 195.454 93.7185 195.895 93.477C196.528 93.1002 197.254 92.9116 197.99 92.9333C199.885 92.9502 201.648 94.0424 201.648 94.0424C201.474 97.9324 198.024 101.023 198.024 101.023C202.079 105.126 204.583 108.141 205.502 111.244C207.143 116.797 202.882 122.36 197.098 122.308L190.829 122.252C190.676 122.251 190.525 122.249 190.375 122.248C183.509 122.187 179.05 114.835 182.282 108.633C184.822 103.755 189.891 100.415 189.891 100.415C191.763 97.014 186.224 92.1257 186.224 92.1257C186.306 92.0317 186.41 91.9596 186.526 91.916C186.643 91.8724 186.769 91.8587 186.892 91.876L186.906 91.8788ZM186.901 91.0687C186.141 91.0619 185.754 91.3895 185.552 91.6649C185.436 91.8286 185.384 92.0296 185.408 92.2289C185.432 92.4281 185.529 92.6112 185.68 92.7425C187.052 93.9551 190.294 97.5499 189.25 99.8766C188.287 100.543 183.907 103.737 181.542 108.272C180.741 109.805 180.345 111.517 180.392 113.245C180.439 114.973 180.927 116.66 181.81 118.143C182.692 119.627 183.94 120.858 185.433 121.72C186.927 122.582 188.617 123.045 190.342 123.066C190.497 123.067 190.656 123.069 190.811 123.07L197.065 123.126C198.55 123.146 200.02 122.812 201.354 122.153C202.687 121.493 203.846 120.527 204.736 119.333C205.626 118.165 206.227 116.803 206.49 115.359C206.753 113.915 206.67 112.429 206.248 111.025C205.314 107.865 202.826 104.826 199.135 101.036C200.193 99.9017 202.287 97.2695 202.435 94.0871C202.441 93.9435 202.409 93.8009 202.342 93.674C202.275 93.5471 202.175 93.4404 202.053 93.3652C201.973 93.316 200.074 92.1606 197.98 92.1419C197.094 92.1183 196.219 92.3475 195.456 92.8029C195.144 92.9643 194.794 93.0375 194.444 93.0146C193.241 93.0038 191.604 92.4509 190.16 91.9375C188.851 91.4844 187.723 91.0949 186.896 91.0875L186.901 91.0687Z" fill="black"/>
<path d="M194.344 101.521C194.281 101.521 194.22 101.505 194.164 101.477C194.109 101.448 194.06 101.407 194.023 101.357C193.987 101.306 193.962 101.248 193.951 101.186C193.941 101.124 193.945 101.061 193.963 101.001C194.606 98.8551 192.131 96.5377 192.101 96.5159C192.029 96.4422 191.989 96.3437 191.987 96.2405C191.985 96.1373 192.023 96.0374 192.093 95.9612C192.162 95.8851 192.258 95.8384 192.361 95.8309C192.464 95.8235 192.565 95.8557 192.645 95.921C192.762 96.0297 195.519 98.6214 194.736 101.232C194.711 101.316 194.66 101.39 194.589 101.442C194.518 101.495 194.432 101.522 194.344 101.521Z" fill="#1D1D1B"/>
<path d="M195.881 101.586C195.781 101.582 195.685 101.541 195.614 101.47C195.54 101.394 195.498 101.291 195.5 101.184C195.501 101.077 195.544 100.975 195.62 100.9C196.833 99.6606 196.558 96.7909 196.555 96.7613C196.55 96.7083 196.555 96.6547 196.571 96.6037C196.586 96.5526 196.611 96.5051 196.645 96.4638C196.679 96.4226 196.72 96.3883 196.767 96.3631C196.814 96.3379 196.865 96.3222 196.918 96.3169C196.971 96.3115 197.025 96.3167 197.075 96.332C197.126 96.3474 197.174 96.3727 197.215 96.4064C197.256 96.4401 197.29 96.4816 197.315 96.5286C197.34 96.5755 197.356 96.627 197.361 96.68C197.373 96.8119 197.678 99.9535 196.202 101.465C196.161 101.508 196.111 101.54 196.055 101.561C196 101.582 195.94 101.591 195.881 101.586Z" fill="#1D1D1B"/>
<path d="M197.126 108.424C196.417 108.441 195.743 108.739 195.251 109.252C194.76 109.765 194.49 110.452 194.501 111.162L194.5 111.254C194.471 110.553 194.169 109.891 193.66 109.411C193.151 108.93 192.475 108.668 191.775 108.68C190.297 108.71 188.999 109.945 189.149 111.419C189.428 114.138 192.8 116.518 194.107 117.346C194.257 117.44 194.433 117.486 194.61 117.476C194.788 117.466 194.957 117.401 195.096 117.29C196.389 116.251 199.896 113.238 199.853 111.051C199.838 110.34 199.543 109.665 199.032 109.173C198.521 108.68 197.836 108.411 197.126 108.424Z" fill="#07ACEE"/>
<path d="M194.547 117.883C194.316 117.881 194.089 117.814 193.894 117.689C192.443 116.774 189.042 114.331 188.749 111.451C188.712 111.07 188.754 110.685 188.875 110.322C188.995 109.959 189.189 109.624 189.446 109.341C189.739 109.011 190.096 108.745 190.496 108.56C190.895 108.375 191.329 108.275 191.769 108.266C191.73 108.667 191.839 109.069 192.076 109.394C192.312 109.719 192.66 109.946 193.053 110.032C193.446 110.117 193.857 110.055 194.208 109.858C194.559 109.66 194.825 109.34 194.958 108.959C195.238 108.666 195.573 108.431 195.943 108.268C196.314 108.105 196.713 108.017 197.117 108.009C197.933 107.993 198.722 108.303 199.31 108.869C199.898 109.436 200.238 110.213 200.254 111.031C200.298 113.366 196.837 116.385 195.346 117.594C195.121 117.78 194.839 117.882 194.547 117.883ZM191.851 109.082L191.784 109.082C191.457 109.089 191.134 109.164 190.836 109.3C190.538 109.436 190.271 109.631 190.05 109.874C189.868 110.074 189.73 110.311 189.644 110.568C189.558 110.825 189.526 111.097 189.55 111.366C189.814 113.956 193.272 116.329 194.323 116.995C194.403 117.045 194.495 117.068 194.589 117.063C194.682 117.057 194.771 117.023 194.845 116.965C195.929 116.089 199.49 113.081 199.45 111.048C199.439 110.444 199.189 109.87 198.754 109.452C198.32 109.033 197.738 108.805 197.135 108.817C196.532 108.83 195.958 109.083 195.539 109.519C195.121 109.956 194.893 110.54 194.904 111.145L194.903 111.236L194.097 111.259C194.07 110.677 193.822 110.128 193.405 109.724C192.988 109.319 192.432 109.09 191.851 109.082Z" fill="#1D1D1B"/>
<path d="M195.767 101.97C192.842 101.943 189.298 100.734 189.1 100.667C188.998 100.632 188.915 100.558 188.868 100.462C188.821 100.365 188.815 100.254 188.85 100.152C188.885 100.051 188.958 99.967 189.055 99.9199C189.151 99.8727 189.262 99.8658 189.363 99.9007C189.425 99.9229 195.525 101.997 197.976 100.79C198.072 100.743 198.183 100.736 198.285 100.771C198.386 100.806 198.469 100.88 198.516 100.977C198.562 101.074 198.569 101.185 198.534 101.287C198.499 101.388 198.425 101.472 198.328 101.519C197.519 101.86 196.643 102.014 195.767 101.97Z" fill="black"/>
<path d="M189.209 130.985C189.102 130.984 189 130.94 188.925 130.863C188.85 130.786 188.809 130.682 188.81 130.574C188.811 130.466 188.855 130.362 188.931 130.287C189.008 130.211 189.111 130.169 189.217 130.17L208.16 129.999C208.213 129.998 208.265 130.008 208.314 130.028C208.364 130.048 208.409 130.077 208.447 130.115C208.485 130.152 208.515 130.197 208.535 130.246C208.556 130.296 208.566 130.349 208.567 130.402C208.567 130.51 208.525 130.614 208.45 130.691C208.376 130.768 208.274 130.813 208.167 130.814L189.225 130.982L189.209 130.985Z" fill="black"/>
<path d="M208.038 142.172L192.594 142.027C192.487 142.026 192.385 141.982 192.31 141.905C192.236 141.828 192.194 141.723 192.195 141.615C192.197 141.507 192.24 141.404 192.317 141.328C192.393 141.252 192.496 141.21 192.603 141.211L208.046 141.355C208.153 141.356 208.255 141.4 208.33 141.478C208.405 141.555 208.447 141.659 208.445 141.767C208.444 141.875 208.401 141.979 208.324 142.055C208.248 142.131 208.145 142.173 208.038 142.172Z" fill="black"/>
<path d="M221.214 134.739C221.11 134.738 221.01 134.694 220.937 134.618C220.864 134.542 220.823 134.439 220.825 134.332L221.196 98.7812C221.198 98.6743 221.24 98.5721 221.315 98.4972C221.39 98.4222 221.49 98.3807 221.595 98.3817C221.699 98.3826 221.799 98.4261 221.872 98.5025C221.945 98.5788 221.986 98.6817 221.984 98.7887L221.613 134.339C221.611 134.446 221.569 134.548 221.494 134.623C221.42 134.698 221.319 134.74 221.214 134.739Z" fill="black"/>
<path d="M202.765 86.1566L170.421 85.8533C170.243 85.8516 170.073 85.7782 169.948 85.6492C169.823 85.5201 169.754 85.346 169.756 85.1652C169.758 84.9844 169.831 84.8117 169.958 84.685C170.085 84.5583 170.257 84.488 170.435 84.4897L202.779 84.793C202.958 84.7947 203.128 84.8682 203.253 84.9972C203.377 85.1263 203.446 85.3003 203.444 85.4811C203.442 85.662 203.37 85.8347 203.243 85.9614C203.115 86.0881 202.943 86.1583 202.765 86.1566Z" fill="white"/>
<path d="M54.1393 121.968L40.596 83.0792C39.869 80.9915 39.5764 78.7753 39.7365 76.5674C39.8966 74.3595 40.5059 72.2065 41.5268 70.2413C43.4591 66.52 46.7516 63.69 50.7133 62.3453L93.3992 47.8616C93.7149 47.7527 94.049 47.7078 94.3818 47.7296C94.7147 47.7514 95.0398 47.8394 95.338 47.9886C95.6362 48.1378 95.9015 48.3452 96.1186 48.5985C96.3358 48.8519 96.5004 49.1462 96.6027 49.4644L122.722 129.95C122.855 130.359 122.881 130.796 122.798 131.218C122.715 131.641 122.526 132.035 122.248 132.364C121.97 132.693 121.613 132.945 121.211 133.097C120.809 133.248 120.375 133.294 119.951 133.23L56.1449 123.617C55.6921 123.551 55.2661 123.363 54.9128 123.073C54.5594 122.782 54.2919 122.4 54.1393 121.968Z" fill="white"/>
<path d="M94.2276 47.7364C94.7536 47.7409 95.2643 47.9108 95.688 48.2221C96.1117 48.5335 96.427 48.9706 96.5893 49.4718L122.708 129.958C122.831 130.338 122.863 130.741 122.8 131.136C122.737 131.531 122.582 131.905 122.346 132.228C122.111 132.552 121.803 132.814 121.447 132.995C121.091 133.176 120.698 133.269 120.3 133.268C120.178 133.267 120.057 133.257 119.938 133.238L56.1315 123.622C55.6803 123.554 55.2562 123.365 54.9052 123.073C54.5542 122.782 54.2894 122.399 54.1394 121.968L40.5961 83.0787C39.8915 81.0558 39.5948 78.9116 39.723 76.7705C39.8512 74.6293 40.4017 72.5338 41.3428 70.6052C42.2838 68.6767 43.5966 66.9535 45.2052 65.5355C46.8137 64.1176 48.6859 63.033 50.7134 62.3448L93.3992 47.8612C93.6663 47.7713 93.9463 47.7264 94.2277 47.7283L94.2276 47.7364ZM94.237 46.9206C93.8658 46.9172 93.4964 46.9768 93.1447 47.097L50.4592 61.5807C48.3304 62.3027 46.3644 63.4409 44.6754 64.9293C42.9864 66.4177 41.6079 68.2267 40.6198 70.2514C39.6316 72.276 39.0534 74.4761 38.9188 76.724C38.7843 78.9719 39.0959 81.223 39.8358 83.3468L53.3794 122.236C53.5792 122.804 53.9296 123.307 54.3929 123.69C54.8562 124.074 55.415 124.323 56.0097 124.412L119.815 134.039C119.972 134.064 120.131 134.077 120.29 134.078C120.816 134.081 121.335 133.958 121.804 133.72C122.274 133.482 122.68 133.136 122.991 132.709C123.306 132.284 123.513 131.789 123.597 131.267C123.681 130.745 123.637 130.21 123.471 129.709L97.3546 49.2227C97.1401 48.5605 96.7236 47.9832 96.1637 47.5721C95.6039 47.161 94.929 46.9369 94.2342 46.9314L94.237 46.9206Z" fill="black"/>
<path d="M42.9633 73.6236L82.3489 118.659L74.3005 121.558L40.1486 85.7718L42.9633 73.6236Z" fill="#EBEBEB"/>
<path d="M40.3217 69.9778C39.3029 71.9418 38.6952 74.0933 38.5358 76.2998C38.3765 78.5062 38.6691 80.7207 39.3955 82.8067L41.2562 88.1556C42.353 83.4162 50.1291 82.1972 50.1291 82.1972C42.868 72.8061 46.1985 65.3953 47.8745 62.7407C44.631 64.2502 41.9748 66.7954 40.3217 69.9778Z" fill="#07ACEE"/>
<path d="M45.9378 64.7796C44.4838 68.4075 43.6376 74.4459 48.7363 81.6659C46.7902 82.1522 43.1363 83.3718 41.3535 85.9851L40.1545 82.5388C39.0464 79.3573 39.0122 75.8953 40.0573 72.6862C41.1023 69.477 43.1686 66.6989 45.9378 64.7796ZM47.8748 62.7407C44.2313 64.4348 41.3439 67.4293 39.776 71.1396C38.2081 74.85 38.0726 79.0097 39.3957 82.8067L41.2565 88.1556C42.3532 83.4162 50.1294 82.1972 50.1294 82.1972C42.8683 72.8061 46.1987 65.3954 47.8748 62.7407Z" fill="black"/>
<path d="M38.5145 173.647L10.6869 143.376C9.19323 141.75 8.04796 139.835 7.32178 137.746C6.59561 135.658 6.30385 133.442 6.46446 131.233C6.76987 127.051 8.679 123.146 11.7909 120.337L45.3081 90.0777C45.5555 89.8547 45.8445 89.683 46.1581 89.5723C46.4717 89.4616 46.8037 89.4141 47.1353 89.4327C47.4669 89.4514 47.7914 89.5357 48.09 89.6808C48.3886 89.8259 48.6553 90.0289 48.8749 90.2782L104.717 153.71C105.001 154.032 105.198 154.421 105.289 154.842C105.379 155.262 105.361 155.699 105.236 156.112C105.111 156.524 104.882 156.897 104.573 157.196C104.263 157.495 103.882 157.71 103.467 157.819L41.001 174.374C40.5591 174.491 40.0941 174.485 39.6561 174.357C39.218 174.229 38.8233 173.984 38.5145 173.647Z" fill="white"/>
<path d="M47.0158 89.4248C47.3699 89.4256 47.7197 89.5016 48.0421 89.6478C48.3644 89.794 48.652 90.0072 48.8859 90.2732L104.728 153.704C105.012 154.026 105.209 154.416 105.299 154.837C105.39 155.257 105.372 155.694 105.247 156.106C105.122 156.518 104.893 156.892 104.584 157.191C104.274 157.49 103.893 157.704 103.478 157.814L41.012 174.369C40.7955 174.428 40.5718 174.457 40.3475 174.455C40.0044 174.451 39.666 174.378 39.3527 174.238C39.0393 174.099 38.7578 173.897 38.5255 173.645L10.6873 143.376C9.23909 141.801 8.11776 139.952 7.38865 137.938C6.65953 135.923 6.33702 133.782 6.43971 131.639C6.54241 129.496 7.06832 127.393 7.98695 125.453C8.90557 123.513 10.1987 121.774 11.7912 120.337L45.3084 90.078C45.7769 89.6551 46.3863 89.4239 47.0157 89.4302L47.0158 89.4248ZM47.0249 88.6223C46.1937 88.6142 45.389 88.9197 44.7703 89.4782L11.2529 119.737C9.58157 121.247 8.22472 123.073 7.26076 125.109C6.2968 127.146 5.74502 129.354 5.63736 131.603C5.5297 133.853 5.8683 136.101 6.63358 138.216C7.39886 140.331 8.57541 142.272 10.0954 143.925L37.9228 174.197C38.2292 174.53 38.6007 174.797 39.0142 174.982C39.4277 175.166 39.8746 175.263 40.3275 175.268C40.6241 175.27 40.92 175.233 41.207 175.157L103.67 158.602C104.219 158.457 104.721 158.173 105.13 157.778C105.539 157.383 105.84 156.89 106.006 156.346C106.172 155.802 106.195 155.225 106.076 154.669C105.956 154.114 105.697 153.599 105.322 153.174L49.4802 89.7423C49.1721 89.394 48.7945 89.1144 48.3716 88.9215C47.9488 88.7286 47.4899 88.6267 47.0249 88.6223Z" fill="black"/>
<path d="M5.28702 131.4C5.12666 133.606 5.418 135.821 6.14313 137.908C6.86825 139.994 8.01187 141.908 9.50341 143.532L13.3279 147.696C12.4628 142.912 19.1317 138.699 19.1317 138.699C8.73881 132.98 8.88003 124.857 9.37401 121.756C6.9871 124.432 5.5497 127.823 5.28702 131.4Z" fill="#07ACEE"/>
<path d="M8.38656 124.399C8.4841 128.301 10.0876 134.176 17.6321 138.77C16.036 139.989 13.1587 142.56 12.5494 145.669L10.0836 142.983C7.8086 140.507 6.4101 137.347 6.10345 133.989C5.7968 130.631 6.59898 127.263 8.38653 124.401L8.38656 124.399ZM9.36339 121.759C6.68192 124.763 5.2093 128.658 5.23321 132.684C5.25713 136.711 6.77592 140.58 9.49279 143.535L13.3173 147.699C12.4522 142.915 19.1211 138.702 19.1211 138.702C8.72819 132.983 8.86941 124.86 9.36339 121.759Z" fill="black"/>
<path d="M28.0957 134.129L23.1763 138.307C21.9477 139.35 21.795 141.19 22.8353 142.415L27.0004 147.322C28.0407 148.547 29.8801 148.695 31.1087 147.651L36.0281 143.473C37.2568 142.429 37.4094 140.59 36.3691 139.364L32.204 134.458C31.1637 133.233 29.3244 133.085 28.0957 134.129Z" fill="#07ACEE"/>
<path d="M29.2243 148.878C29.1437 148.878 29.0631 148.877 28.9825 148.876C28.549 148.842 28.127 148.722 27.7403 148.523C27.3537 148.324 27.0103 148.05 26.7298 147.718L22.5706 142.806C22.0041 142.134 21.727 141.264 21.7999 140.386C21.8729 139.508 22.29 138.693 22.9598 138.121L27.8702 133.936C28.2023 133.653 28.5864 133.439 29.0009 133.305C29.4154 133.17 29.8522 133.119 30.2858 133.154C30.7195 133.189 31.1417 133.31 31.5286 133.508C31.9154 133.707 32.2591 133.981 32.5401 134.313L36.7075 139.217C36.9892 139.549 37.2026 139.934 37.3357 140.349C37.4687 140.764 37.5186 141.202 37.4827 141.637C37.4468 142.072 37.3259 142.496 37.1265 142.885C36.9272 143.273 36.6534 143.619 36.321 143.902L31.4109 148.084C30.8022 148.607 30.0245 148.889 29.2243 148.878ZM30.0366 133.944C29.4348 133.939 28.8507 134.152 28.3921 134.544L23.4791 138.726C22.9725 139.16 22.6573 139.776 22.6024 140.441C22.5475 141.105 22.7572 141.764 23.1861 142.273L27.3427 147.185C27.5551 147.437 27.8153 147.644 28.1081 147.795C28.401 147.946 28.7205 148.037 29.049 148.064C29.3774 148.09 29.7081 148.052 30.022 147.95C30.3359 147.848 30.6267 147.685 30.8781 147.471L35.7884 143.286C36.0412 143.073 36.2499 142.813 36.4023 142.519C36.5548 142.226 36.6479 141.906 36.6766 141.576C36.7053 141.247 36.6689 140.916 36.5695 140.601C36.4701 140.286 36.3097 139.995 36.0974 139.742L31.9382 134.828C31.726 134.576 31.466 134.369 31.1733 134.218C30.8805 134.068 30.5609 133.977 30.2327 133.951L30.0366 133.944Z" fill="black"/>
<path d="M44.608 101.866L18.7411 123.835C17.5285 124.865 17.3777 126.681 18.4044 127.89L18.4062 127.892C19.4329 129.102 21.2482 129.247 22.4609 128.217L48.3278 106.248C49.5404 105.218 49.6912 103.403 48.6645 102.193L48.6627 102.191C47.636 100.982 45.8207 100.836 44.608 101.866Z" fill="#07ACEE"/>
<path d="M20.6028 129.457C19.9342 129.452 19.2836 129.242 18.7386 128.855C18.1936 128.468 17.7801 127.923 17.5536 127.292C17.327 126.662 17.2983 125.977 17.4711 125.329C17.644 124.681 18.0103 124.1 18.5208 123.666L44.3747 101.642C45.039 101.077 45.8987 100.799 46.7652 100.869C47.6318 100.938 48.4344 101.35 48.9972 102.013C49.559 102.677 49.8342 103.539 49.7623 104.408C49.6904 105.278 49.2775 106.084 48.614 106.65L22.7571 128.676C22.1555 129.188 21.3906 129.465 20.6028 129.457ZM46.5226 101.674C45.9304 101.67 45.356 101.88 44.9046 102.266L19.0478 124.29C18.7886 124.497 18.5735 124.755 18.4153 125.047C18.257 125.34 18.1589 125.661 18.1265 125.992C18.0941 126.322 18.1283 126.656 18.227 126.973C18.3256 127.29 18.4866 127.584 18.7007 127.837C18.9148 128.09 19.1776 128.297 19.4734 128.446C19.7691 128.595 20.0917 128.683 20.4223 128.705C20.7529 128.726 21.0846 128.681 21.3978 128.572C21.7111 128.463 21.9995 128.291 22.2459 128.068L48.0999 106.045C48.4851 105.718 48.7617 105.281 48.8928 104.792C49.0239 104.304 49.0032 103.787 48.8334 103.312C48.6636 102.836 48.3528 102.425 47.9427 102.132C47.5325 101.839 47.0426 101.679 46.5386 101.674L46.5226 101.674Z" fill="black"/>
<path d="M39.0037 133.288C38.9463 133.288 38.8895 133.275 38.8374 133.251C38.7853 133.227 38.7391 133.191 38.7019 133.148C38.6672 133.107 38.6407 133.061 38.6243 133.01C38.6078 132.959 38.6018 132.906 38.6062 132.853C38.6105 132.8 38.6254 132.748 38.6499 132.701C38.6743 132.653 38.7077 132.611 38.7486 132.577L59.8306 114.618C59.8709 114.583 59.9176 114.556 59.9681 114.54C60.0186 114.523 60.0719 114.516 60.1249 114.52C60.178 114.523 60.2298 114.537 60.2774 114.561C60.3249 114.585 60.3673 114.618 60.4021 114.658C60.4369 114.698 60.4635 114.745 60.4803 114.796C60.497 114.846 60.5036 114.9 60.4997 114.953C60.4959 115.006 60.4817 115.058 60.4578 115.106C60.434 115.154 60.4009 115.196 60.3607 115.231L39.276 133.193C39.1998 133.257 39.1029 133.291 39.0037 133.288Z" fill="black"/>
<path d="M51.299 147.768C51.2414 147.768 51.1845 147.755 51.1324 147.73C51.0803 147.706 51.0343 147.67 50.9972 147.626C50.9629 147.585 50.9369 147.539 50.9207 147.488C50.9044 147.437 50.8982 147.384 50.9025 147.331C50.9069 147.278 50.9217 147.226 50.946 147.179C50.9702 147.132 51.0036 147.09 51.0441 147.055L72.1288 129.096C72.2105 129.026 72.3165 128.99 72.4239 128.998C72.5314 129.006 72.6313 129.056 72.7016 129.138C72.7719 129.219 72.807 129.326 72.7989 129.434C72.7909 129.541 72.7405 129.642 72.6589 129.712L51.5742 147.671C51.4983 147.738 51.3997 147.773 51.299 147.768Z" fill="black"/>
<path d="M87.8813 59.2348L55.6239 69.7779C54.1117 70.2722 53.2839 71.8946 53.7751 73.4018L53.7759 73.4043C54.2671 74.9115 55.8912 75.7326 57.4034 75.2383L89.6608 64.6952C91.173 64.2009 92.0008 62.5784 91.5096 61.0713L91.5088 61.0687C91.0176 59.5616 89.3935 58.7405 87.8813 59.2348Z" fill="#07ACEE"/>
<path d="M56.4885 75.7443C55.7113 75.7355 54.963 75.4503 54.3771 74.9394C53.7911 74.4286 53.4054 73.7251 53.2884 72.9543C53.1715 72.1834 53.3309 71.3952 53.7384 70.7297C54.1459 70.0643 54.775 69.5648 55.5137 69.3201L87.7569 58.7196C88.5846 58.4474 89.4852 58.5161 90.2605 58.9104C91.0359 59.3048 91.6223 59.9926 91.8911 60.8224C92.16 61.6523 92.0891 62.5563 91.694 63.3355C91.2988 64.1147 90.6117 64.7054 89.784 64.9775L57.5437 75.5808C57.2028 75.6919 56.8465 75.7471 56.4885 75.7443ZM88.8003 59.3624C88.5306 59.3598 88.2622 59.4022 88.0061 59.4877L55.7629 70.0882C55.1384 70.2938 54.6203 70.7397 54.3223 71.3279C54.0243 71.916 53.9708 72.5982 54.1739 73.2243C54.377 73.8505 54.82 74.3693 55.4052 74.6667C55.9904 74.9641 56.67 75.0157 57.2945 74.81L89.5348 64.2095C90.1023 64.0327 90.5885 63.6574 90.9044 63.1519C91.2203 62.6464 91.3449 62.0444 91.256 61.4555C91.167 60.8666 90.87 60.3299 90.4193 59.9432C89.9686 59.5566 89.3942 59.3457 88.8004 59.3489L88.8003 59.3624Z" fill="black"/>
<path d="M58.5686 90.0958C58.4847 90.0952 58.4031 90.0686 58.3349 90.0198C58.2667 89.9709 58.2151 89.902 58.1873 89.8226C58.171 89.7719 58.165 89.7186 58.1694 89.6655C58.1737 89.6124 58.1883 89.5607 58.2126 89.5132C58.2368 89.4658 58.2701 89.4236 58.3106 89.3891C58.3511 89.3546 58.3979 89.3284 58.4485 89.3121L97.1521 76.5757C97.2538 76.5408 97.3649 76.5478 97.4611 76.5951C97.5573 76.6425 97.6308 76.7265 97.6653 76.8284C97.6997 76.9303 97.6924 77.042 97.6449 77.1388C97.5974 77.2355 97.5137 77.3095 97.4121 77.3444L58.7058 90.0808C58.6612 90.0935 58.6149 90.0985 58.5686 90.0958Z" fill="black"/>
<path d="M60.8989 96.4431C60.8035 96.4421 60.7117 96.4071 60.6397 96.3443C60.5677 96.2816 60.5204 96.1952 60.506 96.1006C60.4916 96.0059 60.5111 95.909 60.5611 95.8272C60.6111 95.7455 60.6884 95.6841 60.7791 95.654L99.1345 83.0307C99.2361 82.9957 99.3472 83.0027 99.4434 83.0501C99.5397 83.0975 99.6131 83.1814 99.6476 83.2834C99.6821 83.3853 99.6747 83.497 99.6273 83.5938C99.5798 83.6905 99.4961 83.7645 99.3945 83.7994L61.039 96.4228C60.9938 96.4373 60.9464 96.4442 60.8989 96.4431Z" fill="black"/>
<path d="M83.8306 98.0029C83.7352 98.0019 83.6434 97.9669 83.5714 97.9041C83.4995 97.8414 83.4519 97.7551 83.4375 97.6604C83.4231 97.5657 83.4426 97.4689 83.4925 97.3871C83.5425 97.3054 83.6198 97.244 83.7105 97.2139L103.481 90.7084C103.532 90.6911 103.585 90.6839 103.638 90.6873C103.691 90.6906 103.743 90.7044 103.79 90.7279C103.838 90.7513 103.88 90.784 103.915 90.824C103.951 90.864 103.977 90.9106 103.995 90.9611C104.012 91.0116 104.019 91.065 104.015 91.1182C104.012 91.1715 103.998 91.2235 103.974 91.2714C103.951 91.3193 103.918 91.3621 103.878 91.3974C103.838 91.4327 103.792 91.4597 103.741 91.477L83.9731 97.9825C83.9273 97.9986 83.879 98.0055 83.8306 98.0029Z" fill="black"/>
<path d="M30.803 143.834C30.7611 143.834 30.7195 143.827 30.6797 143.814L26.0092 142.257C25.9139 142.219 25.8369 142.146 25.7938 142.052C25.7508 141.959 25.7448 141.853 25.7774 141.755C25.8101 141.657 25.8787 141.576 25.9693 141.527C26.0598 141.478 26.1655 141.466 26.2646 141.492L30.3307 142.845L29.5707 136.791C29.5581 136.685 29.5879 136.578 29.6537 136.493C29.7195 136.409 29.816 136.353 29.922 136.34C29.9745 136.332 30.0279 136.336 30.079 136.35C30.1301 136.363 30.1779 136.387 30.2198 136.42C30.2616 136.452 30.2967 136.492 30.3228 136.538C30.3489 136.585 30.3654 136.635 30.3718 136.688L31.2081 143.38C31.2165 143.447 31.2077 143.516 31.1826 143.579C31.1575 143.643 31.1168 143.699 31.0644 143.742C30.9905 143.802 30.8981 143.835 30.803 143.834Z" fill="black"/>
<path d="M38.2389 156.506L42.6834 156.923L42.2107 150.869" fill="#4BD657"/>
<path d="M42.6786 157.327L42.6464 157.327L38.1989 156.912C38.0922 156.902 37.9941 156.85 37.9261 156.767C37.8581 156.684 37.8257 156.577 37.8362 156.47C37.8467 156.363 37.8991 156.265 37.9819 156.196C38.0647 156.128 38.1711 156.095 38.2778 156.105L42.2457 156.476L41.8102 150.9C41.806 150.847 41.8123 150.794 41.8287 150.743C41.8452 150.692 41.8713 150.645 41.9058 150.605C41.9754 150.523 42.0747 150.472 42.1816 150.463C42.2884 150.455 42.3941 150.489 42.4756 150.558C42.5571 150.628 42.6077 150.727 42.616 150.834L43.0836 156.889C43.0878 156.946 43.0804 157.002 43.0618 157.055C43.0431 157.108 43.0135 157.157 42.9752 157.198C42.9369 157.239 42.8907 157.272 42.8391 157.294C42.7876 157.316 42.7321 157.328 42.676 157.327L42.6786 157.327Z" fill="black"/>
<path d="M8.06201 146.312C7.96235 146.31 7.86705 146.271 7.79505 146.202C1.11957 139.836 1.06968 132.725 2.20463 127.878C2.98075 124.631 4.36856 121.562 6.29345 118.836C6.358 118.751 6.45356 118.695 6.55931 118.68C6.66507 118.666 6.77224 118.694 6.85724 118.758C6.94224 118.823 6.9981 118.919 7.01255 119.025C7.02701 119.131 6.99903 119.239 6.93448 119.324C5.08249 121.972 3.74182 124.945 2.98244 128.087C1.41169 134.826 3.21753 140.73 8.34827 145.618C8.38662 145.655 8.41755 145.698 8.43907 145.747C8.4606 145.795 8.4724 145.847 8.47383 145.9C8.47526 145.953 8.46619 146.006 8.4473 146.055C8.42841 146.105 8.39999 146.15 8.36366 146.189C8.32443 146.229 8.2776 146.26 8.22572 146.282C8.17385 146.303 8.118 146.313 8.06201 146.312Z" fill="black"/>
<path d="M68.7636 51.6352C68.6671 51.6347 68.5741 51.5997 68.5013 51.5364C68.4285 51.4731 68.3808 51.3857 68.3669 51.2901C68.353 51.1944 68.3736 51.097 68.4252 51.0153C68.4768 50.9335 68.5561 50.873 68.6484 50.8447L88.2342 44.6032C88.3348 44.5754 88.4423 44.5879 88.5339 44.6378C88.6255 44.6878 88.6941 44.7714 88.7254 44.8711C88.7567 44.9708 88.7482 45.0788 88.7017 45.1724C88.6552 45.2661 88.5742 45.3381 88.4759 45.3733L68.8901 51.6148C68.8495 51.6296 68.8066 51.6365 68.7636 51.6352Z" fill="black"/>
<path d="M162.794 179.811C162.794 179.811 178.028 191.311 189.472 186.901C200.915 182.49 169.977 162.357 162.794 179.811Z" fill="#07ACEE"/>
<path d="M183.501 188.32C173.413 188.23 163.074 180.527 162.552 180.134L162.301 179.946L162.423 179.656C164.673 174.185 169.533 171.675 176.099 172.582C183.66 173.63 191.882 179.165 192.371 183.553C192.503 184.718 192.133 186.307 189.621 187.276C187.664 188.008 185.588 188.363 183.501 188.32ZM163.291 179.672C165.317 181.123 179.026 190.495 189.328 186.521C190.947 185.895 191.711 184.926 191.566 183.645C191.155 180.015 183.737 174.455 175.988 173.384C172.454 172.897 166.18 173.081 163.291 179.672Z" fill="#1D1D1B"/>
<path d="M107.286 91.2164C107.286 91.2164 105.564 101.211 98.6623 98.4239C91.7609 95.6369 77.0744 89.538 71.9076 99.7252C66.7409 109.913 67.6351 112.145 59.6897 111.196C51.7442 110.247 36.0116 122.465 51.6618 138.593C67.3121 154.721 120.154 102.86 120.154 102.86L119.686 96.592L107.286 91.2164Z" fill="#382256"/>
<path d="M59.6245 142.101L59.5843 142.1C56.1723 142.07 53.4168 140.968 51.3657 138.868C42.644 129.882 44.2225 122.724 45.9401 119.258C48.7708 113.542 55.3577 110.264 59.7369 110.793C65.9085 111.538 66.4096 110.46 69.1841 104.476C69.8392 103.063 70.5825 101.462 71.5521 99.5532C76.8231 89.1623 91.4978 95.0995 98.5515 97.9524L98.819 98.0598C100.379 98.6905 101.768 98.6706 102.976 98.0001C105.95 96.3354 106.886 91.2083 106.894 91.1572L106.98 90.6516L120.083 96.3271L120.584 103.024L120.451 103.157C113.275 110.048 105.752 116.568 97.9125 122.69C81.1965 135.639 68.3211 142.178 59.6245 142.101ZM58.8231 111.544C54.7528 111.508 49.1681 114.552 46.6617 119.617C43.8612 125.271 45.7357 131.908 51.9442 138.305C53.8331 140.25 56.407 141.256 59.5933 141.293L59.6308 141.293C79.3882 141.469 117.178 105.183 119.739 102.712L119.301 96.8749L107.58 91.7935C107.258 93.2017 106.132 97.1665 103.363 98.7064C101.941 99.5015 100.31 99.5354 98.5258 98.8086L98.2583 98.7012C91.4291 95.9472 77.2147 90.1891 72.2814 99.9178C71.3173 101.816 70.5798 103.404 69.9274 104.814C67.1501 110.8 66.4042 112.412 59.6422 111.595C59.3706 111.56 59.097 111.54 58.8232 111.536L58.8231 111.544Z" fill="#1D1E1B"/>
<path d="M132.543 104.78C197.357 126.693 162.968 156.731 167.635 216.527L64.7854 217.107C64.7854 217.107 50.6972 148.73 110.544 106.667" fill="#07ACEE"/>
<path d="M64.4588 217.513L64.3923 217.192C64.3566 217.02 60.9001 199.762 64.8303 177.589C67.1392 164.563 71.5013 152.409 77.8024 141.465C85.6782 127.784 96.6168 115.963 110.319 106.336L110.784 107.008C79.9962 128.645 69.2382 157.398 65.6348 177.709C62.0227 198.074 64.6801 214.253 65.1309 216.714L167.199 216.138C165.832 197.949 168.031 182.707 169.971 169.247C172.173 153.979 173.913 141.92 169.582 131.561C164.906 120.414 153.447 112.271 132.423 105.163L132.681 104.399C153.943 111.587 165.546 119.868 170.327 131.245C174.755 141.801 173.001 153.956 170.781 169.349C168.829 182.876 166.619 198.206 168.047 216.498L168.079 216.929L64.4588 217.513Z" fill="#1D1D1B"/>
<path d="M116.021 105.51C116.021 105.51 81.9164 110.163 61.6647 125.442C44.6222 138.3 40.3422 145.03 30.4036 162.446C22.0945 177.008 22.5255 199.978 42.2041 203.73C61.8828 207.483 78.2589 208.72 79.373 197.829L85.399 196.672L85.1561 172.011L81.6293 172.074" fill="#07ACEE"/>
<path d="M63.6111 206.804C57.1288 206.746 49.4562 205.523 42.1266 204.125C35.1186 202.789 29.9492 198.884 27.1748 192.833C23.2912 184.363 24.4504 172.068 30.0537 162.244C40.0744 144.683 44.4082 137.956 61.4236 125.113C81.5262 109.952 115.624 105.143 115.968 105.103L116.075 105.911C115.733 105.959 81.8397 110.719 61.9076 125.766C45.0168 138.507 40.7133 145.192 30.7529 162.648C25.2755 172.256 24.1276 184.252 27.9063 192.498C30.568 198.302 35.5378 202.048 42.2885 203.335C55.5459 205.876 69.9 207.834 75.9711 203.308C77.7556 201.978 78.7397 200.17 78.9863 197.788L79.0163 197.489L85.0044 196.34L84.7696 172.422L81.6483 172.477L81.6358 171.67L85.5654 171.605L85.8216 197.009L79.7581 198.171C79.441 200.615 78.3318 202.559 76.4714 203.958C73.5769 206.093 69.0059 206.852 63.6111 206.804Z" fill="#1D1D1B"/>
<path d="M81.2283 172.451C81.2283 172.451 74.155 181.651 78.9906 197.096L84.9025 196.161L84.6191 172.458L81.2283 172.451Z" fill="#0598C6"/>
<path d="M96.0743 123.47C97.38 123.482 98.4498 122.43 98.4639 121.119C98.4779 119.808 97.4307 118.736 96.125 118.724C94.8192 118.712 93.7494 119.765 93.7354 121.075C93.7214 122.386 94.7685 123.458 96.0743 123.47Z" fill="#51CEF4"/>
<path d="M65.5606 148.811C66.8663 148.823 67.9361 147.771 67.9502 146.46C67.9642 145.149 66.917 144.077 65.6113 144.065C64.3055 144.053 63.2357 145.106 63.2217 146.416C63.2077 147.727 64.2548 148.799 65.5606 148.811Z" fill="#51CEF4"/>
<path d="M102.209 150.052C103.515 150.064 104.585 149.012 104.599 147.701C104.613 146.39 103.566 145.318 102.26 145.306C100.954 145.294 99.8846 146.347 99.8706 147.657C99.8566 148.968 100.904 150.04 102.209 150.052Z" fill="#51CEF4"/>
<path d="M131.705 139.27C133.01 139.282 134.08 138.229 134.094 136.919C134.108 135.608 133.061 134.536 131.755 134.524C130.45 134.512 129.38 135.564 129.366 136.875C129.352 138.186 130.399 139.258 131.705 139.27Z" fill="#51CEF4"/>
<path d="M43.0015 191.134C44.3072 191.146 45.3771 190.094 45.3911 188.783C45.4051 187.473 44.358 186.4 43.0522 186.388C41.7465 186.376 40.6766 187.429 40.6626 188.739C40.6486 190.05 41.6957 191.122 43.0015 191.134Z" fill="#51CEF4"/>
<path d="M62.9546 175.597C64.2604 175.609 65.3305 174.557 65.3445 173.246C65.3585 171.935 64.3111 170.863 63.0053 170.851C61.6996 170.839 60.6298 171.892 60.6157 173.202C60.6017 174.513 61.6489 175.585 62.9546 175.597Z" fill="#51CEF4"/>
<path d="M67.3579 199.248C68.6637 199.26 69.7338 198.207 69.7478 196.896C69.7618 195.586 68.7144 194.513 67.4087 194.501C66.1029 194.489 65.0331 195.542 65.0191 196.853C65.0051 198.163 66.0522 199.235 67.3579 199.248Z" fill="#51CEF4"/>
<path d="M158.335 211.516C159.641 211.528 160.711 210.475 160.725 209.165C160.739 207.854 159.691 206.782 158.386 206.77C157.08 206.758 156.01 207.81 155.996 209.121C155.982 210.432 157.029 211.504 158.335 211.516Z" fill="#51CEF4"/>
<path d="M35.032 173.427L34.6986 172.69C34.8661 172.613 51.5861 165.058 63.7722 164.151C76.1225 163.235 82.166 171.841 82.2269 171.928L81.5604 172.388C81.5048 172.304 75.7022 164.075 63.8308 164.958C51.7819 165.855 35.1969 173.35 35.032 173.427Z" fill="#1D1D1B"/>
<path d="M76.015 143.08C76.015 143.08 68.1743 153.859 67.7044 164.609L76.015 143.08Z" fill="#07ACEE"/>
<path d="M68.1027 164.627L67.2986 164.593C67.7686 153.837 75.6093 142.95 75.6882 142.843L76.3374 143.317C76.2638 143.424 68.5753 154.124 68.1027 164.627Z" fill="#1D1D1B"/>
<path d="M113.692 106.162C113.692 106.162 107.896 113.601 116.785 116.12C123.175 117.931 124.97 113.565 124.97 113.565C124.97 113.565 128.395 117.908 135.15 114.823C139.542 112.82 136.407 106.658 136.407 106.658C126.998 104.181 123.339 104.052 113.692 106.162Z" fill="white"/>
<path d="M119.589 116.961C118.603 116.94 117.624 116.788 116.679 116.509C113.946 115.735 112.262 114.419 111.669 112.597C110.65 109.465 113.265 106.058 113.377 105.914L113.467 105.799L113.61 105.768C123.252 103.655 126.893 103.731 136.51 106.266L136.684 106.314L136.768 106.473C136.842 106.619 138.557 110.043 137.616 112.743C137.426 113.29 137.123 113.79 136.728 114.212C136.332 114.633 135.852 114.967 135.32 115.191C129.664 117.776 126.182 115.284 125.059 114.234C124.463 115.156 122.863 116.99 119.589 116.961ZM113.93 106.525C113.504 107.119 111.645 109.919 112.435 112.348C112.956 113.897 114.443 115.037 116.9 115.732C117.786 115.994 118.704 116.136 119.628 116.155C123.39 116.189 124.543 113.545 124.601 113.411L124.876 112.777L125.3 113.32C125.433 113.486 128.626 117.37 134.998 114.46C135.43 114.28 135.82 114.011 136.141 113.671C136.463 113.33 136.71 112.925 136.866 112.483C137.588 110.409 136.449 107.688 136.136 107.007C126.846 104.571 123.24 104.496 113.93 106.525Z" fill="#1D1E1B"/>
<path d="M116.838 90.9786C116.838 90.9786 117.929 101.412 114.272 106.476C114.272 106.476 125.484 118.243 134.06 106.063C134.06 106.063 126.105 93.7614 127.683 90.2188C129.262 86.6761 116.838 90.9786 116.838 90.9786Z" fill="#FFCDB2"/>
<path d="M124.815 111.992C118.987 111.942 114.191 106.979 113.981 106.759L113.748 106.515L113.947 106.247C117.471 101.37 116.449 91.1338 116.437 91.0287L116.406 90.7108L116.708 90.6057C118.325 90.0436 126.474 87.3302 127.953 88.9502C128.181 89.1998 128.383 89.6511 128.052 90.3913C126.829 93.1321 132.209 102.48 134.398 105.85L134.546 106.081L134.388 106.303C131.918 109.811 128.987 111.718 125.671 111.97C125.384 111.986 125.099 111.995 124.815 111.992ZM114.795 106.43C115.857 107.454 120.492 111.548 125.616 111.159C128.609 110.929 131.275 109.213 133.572 106.056C132.266 104.007 125.766 93.5321 127.312 90.0564C127.433 89.7883 127.446 89.5945 127.354 89.4914C126.558 88.6096 121.074 89.9757 117.264 91.2593C117.423 93.0617 117.961 101.673 114.795 106.43Z" fill="#1D1D1B"/>
<path d="M118.763 64.2132C124.977 64.2668 130.073 59.25 130.144 53.008C130.215 46.766 125.236 41.6624 119.022 41.6088C112.808 41.5552 107.713 46.5719 107.641 52.8139C107.57 59.0559 112.549 64.1596 118.763 64.2132Z" fill="#382256"/>
<path d="M118.737 64.6172C115.844 64.5838 113.069 63.4731 110.951 61.5008C108.834 59.5286 107.525 56.8356 107.279 53.9447C107.086 51.6425 107.577 49.3323 108.691 47.3062C109.806 45.2801 111.493 43.6291 113.54 42.5618C115.587 41.4945 117.902 41.0589 120.192 41.3099C122.482 41.5609 124.645 42.4873 126.407 43.9721C128.168 45.4569 129.45 47.4333 130.09 49.6517C130.73 51.87 130.699 54.2306 130.001 56.4352C129.303 58.6397 127.97 60.5892 126.17 62.0372C124.37 63.4853 122.183 64.3669 119.887 64.5706C119.503 64.605 119.119 64.6205 118.737 64.6172ZM119.036 42.0023C118.682 41.9992 118.325 42.015 117.962 42.0469C115.823 42.2418 113.787 43.0675 112.112 44.4197C110.436 45.772 109.197 47.5903 108.549 49.6453C107.901 51.7003 107.873 53.9 108.47 55.967C109.067 58.034 110.261 59.8757 111.903 61.2599C112.99 62.1807 114.249 62.8751 115.608 63.3029C116.966 63.7306 118.396 63.8831 119.816 63.7515C122.595 63.5048 125.177 62.196 127.026 60.0963C128.875 57.9965 129.85 55.2665 129.75 52.4712C129.649 49.6759 128.48 47.0295 126.486 45.0798C124.491 43.13 121.823 42.0262 119.034 41.9969L119.036 42.0023Z" fill="#1D1E1B"/>
<path d="M130.534 56.4868C125.252 48.7065 112.777 51.5991 109.904 55.5009C102.771 65.1617 94.6126 61.6333 94.053 71.3535C93.7743 76.2338 98.1914 77.6885 97.0089 86.6896C96.4 91.3328 104.685 97.6119 111.616 96.993C118.546 96.3741 134.468 101.365 142.39 92.1657C145.969 88.0088 151.582 75.5474 144.382 66.3878C137.103 57.1198 132.826 59.8596 130.534 56.4868Z" fill="#382256"/>
<path d="M126.311 98.1807C123.607 98.1574 120.943 97.9136 118.577 97.6966C115.813 97.4438 113.431 97.224 111.649 97.3837C106.797 97.8131 101.74 95.0251 99.0858 92.2525C97.268 90.3516 96.3884 88.3511 96.6149 86.6268C97.3002 81.4161 96.0785 78.8119 94.9982 76.5242C94.2485 74.9234 93.538 73.4119 93.6586 71.3176C93.9914 65.6945 96.7898 64.2966 100.344 62.5255C103.212 61.096 106.464 59.4758 109.588 55.2476C111.339 52.8765 115.988 51.1419 120.451 51.1803L120.607 51.1817C125.056 51.2605 128.701 53.064 130.872 56.258C131.664 57.4363 132.734 57.7984 134.224 58.3041C136.717 59.1497 140.131 60.3102 144.702 66.1238C152.074 75.4949 146.414 88.1039 142.702 92.416C138.573 97.2011 132.312 98.2325 126.311 98.1807ZM113.206 96.5218C114.771 96.5353 116.609 96.7047 118.65 96.8919C126.132 97.5786 136.377 98.518 142.087 91.8882C143.895 89.787 146.126 85.6238 147.045 81.0614C147.817 77.1792 147.928 71.5218 144.076 66.6247C139.65 61.001 136.365 59.8846 133.958 59.0693C132.39 58.536 131.152 58.116 130.201 56.7154C128.18 53.7355 124.765 52.0632 120.587 51.9895L120.439 51.9882C115.807 51.9482 111.628 53.8459 110.237 55.7272C107 60.1106 103.51 61.8634 100.704 63.2477C97.2548 64.9658 94.7617 66.2101 94.4637 71.3622C94.3563 73.2465 94.9934 74.5986 95.7299 76.1778C96.8573 78.5709 98.1316 81.2831 97.4168 86.7279C97.2226 88.2048 98.0244 89.965 99.6723 91.692C102.193 94.3315 107 96.9854 111.588 96.5779C112.083 96.5337 112.626 96.5168 113.216 96.5219L113.206 96.5218Z" fill="#1D1E1B"/>
<path d="M125.009 75.9446C119.375 77.429 111.595 75.2851 110.37 77.3862C109.146 79.4873 110.266 82.1786 113.378 82.7108C116.491 83.2431 119.544 83.0034 125.784 82.2122C132.023 81.421 138.074 80.1804 137.21 76.8522C136.347 73.524 133.299 73.7584 125.009 75.9446Z" fill="#FFB49F"/>
<path d="M120.294 59.7235C118.848 68.8313 110.246 73.7129 105.41 74.5945C104.572 77.4084 105.433 81.0257 105.705 84.218C106.706 95.9446 113.801 103.861 124.942 102.094C135.816 100.371 141.025 93.5729 139.793 80.668C139.503 77.6209 139.364 74.5859 138.161 72.0397C128.865 72.8398 120.294 59.7235 120.294 59.7235Z" fill="#FFCDB2"/>
<path d="M121.78 102.74C118.262 102.71 115.082 101.648 112.491 99.6045C108.429 96.4172 105.88 90.9657 105.305 84.2552C105.236 83.4632 105.13 82.6224 105.027 81.8113C104.704 79.2835 104.371 76.6722 105.022 74.4812L105.095 74.2422L105.339 74.1986C110.57 73.245 118.56 68.1025 119.897 59.6614L120.062 58.6292L120.632 59.5009C120.713 59.6255 128.65 71.6082 137.275 71.6826C137.544 71.685 137.842 71.674 138.127 71.6496L138.396 71.625L138.516 71.8764C139.606 74.1739 139.84 76.7789 140.087 79.5376C140.118 79.9012 140.151 80.2649 140.185 80.6286C140.801 87.073 139.806 92.179 137.225 95.8069C134.705 99.3573 130.588 101.607 124.996 102.493C123.932 102.663 122.857 102.746 121.78 102.74ZM105.725 74.9449C105.211 76.9297 105.519 79.3551 105.82 81.7051C105.923 82.527 106.031 83.3758 106.1 84.184C106.654 90.6709 109.098 95.9223 112.982 98.968C116.174 101.477 120.294 102.42 124.873 101.695C135.822 99.9592 140.568 93.0954 139.387 80.7079L139.286 79.6141C139.047 77.0305 138.837 74.5845 137.905 72.4741C137.685 72.4722 137.462 72.4918 137.245 72.4899C129.446 72.4227 122.489 63.5251 120.505 60.7461C118.643 69.3091 110.664 73.9403 105.73 74.9449L105.725 74.9449Z" fill="#1D1D1B"/>
<path d="M123.926 76.7416C117.223 78.5697 107.918 76.1101 106.479 78.6327C105.04 81.1552 106.415 84.3503 110.129 84.9472C113.843 85.5441 117.488 85.2261 124.921 84.2083C132.354 83.1905 139.559 81.6421 138.492 77.6811C137.426 73.7201 133.772 74.038 123.926 76.7416Z" fill="#FFB49F"/>
<path d="M122.747 87.352C122.647 87.3515 122.552 87.3133 122.479 87.2449C122.406 87.1765 122.361 87.0829 122.353 86.9827L121.565 77.7831C121.56 77.7301 121.566 77.6767 121.582 77.626C121.598 77.5752 121.624 77.5281 121.658 77.4873C121.692 77.4465 121.734 77.4129 121.781 77.3883C121.828 77.3637 121.879 77.3487 121.932 77.344C121.984 77.3394 122.037 77.3452 122.088 77.3612C122.138 77.3772 122.185 77.4031 122.225 77.4373C122.266 77.4715 122.299 77.5133 122.324 77.5605C122.348 77.6077 122.363 77.6593 122.367 77.7123L123.153 86.9119C123.157 86.9647 123.152 87.018 123.136 87.0687C123.12 87.1193 123.094 87.1663 123.06 87.207C123.026 87.2476 122.985 87.2812 122.938 87.3057C122.891 87.3302 122.84 87.3451 122.787 87.3497L122.747 87.352Z" fill="black"/>
<path d="M110.822 50.5718C110.75 50.571 110.678 50.5595 110.61 50.5377C110.442 50.4796 110.304 50.357 110.226 50.1968C110.148 50.0366 110.137 49.8518 110.195 49.6831C110.267 49.4657 112.094 44.3423 118.383 43.3619C118.472 43.3445 118.563 43.3453 118.652 43.3641C118.74 43.3829 118.824 43.4194 118.898 43.4714C118.972 43.5235 119.034 43.59 119.082 43.6669C119.13 43.7439 119.161 43.8297 119.175 43.9193C119.188 44.0088 119.184 44.1003 119.162 44.1881C119.139 44.2759 119.099 44.3584 119.044 44.4305C118.989 44.5025 118.92 44.5628 118.842 44.6076C118.763 44.6524 118.676 44.6808 118.586 44.6911C113.12 45.5442 111.527 49.9347 111.463 50.1199C111.417 50.2527 111.33 50.3676 111.215 50.4487C111.1 50.5297 110.962 50.5728 110.822 50.5718Z" fill="white"/>
<path d="M110.24 76.8748C110.156 76.8743 110.075 76.8472 110.007 76.7973C109.964 76.7664 109.928 76.7271 109.9 76.6819C109.872 76.6367 109.854 76.5865 109.846 76.534C109.838 76.4816 109.84 76.428 109.852 76.3765C109.865 76.3249 109.888 76.2762 109.919 76.2335C110.067 76.0327 113.555 71.3575 118.104 72.4677C118.207 72.4932 118.296 72.5591 118.352 72.6508C118.407 72.7425 118.424 72.8525 118.398 72.9566C118.372 73.0607 118.306 73.1503 118.214 73.2058C118.123 73.2613 118.013 73.2782 117.909 73.2526C113.889 72.2711 110.602 76.6679 110.57 76.7107C110.532 76.7626 110.482 76.8047 110.425 76.8332C110.367 76.8618 110.304 76.8761 110.24 76.8748Z" fill="black"/>
<path d="M131.367 73.1244C131.275 73.1232 131.187 73.0911 131.116 73.0331C127.549 70.0741 124.311 71.8931 124.176 71.9809C124.083 72.0352 123.973 72.0504 123.87 72.0231C123.766 71.9959 123.678 71.9285 123.624 71.8357C123.57 71.7429 123.555 71.6324 123.582 71.5284C123.61 71.4244 123.677 71.3355 123.77 71.2812C123.807 71.26 127.619 69.0819 131.63 72.4091C131.695 72.4633 131.741 72.5365 131.762 72.6184C131.783 72.7003 131.778 72.7868 131.747 72.8657C131.717 72.9447 131.663 73.0121 131.592 73.0584C131.521 73.1048 131.438 73.1279 131.354 73.1243L131.367 73.1244Z" fill="black"/>
<path d="M119.595 83.164C119.538 83.1639 119.482 83.1515 119.43 83.1278C119.378 83.104 119.332 83.0695 119.295 83.0264C117.235 80.6544 113.138 82.9172 113.097 82.9385C113.004 82.9913 112.894 83.0049 112.791 82.9761C112.688 82.9473 112.6 82.8786 112.548 82.7851C112.495 82.6916 112.482 82.5809 112.511 82.4774C112.54 82.3739 112.608 82.2861 112.702 82.2332C112.894 82.127 117.413 79.625 119.903 82.492C119.938 82.5322 119.964 82.5788 119.981 82.6293C119.998 82.6798 120.004 82.7331 120.001 82.7862C119.997 82.8393 119.983 82.8912 119.959 82.9389C119.935 82.9865 119.902 83.0289 119.862 83.0638C119.788 83.1298 119.693 83.1656 119.595 83.164Z" fill="black"/>
<path d="M125.289 82.198C125.182 82.1966 125.08 82.1531 125.005 82.0768C124.968 82.0391 124.938 81.9943 124.918 81.945C124.899 81.8958 124.889 81.843 124.889 81.7899C124.89 81.7367 124.901 81.6841 124.922 81.6352C124.943 81.5863 124.973 81.5421 125.011 81.5051C125.047 81.4703 128.494 78.149 132.753 80.0263C132.851 80.0694 132.927 80.1498 132.966 80.2498C133.005 80.3498 133.002 80.4611 132.959 80.5594C132.916 80.6578 132.836 80.7349 132.736 80.774C132.636 80.8131 132.525 80.8108 132.427 80.7678C128.683 79.1161 125.694 81.9589 125.575 82.0819C125.498 82.1568 125.395 82.1985 125.289 82.198Z" fill="black"/>
<path d="M157.314 177.506C151.909 166.726 143.198 149.22 144.606 140.364C146.013 131.507 152.375 130.867 152.375 130.867L152.093 124.076L174.922 117.986L176.106 122.412C176.106 122.412 190.931 121.807 192.698 142.863C194.489 164.225 207.972 192.737 177.609 196.434C168.566 197.537 160.093 183.047 157.314 177.506Z" fill="#07ACEE"/>
<path d="M176.56 196.896C167.044 196.811 158.602 180.972 156.955 177.688C151.647 167.103 142.771 149.388 144.214 140.301C145.455 132.508 150.531 130.848 151.962 130.532L151.695 124.093C151.692 124.001 151.72 123.911 151.774 123.837C151.829 123.763 151.906 123.71 151.995 123.687L174.825 117.594C174.928 117.567 175.037 117.582 175.129 117.636C175.221 117.69 175.288 117.778 175.316 117.881L176.422 122.008C179.102 122.129 181.702 122.954 183.96 124.4C187.621 126.712 192.179 131.785 193.104 142.828C193.476 147.271 194.376 152.128 195.247 156.824C197.456 168.756 199.744 181.081 194.004 188.928C190.801 193.299 185.457 195.885 177.669 196.835C177.301 196.88 176.931 196.9 176.56 196.896ZM157.676 177.323C159.344 180.648 168.146 197.181 177.568 196.033C185.125 195.113 190.285 192.632 193.349 188.451C198.882 180.902 196.63 168.738 194.448 156.978C193.577 152.264 192.675 147.385 192.295 142.902C191.583 134.446 188.567 128.295 183.563 125.113C181.341 123.676 178.766 122.883 176.12 122.821C176.029 122.824 175.94 122.796 175.867 122.742C175.794 122.689 175.742 122.612 175.718 122.524L174.638 118.478L152.508 124.383L152.775 130.843C152.781 130.946 152.746 131.048 152.679 131.126C152.611 131.204 152.516 131.253 152.413 131.263C152.166 131.29 146.343 131.999 145.005 140.421C143.6 149.256 152.409 166.825 157.676 177.323Z" fill="#1D1D1B"/>
<path d="M152.827 131.25C152.827 131.25 167.547 134.38 175.681 122.736L174.634 118.341L152.613 124.439L152.827 131.25Z" fill="#0598C6"/>
<path d="M176.302 188.062C177.556 187.682 178.267 186.361 177.889 185.11C177.511 183.86 176.189 183.154 174.935 183.534C173.681 183.914 172.97 185.235 173.348 186.486C173.726 187.736 175.048 188.442 176.302 188.062Z" fill="#51CEF4"/>
<path d="M183.608 164.876C184.862 164.496 185.572 163.174 185.194 161.924C184.817 160.673 183.494 159.968 182.24 160.347C180.986 160.727 180.275 162.049 180.653 163.299C181.031 164.55 182.354 165.256 183.608 164.876Z" fill="#51CEF4"/>
<path d="M180.77 140.929C182.024 140.55 182.735 139.228 182.357 137.978C181.98 136.727 180.657 136.021 179.403 136.401C178.149 136.781 177.438 138.103 177.816 139.353C178.193 140.604 179.516 141.309 180.77 140.929Z" fill="#51CEF4"/>
<path d="M158.027 147.953C159.281 147.573 159.992 146.252 159.614 145.001C159.237 143.751 157.914 143.045 156.66 143.425C155.406 143.804 154.695 145.126 155.073 146.377C155.451 147.627 156.773 148.333 158.027 147.953Z" fill="#51CEF4"/>
<path d="M124.685 94.6517C123.785 94.6478 122.896 94.4561 122.075 94.089C121.986 94.0372 121.919 93.9529 121.89 93.8536C121.861 93.7542 121.871 93.6472 121.918 93.555C121.966 93.4627 122.046 93.3921 122.144 93.3578C122.242 93.3235 122.349 93.3281 122.443 93.3707C122.625 93.4612 126.78 95.495 129.514 90.6843C129.538 90.6348 129.572 90.5907 129.614 90.5549C129.656 90.519 129.705 90.4921 129.757 90.4757C129.81 90.4594 129.865 90.454 129.92 90.4599C129.975 90.4658 130.028 90.4828 130.075 90.5099C130.123 90.537 130.165 90.5737 130.198 90.6176C130.231 90.6615 130.255 90.7118 130.268 90.7653C130.281 90.8188 130.283 90.8745 130.274 90.9288C130.265 90.9831 130.244 91.035 130.214 91.0812C128.554 93.9954 126.372 94.6673 124.685 94.6517Z" fill="black"/>
<path d="M171.823 118.626C171.823 118.626 170.144 115.701 170.748 114.008C171.353 112.315 175.771 105.831 176.867 101.12C177.931 96.5369 174.522 94.9383 169.568 100.806C169.568 100.806 171.141 93.7355 166.368 94.3188C166.368 94.3188 165.94 90.7326 162.852 86.865C160.207 83.5449 156.804 86.8128 158.418 90.2451C159.77 93.1126 160.31 94.2585 160.454 95.4548C160.454 95.4548 155.905 96.223 158.723 99.5096C158.723 99.5096 159.492 102.649 157.116 102.944C154.741 103.238 157.496 96.0215 156.016 93.7827C154.536 91.5439 150.66 92.8267 149.482 99.8471C148.304 106.868 147.275 110.032 149.437 114.618C151.051 118.04 152.85 124.233 152.85 124.233L171.823 118.626Z" fill="#FFCDB2"/>
<path d="M152.846 124.637C152.779 124.636 152.714 124.62 152.656 124.589C152.609 124.564 152.568 124.529 152.535 124.488C152.502 124.447 152.477 124.399 152.462 124.348C152.444 124.286 150.655 118.142 149.083 114.79C147.157 110.712 147.682 107.78 148.628 102.448C148.777 101.62 148.932 100.739 149.094 99.7818C149.909 94.917 151.996 92.8086 153.683 92.4329C154.191 92.3199 154.72 92.3676 155.199 92.5694C155.677 92.7712 156.081 93.1171 156.354 93.5594C157.114 94.7126 156.891 96.8264 156.677 98.8675C156.52 100.368 156.343 102.068 156.759 102.478C156.788 102.508 156.86 102.576 157.067 102.55C157.272 102.538 157.471 102.48 157.651 102.38C157.831 102.281 157.987 102.143 158.107 101.975C158.563 101.306 158.452 100.183 158.35 99.7029C157.5 98.6781 157.216 97.7497 157.512 96.9394C157.917 95.8259 159.307 95.3399 159.996 95.1494C159.796 94.1167 159.233 92.9248 158.054 90.4249C157.042 88.279 157.833 86.2806 159.103 85.484C160.119 84.8441 161.722 84.8067 163.169 86.6173C165.738 89.8398 166.506 92.8369 166.706 93.8911C167.751 93.8409 168.582 94.1521 169.178 94.8141C170.275 96.0294 170.296 98.1506 170.163 99.5383C172.487 97.1117 174.673 96.1077 176.138 96.8417C177.336 97.4442 177.754 99.0763 177.26 101.209C176.504 104.462 174.173 108.579 172.628 111.303C172.073 112.22 171.572 113.169 171.125 114.143C170.682 115.389 171.729 117.648 172.171 118.424C172.202 118.477 172.22 118.536 172.224 118.598C172.229 118.659 172.22 118.72 172.197 118.777C172.173 118.835 172.136 118.887 172.089 118.928C172.042 118.969 171.986 118.999 171.926 119.014L152.95 124.621C152.916 124.631 152.881 124.636 152.846 124.637ZM154.249 93.1806C154.112 93.1789 153.975 93.193 153.841 93.2229C152.496 93.5154 150.627 95.4427 149.878 99.9178C149.72 100.877 149.562 101.764 149.413 102.605C148.495 107.771 147.979 110.617 149.814 114.452C151.211 117.409 152.711 122.321 153.135 123.74L171.248 118.389C170.787 117.465 169.867 115.328 170.382 113.881C170.587 113.304 171.185 112.249 171.943 110.913C173.463 108.234 175.758 104.176 176.489 101.036C176.887 99.3165 176.621 97.9898 175.788 97.5735C174.833 97.0915 172.714 97.7219 169.887 101.076C169.829 101.144 169.75 101.192 169.661 101.21C169.573 101.228 169.482 101.216 169.401 101.176C169.321 101.136 169.256 101.07 169.218 100.989C169.179 100.908 169.169 100.816 169.188 100.728C169.189 100.69 170.01 96.9288 168.595 95.3662C168.102 94.8236 167.393 94.6156 166.431 94.7338C166.378 94.7406 166.325 94.7368 166.274 94.7228C166.223 94.7087 166.176 94.6847 166.134 94.652C166.093 94.6194 166.058 94.5787 166.032 94.5325C166.006 94.4863 165.99 94.4354 165.984 94.3827C165.984 94.3478 165.523 90.8527 162.552 87.1315C161.604 85.9443 160.479 85.5874 159.543 86.1769C158.608 86.7664 157.983 88.3625 158.796 90.0841C160.153 92.9651 160.716 94.157 160.868 95.418C160.88 95.5212 160.852 95.6253 160.79 95.7085C160.727 95.7917 160.635 95.8476 160.533 95.8646C160.011 95.9543 158.589 96.3727 158.282 97.2233C158.088 97.7599 158.343 98.4432 159.042 99.2621C159.083 99.3097 159.111 99.3662 159.126 99.427C159.144 99.4998 159.575 101.283 158.783 102.439C158.6 102.701 158.361 102.92 158.083 103.079C157.806 103.238 157.497 103.334 157.179 103.359C157.005 103.389 156.826 103.378 156.658 103.326C156.489 103.275 156.335 103.184 156.208 103.062C155.515 102.381 155.698 100.719 155.892 98.7935C156.081 96.9809 156.295 94.9264 155.694 94.0141C155.544 93.763 155.333 93.5547 155.08 93.4088C154.827 93.263 154.541 93.1844 154.249 93.1806Z" fill="#1D1D1B"/>
<path d="M158.921 99.6924C158.921 99.6924 160.755 101.504 166.235 100.006L158.921 99.6924Z" fill="#FFCDB2"/>
<path d="M162.24 101.003C159.7 100.981 158.705 100.041 158.647 99.9838C158.57 99.9089 158.526 99.8062 158.524 99.6984C158.523 99.5906 158.564 99.4864 158.638 99.4088C158.713 99.3313 158.815 99.2867 158.922 99.2848C159.03 99.2829 159.133 99.324 159.21 99.3989C159.244 99.4317 161.03 101.006 166.137 99.616C166.241 99.5879 166.351 99.6021 166.443 99.6557C166.536 99.7092 166.604 99.7978 166.631 99.9017C166.659 100.006 166.644 100.116 166.591 100.21C166.537 100.303 166.45 100.372 166.346 100.4C165.01 100.787 163.629 100.99 162.24 101.003Z" fill="#1D1D1B"/>
<path d="M160.436 95.4736C162.386 94.9674 164.365 94.586 166.363 94.3316L160.436 95.4736Z" fill="#FFCDB2"/>
<path d="M160.431 95.8776C160.324 95.891 160.216 95.8611 160.131 95.7945C160.046 95.728 159.991 95.6302 159.978 95.5226C159.965 95.4151 159.995 95.3066 160.062 95.2211C160.128 95.1356 160.226 95.08 160.333 95.0666C162.301 94.5583 164.298 94.1742 166.313 93.9165C166.42 93.9035 166.527 93.9336 166.612 94.0005C166.697 94.0673 166.751 94.1653 166.764 94.2729C166.777 94.3804 166.747 94.4887 166.68 94.574C166.613 94.6593 166.515 94.7145 166.408 94.7276C164.431 94.9806 162.471 95.3568 160.539 95.8542C160.504 95.8673 160.468 95.8752 160.431 95.8776Z" fill="#1D1D1B"/>
<path d="M169.575 100.816C168.876 101.712 168.491 101.76 166.825 104.797L169.575 100.816Z" fill="#FFCDB2"/>
<path d="M166.821 105.196C166.754 105.195 166.689 105.177 166.631 105.145C166.54 105.094 166.472 105.009 166.442 104.908C166.412 104.808 166.423 104.699 166.471 104.606C167.748 102.264 168.305 101.661 168.8 101.105C168.952 100.934 169.099 100.777 169.259 100.571C169.327 100.493 169.422 100.443 169.525 100.433C169.627 100.423 169.73 100.453 169.811 100.516C169.893 100.58 169.947 100.672 169.962 100.775C169.977 100.877 169.952 100.981 169.892 101.066C169.713 101.296 169.55 101.475 169.395 101.646C168.908 102.18 168.405 102.736 167.177 104.991C167.142 105.054 167.09 105.106 167.027 105.142C166.964 105.178 166.893 105.197 166.821 105.196Z" fill="#1D1D1B"/>
<path d="M159.986 108.856L159.927 108.856C159.822 108.838 159.727 108.78 159.665 108.693C159.602 108.606 159.576 108.498 159.591 108.392C160.007 105.786 156.293 103.18 156.256 103.153C156.169 103.092 156.11 102.999 156.091 102.894C156.072 102.789 156.095 102.681 156.155 102.592C156.185 102.549 156.223 102.511 156.267 102.482C156.312 102.453 156.362 102.434 156.414 102.424C156.466 102.415 156.519 102.416 156.571 102.427C156.622 102.438 156.671 102.46 156.714 102.49C156.885 102.607 160.881 105.417 160.387 108.518C160.372 108.613 160.323 108.7 160.25 108.762C160.176 108.824 160.082 108.857 159.986 108.856Z" fill="#1D1D1B"/>
<path d="M164.073 100.44C163.548 101.165 163.166 101.983 162.949 102.852L164.073 100.44Z" fill="#FFCDB2"/>
<path d="M162.946 103.245C162.921 103.248 162.894 103.248 162.869 103.245C162.764 103.223 162.673 103.161 162.614 103.072C162.555 102.982 162.534 102.873 162.555 102.768C162.783 101.845 163.19 100.974 163.751 100.206C163.815 100.12 163.911 100.064 164.017 100.048C164.122 100.033 164.23 100.061 164.315 100.125C164.4 100.189 164.457 100.285 164.472 100.391C164.486 100.497 164.459 100.605 164.395 100.691C163.906 101.363 163.55 102.123 163.344 102.929C163.324 103.019 163.273 103.1 163.201 103.157C163.128 103.215 163.039 103.246 162.946 103.245Z" fill="#1D1D1B"/>
<path d="M160.334 97.5085C160.156 97.5219 159.98 97.4637 159.844 97.3466C159.709 97.2296 159.626 97.0633 159.613 96.8843C159.6 96.7053 159.658 96.5283 159.775 96.3923C159.892 96.2562 160.058 96.1722 160.236 96.1588L166.907 95.0585C167.083 95.0294 167.263 95.0715 167.408 95.1757C167.553 95.28 167.65 95.4378 167.679 95.6144C167.707 95.791 167.665 95.972 167.561 96.1175C167.457 96.263 167.299 96.3612 167.123 96.3904L160.45 97.4907C160.412 97.4993 160.373 97.5052 160.334 97.5085Z" fill="white"/>
<path d="M51.3009 137.411C51.17 137.409 51.0426 137.369 50.9342 137.295C50.8258 137.222 50.7412 137.118 50.6907 136.997C50.6401 136.876 50.6256 136.743 50.6493 136.614C50.673 136.485 50.7336 136.366 50.8239 136.27C66.0874 120.422 88.1309 113.734 88.3519 113.68C88.4373 113.652 88.5275 113.641 88.617 113.649C88.7065 113.657 88.7935 113.682 88.8729 113.724C88.9524 113.766 89.0226 113.823 89.0795 113.893C89.1364 113.962 89.1787 114.043 89.204 114.129C89.2293 114.215 89.2371 114.306 89.2269 114.395C89.2167 114.485 89.1885 114.571 89.1444 114.65C89.1002 114.728 89.0409 114.797 88.9698 114.852C88.8987 114.907 88.8173 114.947 88.7305 114.97C88.5147 115.035 66.8031 121.618 51.7924 137.206C51.7285 137.271 51.6521 137.323 51.5676 137.359C51.4832 137.394 51.3924 137.412 51.3009 137.411Z" fill="white"/>
<path d="M190.788 146.448C190.616 146.446 190.452 146.378 190.329 146.257C190.205 146.137 190.133 145.974 190.126 145.802C189.8 137.175 187.316 132.385 185.278 129.886C183.099 127.203 180.966 126.521 180.945 126.513C180.775 126.461 180.632 126.344 180.548 126.187C180.464 126.03 180.446 125.846 180.498 125.675C180.549 125.504 180.666 125.361 180.823 125.276C180.981 125.192 181.164 125.174 181.335 125.225C181.723 125.342 190.808 128.272 191.467 145.763C191.47 145.851 191.456 145.939 191.426 146.022C191.395 146.105 191.348 146.182 191.288 146.246C191.228 146.311 191.156 146.364 191.076 146.401C190.995 146.438 190.909 146.458 190.82 146.462L190.788 146.448Z" fill="white"/>
<path d="M48.6393 170.61C48.4872 170.608 48.3401 170.555 48.2221 170.459C48.1041 170.363 48.0223 170.229 47.9899 170.08C47.9574 169.931 47.9762 169.775 48.0434 169.638C48.1107 169.501 48.2224 169.391 48.36 169.325C49.0193 169.013 64.6177 161.793 76.0841 168.133C76.2401 168.22 76.3552 168.365 76.4043 168.537C76.4534 168.709 76.4323 168.894 76.3458 169.051C76.2593 169.207 76.1142 169.323 75.9428 169.373C75.7713 169.422 75.5874 169.401 75.4314 169.315C64.561 163.303 49.0871 170.471 48.9304 170.545C48.8395 170.588 48.7399 170.611 48.6393 170.61Z" fill="white"/>
<path d="M30.8034 203.658C30.7308 203.657 30.6598 203.637 30.5975 203.599C22.9902 198.924 20.8214 191.405 20.3405 185.927C20.0209 182.294 20.2846 178.633 21.1218 175.082C21.1323 175.027 21.154 174.976 21.1853 174.93C21.2165 174.884 21.2566 174.846 21.3034 174.816C21.3502 174.787 21.4025 174.767 21.4571 174.759C21.5116 174.751 21.5675 174.754 21.6208 174.768C21.6741 174.782 21.724 174.807 21.7673 174.841C21.8105 174.876 21.8461 174.919 21.8721 174.967C21.8981 175.016 21.9139 175.07 21.9184 175.125C21.9228 175.18 21.9159 175.235 21.898 175.288C21.098 178.758 20.8432 182.331 21.1433 185.878C21.826 193.572 25.1494 199.302 31.0181 202.915C31.0636 202.942 31.103 202.978 31.1344 203.02C31.1658 203.063 31.1883 203.111 31.2008 203.163C31.2132 203.214 31.2154 203.268 31.207 203.32C31.1985 203.372 31.1797 203.422 31.1517 203.467C31.1149 203.527 31.0636 203.575 31.0026 203.609C30.9416 203.642 30.8729 203.659 30.8034 203.658Z" fill="#1D1D1B"/>
<path d="M175.075 111.02C175.001 111.018 174.928 110.996 174.866 110.956C174.803 110.916 174.753 110.859 174.72 110.792C174.688 110.725 174.674 110.65 174.681 110.576C174.688 110.502 174.715 110.431 174.76 110.371C179.551 104.006 178.876 98.642 178.868 98.5881C178.861 98.5351 178.864 98.4811 178.878 98.4292C178.891 98.3774 178.914 98.3286 178.947 98.2859C178.979 98.2431 179.019 98.207 179.065 98.1799C179.112 98.1527 179.163 98.1348 179.215 98.1273C179.268 98.1199 179.322 98.1229 179.374 98.1363C179.426 98.1498 179.474 98.1733 179.517 98.2055C179.56 98.2377 179.595 98.2781 179.622 98.3243C179.65 98.3704 179.667 98.4215 179.675 98.4746C179.707 98.7062 180.419 104.205 175.412 110.859C175.373 110.911 175.322 110.953 175.263 110.981C175.204 111.009 175.14 111.022 175.075 111.02Z" fill="#1D1D1B"/>
<path d="M192.296 195.497C192.224 195.495 192.154 195.475 192.093 195.438C192.032 195.402 191.981 195.349 191.947 195.286C191.899 195.193 191.89 195.085 191.921 194.985C191.951 194.885 192.019 194.801 192.111 194.75C198.658 191.191 201.742 184.495 201.268 174.854C200.989 170.228 200.074 165.663 198.548 161.29C198.526 161.24 198.514 161.186 198.514 161.131C198.513 161.076 198.524 161.022 198.545 160.971C198.566 160.92 198.597 160.875 198.636 160.836C198.676 160.798 198.722 160.769 198.774 160.749C198.825 160.73 198.879 160.721 198.934 160.723C198.989 160.726 199.042 160.739 199.092 160.763C199.141 160.787 199.185 160.821 199.221 160.862C199.256 160.903 199.283 160.952 199.3 161.004C200.856 165.455 201.789 170.103 202.07 174.813C202.553 184.651 199.242 191.79 192.492 195.458C192.431 195.488 192.363 195.501 192.296 195.497Z" fill="#1D1D1B"/>
<path d="M44.0963 217.26C43.9894 217.259 43.8873 217.214 43.8125 217.136C43.7376 217.057 43.6962 216.951 43.6974 216.842C43.6985 216.732 43.7421 216.627 43.8186 216.549C43.895 216.472 43.998 216.43 44.105 216.431L187.192 216.293C187.299 216.294 187.402 216.338 187.476 216.417C187.551 216.495 187.593 216.601 187.591 216.711C187.59 216.821 187.547 216.926 187.47 217.003C187.394 217.08 187.291 217.123 187.184 217.122L44.0963 217.26Z" fill="#1D1D1B"/>
<path d="M199.066 223.693L179.254 223.507C179.147 223.506 179.044 223.462 178.97 223.384C178.895 223.307 178.853 223.202 178.855 223.094C178.856 222.985 178.899 222.882 178.976 222.806C179.052 222.73 179.155 222.687 179.262 222.688L199.074 222.874C199.181 222.875 199.284 222.919 199.358 222.997C199.433 223.074 199.475 223.179 199.473 223.287C199.472 223.396 199.429 223.499 199.352 223.575C199.276 223.651 199.173 223.694 199.066 223.693Z" fill="#1D1D1B"/>
<path d="M52.7872 222.237L28.9015 222.012C28.7945 222.011 28.6924 221.967 28.6176 221.89C28.5428 221.812 28.5014 221.707 28.5025 221.599C28.5037 221.49 28.5473 221.386 28.6237 221.31C28.7002 221.234 28.8032 221.191 28.9101 221.192L52.804 221.417C52.911 221.418 53.0131 221.462 53.0879 221.54C53.1627 221.617 53.2041 221.722 53.203 221.831C53.2018 221.94 53.1582 222.043 53.0818 222.12C53.0053 222.196 52.9023 222.238 52.7954 222.237L52.7872 222.237Z" fill="#1D1D1B"/>
<path d="M131.988 52.2513C131.881 52.2503 131.779 52.2069 131.704 52.1306C131.629 52.0542 131.588 51.9511 131.589 51.8441C131.696 41.8159 124.48 39.9952 124.172 39.9224C124.117 39.9132 124.065 39.893 124.019 39.863C123.973 39.8329 123.933 39.7936 123.903 39.7477C123.873 39.7017 123.852 39.65 123.842 39.5956C123.833 39.5413 123.834 39.4855 123.847 39.4318C123.86 39.3781 123.883 39.3276 123.916 39.2833C123.949 39.239 123.991 39.202 124.039 39.1745C124.087 39.147 124.14 39.1296 124.194 39.1235C124.249 39.1173 124.305 39.1224 124.357 39.1385C124.438 39.1554 132.509 41.1563 132.395 51.857C132.392 51.963 132.348 52.0639 132.272 52.1377C132.196 52.2115 132.094 52.2523 131.988 52.2513Z" fill="#1D1D1B"/>
<path d="M159.008 90.6763C158.899 90.676 158.791 90.6482 158.695 90.5954C158.541 90.5087 158.426 90.3641 158.378 90.1933C158.33 90.0225 158.351 89.8394 158.436 89.6838C160.985 84.9789 161.065 81.3136 161.065 81.276C161.069 81.0983 161.141 80.929 161.268 80.8048C161.395 80.6807 161.566 80.6116 161.743 80.6125C161.831 80.6133 161.918 80.6315 161.999 80.6661C162.08 80.7007 162.153 80.751 162.215 80.814C162.276 80.8771 162.325 80.9516 162.357 81.0335C162.39 81.1153 162.406 81.2029 162.404 81.2911C162.403 81.4524 162.332 85.3034 159.624 90.3243C159.564 90.4346 159.475 90.5261 159.366 90.5883C159.257 90.6505 159.133 90.681 159.008 90.6763Z" fill="white"/>
<path d="M117.331 209.361C118.637 209.373 119.707 208.32 119.721 207.01C119.735 205.699 118.688 204.627 117.382 204.615C116.076 204.603 115.006 205.655 114.992 206.966C114.978 208.276 116.026 209.349 117.331 209.361Z" fill="#51CEF4"/>
<path d="M146.713 180.803C148.018 180.815 149.088 179.763 149.102 178.452C149.116 177.141 148.069 176.069 146.763 176.057C145.458 176.045 144.388 177.098 144.374 178.408C144.36 179.719 145.407 180.791 146.713 180.803Z" fill="#51CEF4"/>
<path d="M147.282 211.849L87.4939 211.334C87.4775 211.333 87.4619 211.327 87.4497 211.316C87.4376 211.305 87.4297 211.29 87.4274 211.274C84.8589 194.415 84.6007 178.47 87.9683 163.966C87.9721 163.951 87.9809 163.937 87.9931 163.927C88.0054 163.918 88.0205 163.913 88.0361 163.912L147.832 164.428C147.846 164.428 147.86 164.433 147.872 164.442C147.883 164.451 147.892 164.463 147.896 164.477C151.57 178.117 151.39 193.89 147.355 211.796C147.351 211.812 147.341 211.827 147.328 211.836C147.314 211.846 147.298 211.851 147.282 211.849Z" fill="#4BD657"/>
<path d="M147.277 212.253L87.4892 211.738C87.3775 211.737 87.2698 211.696 87.1855 211.623C87.1012 211.55 87.0459 211.449 87.0293 211.338C84.2385 193.014 84.416 177.491 87.5719 163.874C87.5968 163.769 87.656 163.677 87.7402 163.61C87.8244 163.544 87.9285 163.508 88.0354 163.509L147.831 164.025C147.933 164.026 148.032 164.06 148.113 164.123C148.194 164.185 148.253 164.272 148.281 164.371C151.952 178.009 151.772 193.996 147.738 211.883C147.713 211.988 147.655 212.081 147.571 212.148C147.487 212.216 147.384 212.253 147.277 212.253ZM87.7833 210.932L147.017 211.443C150.938 193.897 151.123 178.217 147.569 164.844L88.2972 164.333C85.2381 177.7 85.0692 192.954 87.7833 210.932Z" fill="#1D1E1B"/>
<path d="M88.1 163.956L95.6334 156.553C95.647 156.541 95.6641 156.535 95.6819 156.534L140.408 156.925C140.426 156.926 140.443 156.933 140.457 156.945L147.821 164.478C147.83 164.488 147.836 164.5 147.839 164.513C147.841 164.527 147.84 164.541 147.834 164.553C147.829 164.566 147.82 164.577 147.809 164.584C147.798 164.592 147.785 164.596 147.771 164.597L88.1469 164.076C88.1334 164.075 88.1203 164.071 88.1093 164.063C88.0982 164.055 88.0899 164.044 88.0849 164.032C88.08 164.019 88.0785 164.005 88.0812 163.992C88.0839 163.978 88.0905 163.966 88.1 163.956Z" fill="#4BD657"/>
<path d="M147.755 165L88.1319 164.48C88.0386 164.479 87.9481 164.45 87.8713 164.397C87.7946 164.344 87.7351 164.269 87.7005 164.181C87.6658 164.094 87.6574 163.998 87.6765 163.906C87.6956 163.814 87.7415 163.73 87.8079 163.663L95.3412 156.266C95.3854 156.222 95.4377 156.188 95.4952 156.165C95.5526 156.141 95.614 156.13 95.6759 156.131L140.402 156.521C140.464 156.521 140.525 156.534 140.582 156.558C140.639 156.582 140.69 156.618 140.733 156.662L148.098 164.19C148.163 164.257 148.206 164.342 148.223 164.435C148.24 164.527 148.23 164.623 148.193 164.709C148.157 164.796 148.096 164.87 148.018 164.922C147.94 164.973 147.849 165.001 147.755 165ZM88.953 163.673L146.953 164.18L140.255 157.339L95.8039 156.951L88.953 163.673Z" fill="#1D1E1B"/>
<path d="M123.459 177.931C121.992 177.917 120.579 178.489 119.53 179.519C118.481 180.549 117.883 181.954 117.867 183.424C117.866 183.483 117.866 183.548 117.865 183.61C117.853 182.159 117.275 180.772 116.253 179.746C115.231 178.721 113.847 178.139 112.399 178.125C109.343 178.098 106.586 180.566 106.805 183.619C107.213 189.254 114.028 194.379 116.678 196.172C116.982 196.377 117.342 196.481 117.708 196.471C118.074 196.46 118.428 196.336 118.721 196.115C121.459 194.053 128.884 188.045 128.934 183.523C128.942 182.794 128.807 182.072 128.536 181.397C128.265 180.721 127.864 180.106 127.355 179.587C126.847 179.068 126.241 178.654 125.573 178.37C124.904 178.086 124.186 177.936 123.459 177.931Z" fill="white"/>
<path d="M117.64 196.875C117.218 196.871 116.806 196.743 116.457 196.506C113.572 194.558 106.821 189.421 106.407 183.647C106.358 182.918 106.463 182.187 106.714 181.5C106.965 180.813 107.357 180.186 107.864 179.66C108.447 179.041 109.152 178.549 109.934 178.215C110.716 177.882 111.558 177.714 112.406 177.722C112.853 178.836 113.626 179.787 114.625 180.45C115.623 181.113 116.799 181.457 117.997 181.436C119.196 181.415 120.361 181.03 121.338 180.332C122.315 179.634 123.059 178.656 123.471 177.527C125.044 177.543 126.546 178.184 127.646 179.308C128.746 180.433 129.355 181.95 129.339 183.526C129.288 188.165 122.068 194.101 118.967 196.437C118.584 196.725 118.118 196.879 117.64 196.875ZM112.398 178.521C111.661 178.518 110.931 178.666 110.252 178.955C109.574 179.244 108.961 179.669 108.452 180.203C108.021 180.649 107.689 181.179 107.475 181.76C107.261 182.342 107.171 182.961 107.211 183.579C107.599 188.989 114.121 193.947 116.907 195.829C117.142 195.986 117.419 196.066 117.702 196.058C117.984 196.05 118.256 195.954 118.482 195.784C120.828 194.017 128.485 187.91 128.534 183.511C128.549 182.148 128.023 180.836 127.072 179.864C126.121 178.892 124.823 178.339 123.463 178.326C122.103 178.314 120.792 178.844 119.82 179.799C118.848 180.754 118.293 182.057 118.278 183.42C118.277 183.471 118.277 183.522 118.276 183.576L118.276 183.619L117.47 183.612C117.452 182.268 116.912 180.986 115.965 180.037C115.018 179.088 113.738 178.547 112.397 178.529L112.398 178.521Z" fill="#1D1E1B"/>
<path d="M129.162 161.506L107.889 161.306C107.782 161.305 107.68 161.261 107.605 161.184C107.531 161.106 107.489 161.002 107.49 160.893C107.491 160.784 107.535 160.681 107.612 160.604C107.688 160.528 107.791 160.486 107.898 160.487L129.17 160.687C129.277 160.688 129.379 160.732 129.454 160.81C129.529 160.887 129.57 160.992 129.569 161.1C129.568 161.209 129.525 161.313 129.448 161.389C129.372 161.465 129.269 161.507 129.162 161.506Z" fill="#1D1E1B"/>
<path d="M127.989 161.092C128.024 161.049 128.062 161.006 128.095 160.961C128.525 160.373 128.835 159.706 129.008 158.998C129.181 158.29 129.213 157.556 129.103 156.836C128.993 156.117 128.742 155.426 128.365 154.804C127.988 154.182 127.493 153.641 126.907 153.211C126.321 152.782 125.656 152.472 124.951 152.301C124.245 152.129 123.512 152.098 122.794 152.21C122.075 152.322 121.386 152.575 120.764 152.954C120.143 153.333 119.602 153.831 119.172 154.419L119.058 154.566C119.891 153.376 120.226 151.907 119.991 150.475C119.756 149.043 118.968 147.762 117.799 146.907C115.336 145.103 111.662 145.506 110.066 148.12C107.877 151.711 108.731 157.142 109.769 160.924L127.989 161.092Z" fill="white"/>
<path d="M128.172 161.497L109.461 161.33L109.381 161.038C108.296 157.087 107.473 151.597 109.725 147.915C110.109 147.293 110.62 146.759 111.223 146.347C111.825 145.935 112.508 145.654 113.225 145.523C114.06 145.357 114.92 145.366 115.75 145.55C116.581 145.734 117.363 146.089 118.049 146.592C117.699 146.898 117.412 147.272 117.207 147.69C117.001 148.108 116.88 148.563 116.851 149.028C116.822 149.494 116.886 149.96 117.039 150.4C117.191 150.839 117.429 151.244 117.74 151.591C118.05 151.937 118.426 152.218 118.846 152.417C119.265 152.617 119.721 152.73 120.185 152.752C120.65 152.773 121.114 152.701 121.551 152.541C121.988 152.381 122.389 152.136 122.731 151.819C123.891 151.639 125.078 151.806 126.141 152.301C127.205 152.796 128.098 153.596 128.707 154.6C129.316 155.604 129.614 156.767 129.563 157.943C129.512 159.118 129.115 160.252 128.422 161.203C128.398 161.238 128.368 161.273 128.341 161.307L128.172 161.497ZM110.077 160.527L127.789 160.686C128.579 159.581 128.901 158.208 128.685 156.867C128.469 155.527 127.732 154.328 126.636 153.532C125.539 152.736 124.172 152.409 122.833 152.621C121.494 152.833 120.291 153.567 119.489 154.664L119.393 154.787L119.366 154.821L118.721 154.339C119.488 153.235 119.796 151.876 119.579 150.55C119.363 149.224 118.639 148.037 117.561 147.239C116.964 146.808 116.286 146.503 115.567 146.343C114.848 146.183 114.104 146.172 113.38 146.31C112.771 146.42 112.19 146.657 111.677 147.006C111.164 147.355 110.73 147.808 110.403 148.335C108.375 151.675 109.084 156.757 110.085 160.528L110.077 160.527Z" fill="#1D1E1B"/>
<path d="M144.724 207.977C144.62 207.977 144.517 207.952 144.424 207.905C144.331 207.857 144.251 207.788 144.19 207.704C144.128 207.619 144.087 207.521 144.071 207.418C144.054 207.314 144.061 207.208 144.092 207.108C149.373 189.756 145.115 168.609 145.07 168.394C145.033 168.219 145.068 168.037 145.165 167.887C145.262 167.738 145.414 167.634 145.588 167.597C145.761 167.561 145.942 167.595 146.09 167.693C146.238 167.79 146.342 167.943 146.378 168.118C146.421 168.334 150.753 189.806 145.369 207.497C145.328 207.636 145.242 207.758 145.126 207.845C145.009 207.932 144.868 207.978 144.724 207.977Z" fill="white"/>
<path d="M86.3544 172.328C86.3544 172.328 78.7915 171.039 75.9454 178.663C73.0993 186.287 72.8369 194.241 77.0505 198.888C81.264 203.534 86.1709 203.729 89.3609 202.148C92.5508 200.568 93.0407 197.042 90.2835 193.469C90.2835 193.469 95.202 189.689 89.9809 183.691C89.9809 183.691 95.1123 175.237 86.2736 175.51L86.3544 172.328Z" fill="#FFCDB2"/>
<path d="M73.8665 190.392C73.6653 186.742 74.4486 182.659 75.9396 178.663C78.7858 171.039 86.3487 172.328 86.3487 172.328L86.2546 175.51C90.1586 175.389 91.3384 176.974 91.4364 178.785C91.5615 181.066 89.9622 183.699 89.9622 183.699C91.6506 185.638 92.2785 187.344 92.3568 188.765C92.5198 191.745 90.2646 193.477 90.2646 193.477C91.3972 194.945 91.9795 196.406 92.0535 197.725C92.1562 199.61 91.2097 201.216 89.3419 202.157C86.1652 203.743 81.2741 203.551 77.031 198.896C75.0263 196.68 74.0338 193.719 73.8531 190.4L73.8665 190.392ZM73.2246 190.437C73.4257 194.104 74.5493 197.09 76.5673 199.317C78.5853 201.544 80.961 202.983 83.4437 203.482C85.5232 203.917 87.6895 203.653 89.6069 202.73C91.6689 201.704 92.7841 199.871 92.6659 197.701C92.5922 196.355 92.0521 194.946 91.1011 193.568C91.7326 192.938 92.2261 192.184 92.5497 191.353C92.8732 190.521 93.0196 189.632 92.9796 188.741C92.888 187.067 92.1286 185.352 90.7223 183.636C91.18 182.776 92.1667 180.689 92.0619 178.761C91.9658 177.012 90.9739 174.971 86.8976 174.895L86.9737 172.366C86.9753 172.348 86.9755 172.33 86.9743 172.312C86.9662 172.169 86.9092 172.032 86.8127 171.926C86.7161 171.82 86.5858 171.75 86.444 171.729C84.9678 171.536 83.4673 171.646 82.0331 172.05C79.8414 172.666 76.9087 174.275 75.3405 178.464C73.761 182.696 73.0308 186.838 73.2271 190.448L73.2246 190.437Z" fill="black"/>
<path d="M86.1996 194.669C83.3384 194.631 80.5858 193.573 78.4351 191.683C78.3611 191.606 78.3202 191.503 78.3214 191.396C78.3225 191.289 78.3656 191.187 78.4412 191.112C78.4789 191.074 78.5235 191.045 78.5726 191.025C78.6218 191.005 78.6743 190.994 78.7273 190.995C78.7803 190.995 78.8329 191.006 78.8816 191.027C78.9303 191.048 78.9743 191.079 79.0111 191.117C79.2081 191.307 83.8621 195.801 90.8773 192.928C90.9764 192.887 91.0876 192.888 91.1862 192.93C91.2849 192.971 91.3628 193.05 91.4031 193.15C91.4434 193.249 91.4428 193.361 91.4011 193.46C91.3595 193.559 91.2803 193.637 91.1812 193.677C89.6033 194.34 87.9092 194.677 86.1996 194.669Z" fill="#1D1D1B"/>
<path d="M85.8408 185.098C83.8987 185.06 81.969 184.786 80.0934 184.281C80.0411 184.267 79.9918 184.244 79.9489 184.211C79.906 184.178 79.8701 184.137 79.8433 184.09C79.8165 184.043 79.7994 183.991 79.793 183.937C79.7865 183.883 79.791 183.829 79.806 183.777C79.8209 183.724 79.846 183.676 79.88 183.634C79.9139 183.592 79.9561 183.557 80.0037 183.531C80.0513 183.506 80.1035 183.49 80.1572 183.485C80.211 183.48 80.2653 183.486 80.3167 183.502C80.3784 183.519 86.5787 185.259 90.3752 183.482C90.4233 183.46 90.4752 183.447 90.5282 183.445C90.5811 183.443 90.6339 183.451 90.6836 183.469C90.7333 183.487 90.779 183.515 90.8179 183.551C90.8569 183.587 90.8886 183.631 90.9108 183.679C90.9331 183.727 90.9456 183.78 90.9478 183.833C90.95 183.886 90.9416 183.939 90.9233 183.989C90.905 184.039 90.8772 184.085 90.8413 184.124C90.8054 184.163 90.7623 184.195 90.7142 184.217C89.2497 184.903 87.4969 185.114 85.8408 185.098Z" fill="#1D1D1B"/>
<path d="M80.9193 176.086C80.8326 176.085 80.7487 176.056 80.6797 176.004C80.6107 175.951 80.5603 175.878 80.5362 175.794C80.512 175.711 80.5152 175.622 80.5455 175.54C80.5757 175.459 80.6313 175.389 80.7041 175.342C83.0837 173.795 86.893 174.822 87.0647 174.862C87.1157 174.876 87.1637 174.9 87.2054 174.932C87.2472 174.965 87.282 175.006 87.3081 175.052C87.3342 175.098 87.351 175.149 87.3575 175.202C87.3639 175.254 87.3599 175.308 87.3458 175.359C87.3317 175.41 87.3076 175.458 87.275 175.5C87.2424 175.542 87.2018 175.577 87.1557 175.603C87.1096 175.63 87.0589 175.646 87.0063 175.653C86.9538 175.66 86.9005 175.656 86.8495 175.642C86.8145 175.641 83.217 174.667 81.1406 176.015C81.0756 176.06 80.9984 176.085 80.9193 176.086Z" fill="#1D1D1B"/>
<path d="M89.9383 178.58C89.8458 178.579 89.7546 178.559 89.6701 178.521C85.3382 176.569 81.2029 178.141 81.1624 178.156C80.9972 178.217 80.8147 178.21 80.6545 178.138C80.4944 178.065 80.369 177.933 80.3054 177.768C80.2417 177.604 80.2448 177.421 80.3139 177.259C80.3831 177.097 80.5131 176.968 80.6756 176.9C80.8646 176.827 85.3836 175.11 90.2238 177.291C90.3644 177.354 90.4789 177.464 90.5481 177.603C90.6174 177.741 90.6372 177.899 90.604 178.05C90.5709 178.201 90.4867 178.336 90.366 178.433C90.2453 178.529 90.0954 178.582 89.9412 178.58L89.9383 178.58Z" fill="white"/>
<path d="M85.4102 187.289C83.5186 187.248 81.6577 186.805 79.9502 185.99C79.871 185.95 79.8007 185.894 79.743 185.827C79.6852 185.759 79.6413 185.681 79.6139 185.597C79.5865 185.512 79.5762 185.423 79.5833 185.334C79.5905 185.245 79.615 185.159 79.6556 185.08C79.6962 185.001 79.752 184.93 79.8198 184.873C79.8876 184.815 79.9658 184.772 80.0504 184.745C80.135 184.718 80.2241 184.708 80.3125 184.716C80.4008 184.723 80.4868 184.749 80.5653 184.79C80.6241 184.82 85.5181 187.263 89.5331 184.897C89.6093 184.852 89.6934 184.823 89.7808 184.811C89.8683 184.799 89.9573 184.804 90.0427 184.826C90.1281 184.849 90.2082 184.888 90.2785 184.941C90.3489 184.995 90.408 185.061 90.4526 185.138C90.4972 185.214 90.5262 185.299 90.5382 185.386C90.5502 185.474 90.5449 185.563 90.5225 185.649C90.5001 185.735 90.4612 185.815 90.4079 185.886C90.3545 185.956 90.2877 186.016 90.2115 186.061C88.7526 186.903 87.0919 187.328 85.4102 187.289Z" fill="white"/>
<path d="M163.537 79.2892C163.004 77.9205 161.95 76.821 160.607 76.2327C159.263 75.6445 157.741 75.6156 156.374 76.1524C155.007 76.6892 153.907 77.7477 153.317 79.0951C152.727 80.4426 152.695 81.9685 153.228 83.3373C153.252 83.3913 153.27 83.4534 153.291 83.5128C152.738 82.1744 151.682 81.108 150.352 80.5425C149.021 79.9769 147.521 79.9574 146.173 80.4881C143.327 81.6067 141.687 84.9247 143.029 87.6716C144.584 90.8593 148.416 92.9098 151.822 94.1624C153.359 92.3779 155.166 92.4237 156.075 93.7993C156.371 94.3291 156.525 94.9266 156.523 95.5342L156.869 95.6099C157.227 95.6862 157.601 95.6484 157.937 95.5018C158.273 95.3552 158.556 95.1072 158.745 94.7922C160.521 91.8416 165.174 83.4979 163.537 79.2892Z" fill="white"/>
<path d="M157.216 96.0386C157.072 96.0374 156.928 96.0217 156.787 95.9916L156.439 95.9159C156.353 95.8967 156.276 95.8501 156.219 95.783C156.162 95.716 156.128 95.6322 156.123 95.5443C156.126 95.0085 155.995 94.4807 155.742 94.0092C155.602 93.7759 155.407 93.5798 155.175 93.4373C154.943 93.2947 154.68 93.2099 154.408 93.1897C153.662 93.1427 152.854 93.5769 152.133 94.4157C152.079 94.4775 152.008 94.5215 151.929 94.542C151.849 94.5624 151.766 94.5583 151.689 94.5302C147.039 92.8251 144.004 90.5744 142.67 87.8383C142.353 87.1813 142.177 86.4645 142.154 85.7343C142.131 85.0042 142.262 84.277 142.537 83.6001C142.847 82.8072 143.317 82.087 143.918 81.4849C144.52 80.8828 145.239 80.412 146.03 80.1021C146.106 80.5574 146.27 80.9932 146.513 81.3845C146.757 81.7759 147.075 82.1151 147.45 82.3829C147.825 82.6507 148.248 82.8419 148.697 82.9454C149.146 83.0489 149.611 83.0628 150.065 82.9863C150.52 82.9097 150.955 82.7442 151.346 82.4993C151.737 82.2543 152.076 81.9347 152.344 81.5587C152.612 81.1826 152.804 80.7575 152.908 80.3076C153.012 79.8577 153.027 79.3917 152.952 78.9365C153.424 77.8583 154.204 76.9438 155.193 76.3088C156.182 75.6738 157.337 75.3468 158.51 75.3691C159.684 75.3914 160.824 75.762 161.786 76.4341C162.748 77.1062 163.489 78.0496 163.914 79.1448C165.594 83.4669 161.103 91.664 159.095 94.984C158.9 95.3082 158.624 95.576 158.295 95.761C157.965 95.9459 157.594 96.0416 157.216 96.0386ZM156.906 95.1905L156.957 95.191C157.233 95.2495 157.521 95.2202 157.781 95.1072C158.04 94.9943 158.258 94.8032 158.404 94.5606C159.923 92.0437 164.755 83.5186 163.162 79.4261C162.668 78.1573 161.691 77.1382 160.446 76.593C159.2 76.0478 157.789 76.021 156.522 76.5188C155.255 77.0165 154.235 77.9978 153.689 79.2469C153.142 80.496 153.112 81.9106 153.606 83.1794L153.661 83.3333L153.66 83.3683C153.695 83.4676 153.69 83.5766 153.646 83.6722C153.602 83.7679 153.522 83.8425 153.424 83.8803C153.326 83.918 153.217 83.9159 153.12 83.8743C153.024 83.8327 152.948 83.755 152.908 83.6577C152.392 82.4189 151.414 81.4315 150.182 80.9053C148.95 80.379 147.561 80.3554 146.31 80.8395C145.624 81.1126 145.002 81.5227 144.479 82.0447C143.957 82.5668 143.547 83.1898 143.273 83.8758C143.039 84.4498 142.928 85.0663 142.947 85.6854C142.965 86.3045 143.113 86.9126 143.381 87.4704C144.883 90.5473 148.681 92.5247 151.701 93.6635C152.546 92.7692 153.518 92.3122 154.447 92.369C154.844 92.3974 155.227 92.5194 155.567 92.725C155.907 92.9306 156.194 93.2141 156.403 93.5521C156.701 94.0488 156.874 94.6112 156.906 95.1905Z" fill="black"/>
<path d="M165.458 78.8262C165.379 78.826 165.301 78.802 165.236 78.7572C165.17 78.7125 165.119 78.649 165.09 78.5751C164.027 75.9316 162.523 74.3235 160.623 73.7915C157.407 72.8947 154.036 75.384 154.001 75.4106C153.915 75.4684 153.81 75.4911 153.709 75.4739C153.607 75.4566 153.515 75.4008 153.453 75.318C153.391 75.2351 153.364 75.1315 153.376 75.0287C153.388 74.9258 153.439 74.8315 153.519 74.7652C153.668 74.6508 157.228 72.0098 160.835 73.0126C162.993 73.6116 164.675 75.3828 165.838 78.2723C165.859 78.3221 165.87 78.3757 165.87 78.4298C165.87 78.4839 165.86 78.5375 165.839 78.5875C165.818 78.6374 165.787 78.6827 165.749 78.7208C165.71 78.7588 165.665 78.7887 165.614 78.8088C165.564 78.8248 165.511 78.8308 165.458 78.8262Z" fill="#1D1D1B"/>
<path d="M198.774 31.3053C197.63 30.6624 196.37 30.2522 195.065 30.0982C193.761 29.9442 192.439 30.0494 191.174 30.4078C189.909 30.7663 188.726 31.3709 187.692 32.1871C186.659 33.0034 185.796 34.0153 185.151 35.1651C185.099 35.2562 185.039 35.3553 184.979 35.4517C186.22 33.1364 186.508 30.4276 185.779 27.9077C185.051 25.3877 183.365 23.2578 181.084 21.9756C176.281 19.2737 169.763 20.8009 167.463 25.8354C163.216 35.1456 169.561 49.2244 172.206 54.3771C172.509 54.9672 172.988 55.4473 173.577 55.7502C174.166 56.0532 174.834 56.1639 175.49 56.0669C181.614 55.1718 198.583 52.0922 202.585 44.9531C203.885 42.6313 204.214 39.8893 203.5 37.33C202.785 34.7706 201.086 32.6035 198.774 31.3053Z" fill="white"/>
<path d="M174.996 56.5042C174.344 56.4984 173.707 56.3145 173.152 55.9724C172.597 55.6303 172.146 55.1428 171.847 54.5624C168.995 49.0014 162.815 35.0532 167.097 25.668C167.635 24.5086 168.408 23.4743 169.368 22.632C170.327 21.7896 171.452 21.1578 172.669 20.7775C174.087 20.3152 175.584 20.1518 177.066 20.2976C178.548 20.4434 179.983 20.8952 181.281 21.6246C180.807 23.8466 181.069 26.1611 182.027 28.2161C182.985 30.2712 184.586 31.9544 186.589 33.01C188.591 34.0655 190.884 34.4357 193.119 34.0641C195.354 33.6926 197.409 32.5997 198.972 30.9516C201.374 32.3044 203.14 34.559 203.883 37.2208C204.626 39.8826 204.285 42.7342 202.934 45.1499C198.902 52.3453 182.438 55.4751 175.547 56.4659C175.365 56.4934 175.181 56.5061 174.996 56.5042ZM176.065 21.0653C174.997 21.0533 173.934 21.2151 172.918 21.5444C171.807 21.8911 170.781 22.4668 169.904 23.2347C169.028 24.0026 168.321 24.9456 167.829 26.0029C163.698 35.0662 169.763 48.7361 172.566 54.1916C172.831 54.7064 173.249 55.1252 173.763 55.3898C174.277 55.6543 174.86 55.7516 175.433 55.6678C180.718 54.9056 198.269 51.8256 202.232 44.7561C202.872 43.6516 203.287 42.4313 203.453 41.166C203.618 39.9007 203.532 38.6158 203.198 37.3859C202.864 36.1559 202.289 35.0054 201.507 34.0014C200.725 32.9973 199.752 32.1597 198.643 31.5372C197.535 30.9147 196.313 30.5197 195.05 30.3752C193.786 30.2306 192.506 30.3395 191.283 30.6954C190.061 31.0513 188.92 31.6471 187.928 32.4482C186.936 33.2494 186.112 34.2398 185.504 35.362C185.46 35.437 185.413 35.5174 185.364 35.5951L185.323 35.6621L184.624 35.2629C185.803 33.0384 186.072 30.443 185.374 28.0281C184.676 25.6132 183.066 23.5689 180.886 22.3294C179.411 21.5112 177.753 21.0767 176.065 21.0653Z" fill="#1D1E1B"/>
<path d="M178.345 29.3297C178.271 29.3295 178.199 29.309 178.137 29.2704C178.074 29.2319 178.023 29.1767 177.99 29.1111C168.262 9.93387 150.228 4.9026 150.051 4.86333C150 4.84961 149.952 4.82595 149.91 4.79364C149.868 4.76133 149.833 4.72098 149.806 4.675C149.78 4.62901 149.763 4.57827 149.756 4.52561C149.749 4.47295 149.753 4.41941 149.766 4.36809C149.78 4.31677 149.804 4.26871 149.836 4.22655C149.868 4.18438 149.909 4.14897 149.955 4.12238C150.001 4.09579 150.051 4.07849 150.104 4.07152C150.156 4.06455 150.21 4.06808 150.261 4.0818C150.451 4.13465 154.956 5.36485 160.748 9.02144C168.4 13.8528 174.606 20.6649 178.714 28.7407C178.76 28.8355 178.768 28.9449 178.734 29.0452C178.701 29.1456 178.63 29.229 178.536 29.2775C178.478 29.3113 178.412 29.3292 178.345 29.3297Z" fill="black"/>
<path d="M172.872 30.063C172.804 30.0623 172.739 30.045 172.68 30.0125C172.621 29.98 172.571 29.9334 172.535 29.8769C164.984 18.0382 155.564 18.2745 155.467 18.279C155.414 18.2814 155.361 18.2733 155.311 18.2551C155.262 18.237 155.216 18.2092 155.177 18.1733C155.138 18.1375 155.106 18.0943 155.084 18.0461C155.062 17.998 155.049 17.9459 155.047 17.8929C155.044 17.8398 155.053 17.7868 155.071 17.7369C155.089 17.6869 155.117 17.641 155.153 17.6018C155.189 17.5626 155.232 17.5309 155.28 17.5084C155.328 17.4859 155.38 17.4732 155.433 17.4708C155.836 17.4556 165.396 17.1855 173.211 29.4413C173.25 29.5024 173.272 29.573 173.274 29.6457C173.277 29.7183 173.259 29.7902 173.224 29.8538C173.189 29.9175 173.138 29.9704 173.075 30.0073C173.012 30.0441 172.941 30.0633 172.869 30.0629L172.872 30.063Z" fill="black"/>
<path d="M196.375 47.7823C196.26 47.7807 196.148 47.7498 196.048 47.6924C195.948 47.6351 195.865 47.5532 195.805 47.4544C195.76 47.3788 195.73 47.295 195.718 47.2077C195.705 47.1205 195.709 47.0315 195.731 46.946C195.753 46.8605 195.791 46.7801 195.843 46.7093C195.896 46.6386 195.962 46.5789 196.038 46.5338C198.832 44.8479 200.35 42.9004 200.553 40.7421C200.897 37.0974 197.387 33.9266 197.352 33.894C197.286 33.8355 197.232 33.7645 197.194 33.6851C197.155 33.6057 197.133 33.5194 197.128 33.4312C197.122 33.3429 197.134 33.2545 197.163 33.1709C197.192 33.0873 197.237 33.0102 197.296 32.9439C197.354 32.8777 197.425 32.8236 197.504 32.7848C197.583 32.746 197.669 32.7232 197.757 32.7178C197.845 32.7123 197.934 32.7243 198.017 32.753C198.1 32.7817 198.177 32.8266 198.243 32.8851C198.408 33.0319 202.29 36.5314 201.888 40.8562C201.647 43.4688 199.911 45.7641 196.717 47.6859C196.614 47.7483 196.496 47.7816 196.375 47.7823Z" fill="white"/>
<path d="M49.9846 22.7886C49.4197 23.0831 48.9181 23.4862 48.5084 23.975C48.0986 24.4638 47.7888 25.0287 47.5968 25.6371C47.4047 26.2456 47.334 26.8857 47.3891 27.5208C47.4441 28.1559 47.6237 28.7736 47.9174 29.3384C47.941 29.3843 47.9645 29.4357 47.988 29.4871C47.3848 28.3702 46.3672 27.5371 45.1548 27.1675C43.9425 26.7978 42.6325 26.9213 41.5074 27.5112C39.133 28.7536 38.0162 31.7894 39.4401 34.0636C42.0774 38.2439 49.4458 39.3819 52.2323 39.6698C52.5512 39.7019 52.8725 39.6335 53.1515 39.4743C53.4305 39.3151 53.6532 39.0728 53.789 38.7812C55.058 36.0563 58.3308 28.3511 56.5129 24.843C56.2208 24.277 55.82 23.7747 55.3335 23.3649C54.8471 22.9552 54.2846 22.646 53.6781 22.4552C53.0715 22.2643 52.433 22.1955 51.7992 22.2527C51.1654 22.3099 50.5487 22.4921 49.9846 22.7886Z" fill="white"/>
<path d="M52.3594 40.0805L52.1795 40.0789C49.1436 39.7673 41.7892 38.581 39.0888 34.287C38.7484 33.7386 38.5267 33.1245 38.4379 32.4842C38.349 31.8438 38.3949 31.1915 38.5728 30.5693C38.7691 29.8447 39.1124 29.1681 39.5812 28.5818C40.0499 27.9956 40.634 27.5123 41.2968 27.1623C42.1071 27.8102 43.0916 28.2016 44.1256 28.2868C45.1596 28.372 46.1965 28.1473 47.1047 27.6411C48.0128 27.1349 48.7515 26.37 49.2268 25.4435C49.702 24.517 49.8924 23.4705 49.774 22.437C51.0078 21.792 52.4447 21.663 53.7701 22.0782C55.0955 22.4934 56.2014 23.419 56.8453 24.6522C58.7211 28.2712 55.5708 35.8537 54.1284 38.9486C53.9717 39.2867 53.7218 39.573 53.4083 39.7736C53.0948 39.9741 52.7308 40.0807 52.3594 40.0805ZM43.7567 27.3693C43.0353 27.3619 42.3228 27.5344 41.6834 27.8712C41.1183 28.17 40.6198 28.5812 40.2184 29.0797C39.817 29.5781 39.5213 30.1533 39.3493 30.7699C39.201 31.2847 39.1618 31.8247 39.2344 32.3549C39.3069 32.8852 39.4894 33.3941 39.7703 33.8486C42.2809 37.8421 49.3434 38.9666 52.2641 39.2664C52.4994 39.2906 52.7365 39.2405 52.9425 39.123C53.1484 39.0055 53.3128 38.8267 53.4127 38.6113C54.4973 36.2806 57.9033 28.4177 56.143 25.0285C55.6002 23.9834 54.6653 23.1981 53.5437 22.8451C52.4221 22.4921 51.2053 22.6003 50.1606 23.1459C49.1161 23.6933 48.3296 24.6332 47.9739 25.7595C47.6182 26.8858 47.7225 28.1063 48.2634 29.1531C48.2845 29.191 48.3027 29.2315 48.3237 29.2748L48.3421 29.3099L47.6236 29.6808C47.2428 28.9852 46.6839 28.4044 46.0043 27.9982C45.3246 27.5919 44.5488 27.3749 43.7567 27.3693Z" fill="#1D1E1B"/>
<path d="M52.4109 25.832C52.3446 25.831 52.2796 25.8138 52.2215 25.7818C52.1635 25.7498 52.1141 25.704 52.0779 25.6484C52.0417 25.5927 52.0195 25.529 52.0136 25.4628C52.0076 25.3966 52.0181 25.3299 52.0438 25.2686C52.1183 25.0942 53.9189 20.9335 58.2287 16.5529C62.2097 12.5087 69.1589 7.55104 79.672 6.88018C79.725 6.87676 79.7782 6.88382 79.8284 6.90097C79.8786 6.91813 79.925 6.94505 79.9648 6.98016C80.0046 7.01528 80.0369 7.05794 80.0602 7.10567C80.0835 7.1534 80.0972 7.20529 80.1005 7.25836C80.1038 7.31144 80.0966 7.36464 80.0794 7.41498C80.0621 7.46532 80.0353 7.5118 80.0002 7.55175C79.9651 7.59169 79.9224 7.62433 79.8747 7.6478C79.8271 7.67127 79.7753 7.6851 79.7224 7.68852C69.4781 8.34023 62.7049 13.1621 58.8273 17.0942C54.6127 21.3652 52.8037 25.5447 52.7844 25.5849C52.754 25.6588 52.7021 25.7219 52.6355 25.766C52.5689 25.81 52.4907 25.833 52.4109 25.832Z" fill="black"/>
<path d="M50.4772 15.0297C50.4022 15.0281 50.3291 15.006 50.2657 14.9659C50.2211 14.9377 50.1824 14.9009 50.152 14.8577C50.1216 14.8144 50.1002 14.7656 50.0888 14.714C50.0774 14.6623 50.0763 14.6088 50.0855 14.5567C50.0948 14.5046 50.1142 14.4548 50.1428 14.4102C50.2057 14.3111 56.5587 4.38524 66.8 0.678038C66.8985 0.651904 67.003 0.664067 67.0927 0.712071C67.1824 0.760075 67.2506 0.840344 67.2835 0.93679C67.3165 1.03324 67.3118 1.13866 67.2703 1.23192C67.2289 1.32519 67.1539 1.39936 67.0602 1.43952C57.0806 5.04945 50.8697 14.7559 50.8096 14.8415C50.7736 14.8976 50.7247 14.9441 50.6667 14.9769C50.6088 15.0097 50.5437 15.0278 50.4772 15.0297Z" fill="black"/>
<path d="M52.8739 37.4546C52.7599 37.4539 52.6481 37.4238 52.5491 37.3673C52.45 37.3107 52.3668 37.2297 52.308 37.1318C52.2491 37.0339 52.2163 36.9223 52.2126 36.8079C52.2089 36.6936 52.2345 36.5801 52.2869 36.4783C55.111 30.9597 54.6562 27.0204 54.6513 26.98C54.6316 26.8048 54.6813 26.6287 54.7897 26.4897C54.898 26.3507 55.0564 26.2598 55.2306 26.2367C55.4048 26.2136 55.5808 26.26 55.7209 26.3661C55.8611 26.4721 55.9542 26.6292 55.9799 26.8036C56.0048 26.9786 56.5079 31.1659 53.4784 37.0888C53.4216 37.2002 53.3349 37.2936 53.2281 37.3582C53.1212 37.4229 52.9985 37.4563 52.8739 37.4546Z" fill="white"/>
</svg>
