<svg width="238" height="238" viewBox="0 0 238 238" fill="none" xmlns="http://www.w3.org/2000/svg">
<circle opacity="0.2" cx="119.5" cy="118.5" r="81.5" fill="#D9A62A" stroke="#D9A62A" stroke-width="2"/>
<circle opacity="0.2" cx="119" cy="119" r="100" fill="#D9A62A" stroke="#D9A62A" stroke-width="2"/>
<circle opacity="0.2" cx="119" cy="119" r="118" fill="#D9A62A" stroke="#D9A62A" stroke-width="2"/>
<circle cx="119.5" cy="118.5" r="62.5" fill="white"/>
<g clip-path="url(#clip0_87_31704)">
<path fill-rule="evenodd" clip-rule="evenodd" d="M119.5 56C136.757 56 152.383 62.9966 163.693 74.3066C175.003 85.6167 182 101.243 182 118.5C182 135.757 175.003 151.383 163.693 162.693C152.383 174.003 136.757 181 119.5 181C102.243 181 86.6167 174.003 75.3066 162.693C63.9966 151.383 57 135.757 57 118.5C57 101.243 63.9966 85.6167 75.3066 74.3066C86.6167 62.9966 102.243 56 119.5 56ZM124.272 129.799C124.057 135.186 114.935 135.193 114.726 129.797C113.804 120.568 111.444 98.6565 111.519 89.9844C111.595 87.312 113.81 85.73 116.644 85.1265C117.517 84.9397 118.478 84.8491 119.446 84.8501C120.419 84.8518 121.382 84.9478 122.257 85.1345C125.184 85.7581 127.482 87.4053 127.481 90.1257L127.47 90.3984L124.272 129.799ZM119.499 139.372C123.028 139.372 125.888 142.233 125.888 145.761C125.888 149.29 123.028 152.15 119.499 152.15C115.97 152.15 113.11 149.29 113.11 145.761C113.11 142.233 115.97 139.372 119.499 139.372Z" fill="#D9A62A"/>
</g>
<defs>
<clipPath id="clip0_87_31704">
<rect width="125" height="125" fill="white" transform="translate(57 56)"/>
</clipPath>
</defs>
</svg>
